<svg id="Layer_5" data-name="Layer 5" xmlns="http://www.w3.org/2000/svg" viewBox="0 0 496 496"><defs><style>.cls-1{fill:#64b2cd;}</style></defs><title>camera</title><path class="cls-1" d="M152,296a40,40,0,1,1,40-40A40,40,0,0,1,152,296Zm0-48a8,8,0,1,0,8,8A8,8,0,0,0,152,248Z" transform="translate(-8 -8)"/><path class="cls-1" d="M376,432h96v40H376Z" transform="translate(-8 -8)"/><path class="cls-1" d="M376,40h96V80H376Z" transform="translate(-8 -8)"/><path class="cls-1" d="M400,336a64,64,0,1,1,64-64A64.07,64.07,0,0,1,400,336Zm0-96a32,32,0,1,0,32,32A32,32,0,0,0,400,240Z" transform="translate(-8 -8)"/><path d="M144,40h16V56H144Z" transform="translate(-8 -8)"/><path d="M176,40h16V56H176Z" transform="translate(-8 -8)"/><path d="M112,40h16V56H112Z" transform="translate(-8 -8)"/><path d="M112,456h80v16H112Z" transform="translate(-8 -8)"/><circle cx="144" cy="248" r="8"/><path d="M248,152h16V104H216v16h32Z" transform="translate(-8 -8)"/><path d="M248,392H216v16h48V360H248Z" transform="translate(-8 -8)"/><path d="M56,360H40v48H88V392H56Z" transform="translate(-8 -8)"/><path d="M40,152H56V120H88V104H40Z" transform="translate(-8 -8)"/><path d="M464,168H428.94l-9.36-18.74A23.87,23.87,0,0,0,398.11,136H337.89a23.88,23.88,0,0,0-21.47,13.26L307.06,168H296V48A40,40,0,0,0,256,8H48A40,40,0,0,0,8,48V464a40,40,0,0,0,40,40H256a40,40,0,0,0,40-40V344H464a40,40,0,0,0,40-40V208A40,40,0,0,0,464,168ZM316.94,184l13.8-27.58a8,8,0,0,1,7.15-4.42h60.22a8,8,0,0,1,7.15,4.42L419.06,184H464a24,24,0,0,1,22.53,16H249.47A24,24,0,0,1,272,184ZM248,216h48V328H272a24,24,0,0,1-24-24ZM48,24H256a24,24,0,0,1,24,24V72H24V48A24,24,0,0,1,48,24ZM256,488H48a24,24,0,0,1-24-24V440H280v24A24,24,0,0,1,256,488Zm24-64H24V88H280v80h-8a40,40,0,0,0-40,40v96a40,40,0,0,0,40,40h8Zm184-96H312V216H488v88A24,24,0,0,1,464,328Z" transform="translate(-8 -8)"/><path d="M400,232a40,40,0,1,0,40,40A40,40,0,0,0,400,232Zm0,64a24,24,0,1,1,24-24A24,24,0,0,1,400,296Z" transform="translate(-8 -8)"/><path d="M336,168h64v16H336Z" transform="translate(-8 -8)"/><circle cx="392" cy="264" r="8"/><path d="M264,232h16v16H264Z" transform="translate(-8 -8)"/><path d="M264,264h16v16H264Z" transform="translate(-8 -8)"/><path d="M264,296h16v16H264Z" transform="translate(-8 -8)"/><path d="M376,424h96v16H376Z" transform="translate(-8 -8)"/><path d="M376,456h64v16H376Z" transform="translate(-8 -8)"/><path d="M456,456h16v16H456Z" transform="translate(-8 -8)"/><path d="M480,392H442.81l-34.56-27.66A19.86,19.86,0,0,0,376,379.84V392h-8a24,24,0,0,0-24,24v64a24,24,0,0,0,24,24H480a24,24,0,0,0,24-24V416A24,24,0,0,0,480,392Zm8,88a8,8,0,0,1-8,8H368a8,8,0,0,1-8-8V416a8,8,0,0,1,8-8h24V379.84c0-3,3.93-4.84,6.25-3L437.19,408H480a8,8,0,0,1,8,8Z" transform="translate(-8 -8)"/><path d="M376,72h96V88H376Z" transform="translate(-8 -8)"/><path d="M408,40h64V56H408Z" transform="translate(-8 -8)"/><path d="M376,40h16V56H376Z" transform="translate(-8 -8)"/><path d="M480,8H368a24,24,0,0,0-24,24V96a24,24,0,0,0,24,24h37.19l34.56,27.66A19.86,19.86,0,0,0,472,132.16V120h8a24,24,0,0,0,24-24V32A24,24,0,0,0,480,8Zm8,88a8,8,0,0,1-8,8H456v28.16a4,4,0,0,1-6.25,3L410.81,104H368a8,8,0,0,1-8-8V32a8,8,0,0,1,8-8H480a8,8,0,0,1,8,8Z" transform="translate(-8 -8)"/></svg>