<svg id="Layer_5" data-name="Layer 5" xmlns="http://www.w3.org/2000/svg" viewBox="0 0 496 496"><defs><style>.cls-1{fill:#64b2cd;}</style></defs><title>fingerprint</title><path class="cls-1" d="M360,216a143.76,143.76,0,0,0-116,59,12.2,12.2,0,0,1,4.32,9.27,43.58,43.58,0,0,1-27.83,40.62,142.34,142.34,0,0,0-4.1,27.1h40a104.16,104.16,0,1,1,20.69,70.54l-.11.11A16,16,0,0,1,264,448H248a15.8,15.8,0,0,1,15.72,18.77A143.29,143.29,0,0,0,360,504c79.4,0,144-64.6,144-144S439.4,216,360,216Z" transform="translate(-8 -8)"/><path d="M440,176a32,32,0,0,0,32-32V120a112,112,0,0,0-224,0V268a20.07,20.07,0,0,0-23.19-.57l-12.35,8.23a35.7,35.7,0,0,1-15.32,5.7l-44.26,5.53a54.34,54.34,0,0,0-20.38,6.7L78.16,320H8V464H77.34L94.4,476.8A56.32,56.32,0,0,0,128,488H248a23.92,23.92,0,0,0,22.24-32.93,24,24,0,0,0,14.9-11.94A110.91,110.91,0,0,0,360,472a112,112,0,0,0,0-224c-55.7,0-102.9,41.62-110.74,96H191.9a24,24,0,0,1-10.56-2.45l33.56-6.71a51.71,51.71,0,0,0,41.44-50.56,20.15,20.15,0,0,0-7.35-15.5A147.29,147.29,0,0,1,264,253V120a96,96,0,0,1,192,0v24a16,16,0,0,1-32,0V120a64,64,0,0,0-128,0V231.15a143.43,143.43,0,0,1,16-6.82V120a48,48,0,0,1,96,0v24A32,32,0,0,0,440,176Zm16,184a96,96,0,0,1-172.63,57.83l-.06,0c-.48-.65-1-1.27-1.55-1.88a23.27,23.27,0,0,0,4.77-24h18.22A63.89,63.89,0,0,0,424,360V288.64A95.72,95.72,0,0,1,456,360ZM352,344H312V328h96v32a48,48,0,0,1-83.74,32H352a24,24,0,0,0,0-48Zm56-67v35H312V277.1a94.86,94.86,0,0,1,96-.12ZM296,288.7V344H265.36A95.8,95.8,0,0,1,296,288.7Zm-84.25,30.46-51.41,10.29V349L174,355.78A40.21,40.21,0,0,0,191.89,360H352a8,8,0,0,1,0,16H216v16h48a8,8,0,0,1,0,16H216v16h48a8,8,0,0,1,0,16H216v16h32a8,8,0,0,1,0,16H128a40.22,40.22,0,0,1-24-8L82.66,448H24V336H81.84L140,307.71a39.58,39.58,0,0,1,14.87-5l44.27-5.53a51.77,51.77,0,0,0,22.2-8.26l12.35-8.23a4.43,4.43,0,0,1,6.66,3.56A35.67,35.67,0,0,1,211.75,319.16Z" transform="translate(-8 -8)"/><path d="M136,112V96a24,24,0,0,0-48,0v32a24,24,0,0,0,48,0H120a8,8,0,0,1-16,0V96a8,8,0,0,1,16,0v16Z" transform="translate(-8 -8)"/><path d="M112,184V168a40,40,0,0,1-40-40V112H56v16A56.07,56.07,0,0,0,112,184Z" transform="translate(-8 -8)"/><path d="M152,128a40.06,40.06,0,0,1-26.66,37.72l5.32,15.1A56.1,56.1,0,0,0,168,128V96H152Z" transform="translate(-8 -8)"/><path d="M112,56a40.06,40.06,0,0,1,37.72,26.66l15.1-5.32A56,56,0,0,0,56,96H72A40,40,0,0,1,112,56Z" transform="translate(-8 -8)"/><path d="M32,216h68.25L133,255.23A24.34,24.34,0,0,0,176,239.66V216h16a24,24,0,0,0,24-24V32A24,24,0,0,0,192,8H32A24,24,0,0,0,8,32V192a24,24,0,0,0,24,24ZM24,32a8,8,0,0,1,8-8H192a8,8,0,0,1,8,8V192a8,8,0,0,1-8,8H160v39.66A8.34,8.34,0,0,1,145.25,245l-37.5-45H32a8,8,0,0,1-8-8Z" transform="translate(-8 -8)"/><path d="M328,280h16v16H328Z" transform="translate(-8 -8)"/><path d="M376,280h16v16H376Z" transform="translate(-8 -8)"/></svg>