<svg id="Layer_5" data-name="Layer 5" xmlns="http://www.w3.org/2000/svg" viewBox="0 0 496.78 496"><defs><style>.cls-1{fill:#64b2cd;}</style></defs><title>headphone</title><path class="cls-1" d="M160,248H352V440H160Z" transform="translate(-8 -8)"/><path class="cls-1" d="M256,48A207.89,207.89,0,0,0,76.38,151.14l9.39,5.27a32.16,32.16,0,0,0,40.62-7.24,167.9,167.9,0,0,1,259.22,0,31.67,31.67,0,0,0,24.53,11.47,32.83,32.83,0,0,0,16.08-4.23l9.39-5.27A207.85,207.85,0,0,0,256,48Z" transform="translate(-8 -8)"/><path d="M248,273.86v53.49l-27-21.6-10,12.5L243.19,344,211,369.75l10,12.5,27-21.6v53.49l62-37.2L268.81,344,310,311.06Zm34,101.2-18,10.8V360.65Zm-18-47.71V302.14l18,10.8Z" transform="translate(-8 -8)"/><path d="M216,216h16v16H216Z" transform="translate(-8 -8)"/><path d="M248,216h16v16H248Z" transform="translate(-8 -8)"/><path d="M280,216h16v16H280Z" transform="translate(-8 -8)"/><path d="M224,456h64v16H224Z" transform="translate(-8 -8)"/><path d="M239,143l11.32,11.31a8.19,8.19,0,0,1,11.31,0L273,143c-9.07-9.07-24.87-9.07-34,0Z" transform="translate(-8 -8)"/><path d="M216.4,120.4l11.31,11.31a40.06,40.06,0,0,1,56.57,0l11.31-11.31a56.06,56.06,0,0,0-79.19,0Z" transform="translate(-8 -8)"/><path d="M493.32,327.65A248.07,248.07,0,0,0,504,256C504,119.26,392.74,8,256,8S8,119.26,8,256a247.87,247.87,0,0,0,10.86,72.24,32,32,0,0,0-9.43,33.4l24.79,79.85A31.87,31.87,0,0,0,64.78,464a32.61,32.61,0,0,0,9.45-1.42,31.94,31.94,0,0,0,7.22-3.38A47.65,47.65,0,0,0,130.38,479a47,47,0,0,0,22-11A39.93,39.93,0,0,0,192,504H320a39.94,39.94,0,0,0,39.66-36.56A47.23,47.23,0,0,0,382.36,479a47.82,47.82,0,0,0,49.05-19.77,32.12,32.12,0,0,0,7.17,3.34A32.59,32.59,0,0,0,448,464a31.88,31.88,0,0,0,30.56-22.5l24.78-79.86a32.05,32.05,0,0,0-10-34ZM256,24c127.93,0,232,104.07,232,232a231.73,231.73,0,0,1-9.37,64.83,32.3,32.3,0,0,0-6.65-.56,48.09,48.09,0,0,0-4.48-20.49A217.4,217.4,0,0,0,472,256c0-119.1-96.9-216-216-216S40,136.9,40,256a216.86,216.86,0,0,0,4.78,45.09,48.63,48.63,0,0,0-3.89,19.18,31.86,31.86,0,0,0-7.47.71A231.62,231.62,0,0,1,24,256C24,128.07,128.07,24,256,24Zm64,160H192a40,40,0,0,0-40,40V367l-16.14-56.45A47.91,47.91,0,0,0,79.08,273a47.11,47.11,0,0,0-21.17,10.2A202.21,202.21,0,0,1,56,256C56,145.72,145.72,56,256,56s200,89.72,200,200a202.12,202.12,0,0,1-1.83,26.62A47.06,47.06,0,0,0,433.76,273a48,48,0,0,0-9.83-1c-22.78,0-42.55,16.24-46.85,38L360,369.8V224a40,40,0,0,0-40-40ZM69.5,447.29a16.19,16.19,0,0,1-20-10.55L24.71,356.9a16.05,16.05,0,0,1,10.56-20,15.82,15.82,0,0,1,8.5-.21L73.72,441.42c.21,1,.61,2,.89,3a16.08,16.08,0,0,1-5.11,2.85Zm19.76-9.64L57.41,326.27A31.91,31.91,0,0,1,64.77,299l51,164.58a32.37,32.37,0,0,1-26.53-25.9ZM132,461.87,78.66,289.78a29.75,29.75,0,0,1,3.62-1.12,32.42,32.42,0,0,1,6.57-.68c15.17,0,28.33,10.83,31.46,26.37L152,425.14V438.9a31.88,31.88,0,0,1-20,23ZM320,488H192a24,24,0,0,1-24-24V439.74a49.55,49.55,0,0,0,0-15.8V224a24,24,0,0,1,24-24H320a24,24,0,0,1,24,24V464A24,24,0,0,1,320,488Zm40-54.42v-2.2a30.55,30.55,0,0,1,.46-5l32.16-112.63a31.9,31.9,0,0,1,37.95-25,30.42,30.42,0,0,1,3.55,1.1L380.78,461.87A31.91,31.91,0,0,1,360,433.58Zm37,30,51-164.65a31.34,31.34,0,0,1,7.5,26.74L423.37,438.28A32,32,0,0,1,397,463.56Zm91.07-106.67-24.78,79.85A15.93,15.93,0,0,1,448,448a14.77,14.77,0,0,1-9.8-3.55c.21-.82.54-1.58.71-2.41L469,336.66a15.92,15.92,0,0,1,19.07,20.23Z" transform="translate(-8 -8)"/></svg>