<?xml version="1.0" encoding="utf-8"?>
<!-- Generator: Adobe Illustrator 23.0.6, SVG Export Plug-In . SVG Version: 6.00 Build 0)  -->
<svg version="1.1" id="Слой_1" xmlns="http://www.w3.org/2000/svg" xmlns:xlink="http://www.w3.org/1999/xlink" x="0px" y="0px"
	 viewBox="0 0 2245.2 2000" style="enable-background:new 0 0 2245.2 2000;" xml:space="preserve">
<style type="text/css">
	.st0{fill:#64B2CC;}
	.st1{fill:#FAFAFA;}
	.st2{fill:#97A43C;}
	.st3{filter:url(#Adobe_OpacityMaskFilter);}
	.st4{filter:url(#Adobe_OpacityMaskFilter_1_);}
	.st5{mask:url(#SVGID_1_);fill:url(#SVGID_2_);}
	.st6{fill:url(#SVGID_3_);}
	.st7{filter:url(#Adobe_OpacityMaskFilter_2_);}
	.st8{filter:url(#Adobe_OpacityMaskFilter_3_);}
	.st9{mask:url(#SVGID_4_);fill:url(#SVGID_5_);}
	.st10{fill:url(#SVGID_6_);}
	.st11{fill:#C2C2C2;}
	.st12{fill:#D6D6D6;}
	.st13{fill:#E8E8E8;}
	.st14{fill:#0E2D3D;}
	.st15{fill:#285173;}
	.st16{fill:#EEA886;}
	.st17{fill:#1D3B54;}
	.st18{fill:#EDDAD3;}
	.st19{fill:#D6C5BE;}
	.st20{fill:#FAE6DE;}
	.st21{fill:#EB4747;}
	.st22{fill:url(#SVGID_7_);}
	.st23{fill:#EEA987;}
	.st24{fill:#A77860;}
	.st25{fill:#E2D2CA;}
	.st26{fill:#F2E2D9;}
	.st27{fill:#CCBDB7;}
	.st28{fill:#948A84;}
	.st29{fill:#FEB755;}
	.st30{fill:#EAD8CF;}
	.st31{fill:#DA9B5B;}
	.st32{fill:#292C47;}
	.st33{fill:#3A3F47;}
	.st34{fill:#323657;}
	.st35{fill:#918783;}
	.st36{fill:#5E5854;}
	.st37{fill:#F5F7FF;}
	.st38{fill:#DFE1E8;}
	.st39{filter:url(#Adobe_OpacityMaskFilter_4_);}
	.st40{filter:url(#Adobe_OpacityMaskFilter_5_);}
	.st41{mask:url(#SVGID_8_);fill:url(#SVGID_9_);}
	.st42{fill:#3F446E;}
	.st43{fill:#E8734D;}
	.st44{fill:#CFBEB8;}
	.st45{fill:#494F80;}
	.st46{fill:#6A77BF;}
	.st47{fill:#252740;}
	.st48{fill:#3D426B;}
	.st49{opacity:0.16;fill:#6395BF;}
	.st50{fill:#D88A51;}
	.st51{fill:#315496;}
	.st52{fill:#4373CF;}
	.st53{fill:#CFBEB6;}
	.st54{fill:#23263D;}
	.st55{fill:#548AD1;}
	.st56{fill:#E2E3ED;}
	.st57{fill:#AAB1E0;}
	.st58{fill:#DBD8E3;}
	.st59{fill:#1D2033;}
	.st60{fill:#434343;}
	.st61{fill:#C4C1CC;}
	.st62{fill:#754836;}
	.st63{fill:#CF8C6C;}
	.st64{fill:#DB9C7C;}
	.st65{fill:url(#SVGID_10_);}
	.st66{fill:#EBEBEB;}
	.st67{filter:url(#Adobe_OpacityMaskFilter_6_);}
	.st68{filter:url(#Adobe_OpacityMaskFilter_7_);}
	.st69{mask:url(#SVGID_11_);fill:url(#SVGID_12_);}
	.st70{filter:url(#Adobe_OpacityMaskFilter_8_);}
	.st71{filter:url(#Adobe_OpacityMaskFilter_9_);}
	.st72{mask:url(#SVGID_13_);fill:url(#SVGID_14_);}
</style>
<g>
	<g>
		<path class="st0" d="M1339.5,1084.8c5.2-13.6,8.4-27.8,9.6-42l28.3-10.8l-5.5-32.5l-5.5-32.5l-30.3-1c-5.8-13-13.4-25.3-22.8-36.5
			l12.4-27.7l-26.9-19.1l-26.9-19.1l-22.1,20.7c-13.6-5.2-27.8-8.4-42-9.6l-10.8-28.3l-32.5,5.5l-32.5,5.5l-1,30.3
			c-13,5.8-25.3,13.4-36.5,22.8l-27.7-12.4l-19.1,26.9l-19.1,26.9l20.7,22.1c-5.2,13.6-8.4,27.8-9.6,42l-28.3,10.8l5.5,32.5
			l5.5,32.5l30.3,1c5.8,13,13.4,25.3,22.8,36.5l-12.4,27.7l26.9,19.1l26.9,19.1l22.1-20.7c13.6,5.2,27.8,8.4,42,9.6l10.8,28.3
			l32.5-5.5l32.5-5.5l1-30.3c13-5.8,25.3-13.4,36.5-22.8l27.7,12.4l19.1-26.9l19.1-26.9L1339.5,1084.8z M1147.6,1095.2
			c-36.4-25.9-44.9-76.3-19-112.7c25.9-36.4,76.3-44.9,112.7-19c36.4,25.9,44.9,76.3,19,112.7
			C1234.4,1112.6,1183.9,1121.1,1147.6,1095.2z"/>
		<path class="st0" d="M1090.5,833.5c2.8-7.3,4.5-14.8,5.1-22.4l15.1-5.8l-2.9-17.3l-2.9-17.3l-16.1-0.5
			c-3.1-6.9-7.2-13.5-12.2-19.4l6.6-14.7l-14.3-10.2l-14.3-10.2l-11.8,11c-7.3-2.8-14.8-4.5-22.4-5.1l-5.8-15.1l-17.3,2.9l-17.3,2.9
			l-0.5,16.1c-6.9,3.1-13.5,7.2-19.4,12.2l-14.7-6.6l-10.2,14.3L925,762.7l11,11.8c-2.8,7.3-4.5,14.8-5.1,22.4l-15.1,5.8l2.9,17.3
			l2.9,17.3l16.1,0.5c3.1,6.9,7.2,13.5,12.2,19.4l-6.6,14.7l14.3,10.2l14.3,10.2l11.8-11c7.3,2.8,14.8,4.5,22.4,5.1l5.8,15.1
			l17.3-2.9l17.3-2.9l0.5-16.1c6.9-3.1,13.5-7.2,19.4-12.2l14.7,6.6l10.2-14.3l10.2-14.3L1090.5,833.5z M988.4,839.1
			c-19.4-13.8-23.9-40.6-10.1-60c13.8-19.4,40.6-23.9,60-10.1c19.4,13.8,23.9,40.6,10.1,60C1034.6,848.3,1007.7,852.8,988.4,839.1z"
			/>
		
			<ellipse transform="matrix(0.7071 -0.7071 0.7071 0.7071 -589.038 735.3215)" class="st1" cx="593.1" cy="1078.7" rx="402.6" ry="402.6"/>
		<g>
			<g>
				<line class="st2" x1="1909.4" y1="418.2" x2="1908.7" y2="419.1"/>
			</g>
		</g>
		
			<ellipse transform="matrix(0.7071 -0.7071 0.7071 0.7071 41.2458 1177.6433)" class="st1" cx="1442.2" cy="539" rx="402.6" ry="402.6"/>
		<g>
			<defs>
				<filter id="Adobe_OpacityMaskFilter" filterUnits="userSpaceOnUse" x="1458" y="978.3" width="14.1" height="48.5">
					<feFlood  style="flood-color:white;flood-opacity:1" result="back"/>
					<feBlend  in="SourceGraphic" in2="back" mode="normal"/>
				</filter>
			</defs>
			<mask maskUnits="userSpaceOnUse" x="1458" y="978.3" width="14.1" height="48.5" id="SVGID_1_">
				<g class="st3">
					<defs>
						<filter id="Adobe_OpacityMaskFilter_1_" filterUnits="userSpaceOnUse" x="1458" y="978.3" width="14.1" height="48.5">
							<feFlood  style="flood-color:white;flood-opacity:1" result="back"/>
							<feBlend  in="SourceGraphic" in2="back" mode="normal"/>
						</filter>
					</defs>
					<mask maskUnits="userSpaceOnUse" x="1458" y="978.3" width="14.1" height="48.5" id="SVGID_1_">
						<g class="st4">
						</g>
					</mask>
					<linearGradient id="SVGID_2_" gradientUnits="userSpaceOnUse" x1="1465.019" y1="826.7652" x2="1465.019" y2="1050.0056">
						<stop  offset="0" style="stop-color:#000000"/>
						<stop  offset="0.9896" style="stop-color:#FFFFFF"/>
					</linearGradient>
					<rect x="1458" y="978.3" class="st5" width="14.1" height="48.5"/>
				</g>
			</mask>
			<linearGradient id="SVGID_3_" gradientUnits="userSpaceOnUse" x1="1465.019" y1="826.7652" x2="1465.019" y2="1050.0056">
				<stop  offset="0" style="stop-color:#40CDE6"/>
				<stop  offset="0.9896" style="stop-color:#A7D4F0"/>
			</linearGradient>
			<rect x="1458" y="978.3" class="st6" width="14.1" height="48.5"/>
		</g>
		<g>
			<defs>
				<filter id="Adobe_OpacityMaskFilter_2_" filterUnits="userSpaceOnUse" x="974.6" y="1324.7" width="50.2" height="31.6">
					<feFlood  style="flood-color:white;flood-opacity:1" result="back"/>
					<feBlend  in="SourceGraphic" in2="back" mode="normal"/>
				</filter>
			</defs>
			<mask maskUnits="userSpaceOnUse" x="974.6" y="1324.7" width="50.2" height="31.6" id="SVGID_4_">
				<g class="st7">
					<defs>
						<filter id="Adobe_OpacityMaskFilter_3_" filterUnits="userSpaceOnUse" x="974.6" y="1324.7" width="50.2" height="31.6">
							<feFlood  style="flood-color:white;flood-opacity:1" result="back"/>
							<feBlend  in="SourceGraphic" in2="back" mode="normal"/>
						</filter>
					</defs>
					<mask maskUnits="userSpaceOnUse" x="974.6" y="1324.7" width="50.2" height="31.6" id="SVGID_4_">
						<g class="st8">
						</g>
					</mask>
					
						<linearGradient id="SVGID_5_" gradientUnits="userSpaceOnUse" x1="-5523.1836" y1="-1100.3649" x2="-5523.1836" y2="-877.1277" gradientTransform="matrix(0.3834 -0.9236 0.9236 0.3834 3971.2627 -3406.1804)">
						<stop  offset="0" style="stop-color:#000000"/>
						<stop  offset="0.9896" style="stop-color:#FFFFFF"/>
					</linearGradient>
					<polygon class="st9" points="1024.8,1343.3 1019.4,1356.3 974.6,1337.8 980,1324.7 					"/>
				</g>
			</mask>
			
				<linearGradient id="SVGID_6_" gradientUnits="userSpaceOnUse" x1="-5523.1836" y1="-1100.3649" x2="-5523.1836" y2="-877.1277" gradientTransform="matrix(0.3834 -0.9236 0.9236 0.3834 3971.2627 -3406.1804)">
				<stop  offset="0" style="stop-color:#40CDE6"/>
				<stop  offset="0.9896" style="stop-color:#A7D4F0"/>
			</linearGradient>
			<polygon class="st10" points="1024.8,1343.3 1019.4,1356.3 974.6,1337.8 980,1324.7 			"/>
		</g>
		<g>
			<g>
				<path class="st11" d="M1772.7,518c-6.1-8.1-10.1-12.5-10.1-12.6l3-2.7c0.2,0.2,4.1,4.6,10.3,12.8L1772.7,518z"/>
			</g>
			<g>
				<path class="st0" d="M854.3,1652.7c-10.2-1.5-21-3.6-32-6.3l1-4c10.9,2.6,21.5,4.7,31.6,6.2L854.3,1652.7z M791,1637.6
					c-10.2-3.3-20.5-7.1-30.6-11.2l1.5-3.8c10,4,20.2,7.8,30.3,11.1L791,1637.6z M730.6,1613.2c-9.8-4.8-19.5-9.9-28.8-15.3l2-3.5
					c9.2,5.3,18.8,10.4,28.5,15.1L730.6,1613.2z M674.3,1580.6c-9.1-6.3-17.9-12.9-26-19.6l2.6-3.1c8,6.6,16.7,13.2,25.7,19.4
					L674.3,1580.6z M624.2,1538.9c-7.8-8-15-16.3-21.4-24.7l3.2-2.5c6.2,8.2,13.3,16.4,21,24.3L624.2,1538.9z M585.1,1486.8
					c-5.3-9.8-9.6-20-12.8-30.1l3.9-1.2c3.2,9.9,7.4,19.8,12.5,29.4L585.1,1486.8z M565.6,1424.7c-0.6-5.4-0.8-10.8-0.8-16.2
					c0-5.5,0.3-11,0.9-16.5l4.1,0.4c-0.6,5.4-0.8,10.8-0.8,16.1c0,5.2,0.3,10.6,0.8,15.8L565.6,1424.7z M576,1361l-3.9-1.2
					c3-10.1,7-20.3,11.9-30.5l3.7,1.8C582.9,1341.1,578.9,1351.1,576,1361z M602.7,1302.6l-3.5-2c5.5-9.7,11.2-19,17-27.7l3.4,2.3
					C613.8,1283.8,608.1,1293,602.7,1302.6z M638.5,1249.1l-3.2-2.5c6.9-8.7,14.1-16.9,21.5-24.5l2.9,2.8
					C652.4,1232.4,645.3,1240.5,638.5,1249.1z M683.2,1203l-2.6-3.1c8.4-7,17.2-13.5,26.2-19.4l2.2,3.4
					C700.2,1189.7,691.5,1196.1,683.2,1203z M737,1168l-1.8-3.7c9.6-4.7,19.7-9,30.1-12.6l1.4,3.8
					C756.4,1159.2,746.5,1163.4,737,1168z M1270.7,1167.5c-7.2,0-14.8-0.1-22.4-0.3l0.1-4.1c7.5,0.2,15.2,0.3,22.3,0.3
					c3.3,0,6.7,0,10-0.1l0.1,4.1C1277.5,1167.4,1274.1,1167.5,1270.7,1167.5z M1313.3,1166.3l-0.2-4.1c10.9-0.6,21.7-1.5,32.2-2.7
					l0.4,4.1C1335.2,1164.7,1324.3,1165.6,1313.3,1166.3z M1215.9,1165.8c-10.3-0.6-21.2-1.4-32.4-2.3l0.3-4.1
					c11.1,0.9,22,1.7,32.3,2.3L1215.9,1165.8z M1151.2,1160.3c-10.8-1.1-21.5-2.4-32.2-3.6l0.5-4c10.7,1.3,21.4,2.5,32.2,3.6
					L1151.2,1160.3z M1377.9,1159.1l-0.7-4c10.7-1.8,21.3-3.9,31.6-6.3l0.9,4C1399.4,1155.1,1388.7,1157.2,1377.9,1159.1z
					 M1086.7,1152.7l-32.2-4.1l0.5-4l32.2,4.1L1086.7,1152.7z M797.4,1146.4l-0.9-4c10.2-2.5,21-4.5,32-6.1l0.6,4
					C818.2,1142,807.6,1144,797.4,1146.4z M1022.4,1144.8c-10.8-1.3-21.5-2.5-32.2-3.5l0.4-4.1c10.7,1.1,21.4,2.3,32.2,3.5
					L1022.4,1144.8z M1441.2,1144.3l-1.2-3.9c10.3-3.1,20.6-6.6,30.5-10.4l1.4,3.8C1462,1137.6,1451.6,1141.1,1441.2,1144.3z
					 M958,1138.3c-11.4-0.9-22-1.5-32.3-1.9l0.2-4.1c10.4,0.4,21,1,32.4,1.9L958,1138.3z M861.2,1137l-0.3-4.1
					c10.3-0.7,21.3-1.1,32.5-1.2l0,4.1C882.3,1135.9,871.4,1136.3,861.2,1137z M1502,1121.2l-1.7-3.7c2.9-1.3,5.8-2.7,8.7-4.1
					c6.9-3.4,13.7-6.7,20.3-10.1l1.8,3.6c-6.7,3.4-13.4,6.8-20.4,10.1C1507.9,1118.4,1505,1119.8,1502,1121.2z M1559.9,1091.8
					l-1.9-3.6c9.5-5.2,19-10.5,28.2-15.9l2.1,3.5C1579,1081.2,1569.5,1086.6,1559.9,1091.8z M1616,1059.1l-2.2-3.5
					c9.2-5.8,18.3-11.8,27-17.7l2.3,3.4C1634.4,1047.2,1625.3,1053.2,1616,1059.1z M1669.6,1022.4l-2.4-3.3
					c8.8-6.5,17.3-13.2,25.4-19.9l2.6,3.2C1687,1009.1,1678.4,1015.9,1669.6,1022.4z M1719.8,981.2l-2.7-3
					c8.1-7.4,15.9-14.9,23.2-22.4l2.9,2.8C1735.8,966.2,1727.9,973.8,1719.8,981.2z M1765,934.5l-3.1-2.6c7.1-8.3,13.8-16.8,20-25.3
					l3.3,2.4C1778.9,917.5,1772.2,926.1,1765,934.5z M1803.2,881.9l-3.5-2.1c5.6-9.3,10.8-18.8,15.4-28.3l3.7,1.8
					C1814.1,862.9,1808.9,872.5,1803.2,881.9z M1831.4,823.3l-3.8-1.4c3.7-10.1,6.8-20.5,9.3-30.8l4,1
					C1838.4,802.5,1835.2,813,1831.4,823.3z M1846.8,760l-4-0.5c1.3-10.6,2.1-21.4,2.3-32.1l4.1,0.1
					C1849,738.3,1848.2,749.3,1846.8,760z M1843.7,695.3c-1-10.5-2.6-21.3-4.8-31.8l4-0.8c2.2,10.7,3.8,21.6,4.8,32.2L1843.7,695.3z
					 M1831,632.3c-3.1-10.1-6.7-20.3-10.8-30.3l3.8-1.5c4.2,10.2,7.8,20.5,11,30.7L1831,632.3z M1806.7,572.6
					c-4.9-9.5-10.2-19-15.9-28.1l3.5-2.2c5.7,9.2,11.1,18.7,16,28.4L1806.7,572.6z"/>
			</g>
			<g>
				<path class="st11" d="M887.7,1655.3v-4.1c5.7,0,11.1-0.3,16-0.9l0.5,4C899.1,1655,893.5,1655.3,887.7,1655.3z"/>
			</g>
		</g>
		<g>
			<g>
				<g>
					<polygon class="st12" points="1012.6,1668.4 920.6,1663.8 944.5,1649.9 					"/>
				</g>
			</g>
			<g>
				<g>
					<polygon class="st13" points="1012.6,1668.4 972.8,1643.7 953.9,1652.4 					"/>
				</g>
			</g>
			<g>
				<g>
					<polygon class="st11" points="941.7,1664.9 944.8,1674.7 1012.6,1668.4 					"/>
				</g>
			</g>
		</g>
		<g>
			<g>
				<g>
					<polygon class="st12" points="1108.4,243.5 1016.4,238.9 1040.4,225 					"/>
				</g>
			</g>
			<g>
				<g>
					<polygon class="st13" points="1108.4,243.5 1068.6,218.8 1049.7,227.5 					"/>
				</g>
			</g>
			<g>
				<g>
					<polygon class="st11" points="1037.6,239.9 1040.6,249.7 1108.4,243.5 					"/>
				</g>
			</g>
		</g>
		<g>
			<path class="st0" d="M1265.3,1229.4l-4-0.9c0-0.1,2.6-12.5,4-32.1l4.1,0.3C1268,1216.6,1265.4,1228.9,1265.3,1229.4z
				 M1265.9,1164c-0.3-10.9-1.2-21.8-2.5-32.3l4-0.5c1.4,10.7,2.2,21.7,2.5,32.7L1265.9,1164z M1257.5,1099.9
				c-2.6-10.6-5.8-21-9.5-30.9l3.8-1.4c3.8,10,7,20.6,9.7,31.4L1257.5,1099.9z M1234.7,1039.5c-5.1-9.5-11-18.7-17.3-27.2l3.3-2.4
				c6.5,8.7,12.4,18.1,17.6,27.7L1234.7,1039.5z M1196.3,987.9c-7.5-7.5-15.7-14.7-24.3-21.2l2.5-3.3c8.8,6.7,17.1,13.9,24.8,21.6
				L1196.3,987.9z M1145,948.9c-9.1-5.2-18.9-10-29-14.3l1.6-3.7c10.2,4.4,20.1,9.3,29.4,14.6L1145,948.9z M1085.7,923.4
				c-3.4-1.1-6.8-2.1-10.3-3.1c-6.9-2-13.9-4-20.9-6.1l1.2-3.9c7,2.1,14,4.1,20.9,6.1c3.6,1,7,2,10.5,3.1L1085.7,923.4z
				 M1023.2,904.5c-10.4-3.4-20.8-6.9-31-10.5l1.4-3.8c10.1,3.5,20.5,7.1,30.9,10.4L1023.2,904.5z M961.5,882.8
				c-10.2-3.9-20.4-7.9-30.4-12l1.6-3.8c9.9,4.1,20.1,8.1,30.3,12L961.5,882.8z M901.1,858c-10.1-4.5-20-9.1-29.6-13.8l1.8-3.7
				c9.6,4.6,19.5,9.3,29.5,13.7L901.1,858z M842.3,829.4c-9.7-5.1-19.4-10.5-28.6-15.8l2-3.5c9.2,5.3,18.8,10.6,28.5,15.7
				L842.3,829.4z M785.7,796.6c-9.3-5.9-18.5-12.1-27.2-18.2l2.3-3.3c8.7,6.1,17.8,12.2,27,18.1L785.7,796.6z M732.3,758.9
				c-8.7-6.9-17.2-13.9-25.1-21l2.7-3c7.9,7,16.3,14,24.9,20.8L732.3,758.9z M683.4,715.3c-7.8-7.9-15.2-16.1-22.1-24.2l3.1-2.6
				c6.8,8.1,14.1,16.1,21.8,24L683.4,715.3z M641.3,665.2c-6.4-9-12.3-18.3-17.6-27.6l3.5-2c5.2,9.2,11.1,18.4,17.4,27.3
				L641.3,665.2z M609,608.3c-4.4-10.1-8.3-20.4-11.5-30.7l3.9-1.2c3.2,10.1,7,20.3,11.3,30.2L609,608.3z M589.6,545.8
				c-2-10.6-3.5-21.6-4.3-32.5l4.1-0.3c0.8,10.8,2.2,21.5,4.2,32L589.6,545.8z M588.8,480.7l-4.1-0.1c0.4-10.7,1.3-21.7,2.8-32.7
				l4,0.6C590.1,459.2,589.2,470.1,588.8,480.7z M597.5,416.6l-4-0.9c2.6-10.8,5.7-21.4,9.3-31.4l3.8,1.4
				C603.1,395.5,600.1,405.9,597.5,416.6z M619.5,356l-3.6-1.9c5.1-9.8,10.8-19.3,17-28.1l3.3,2.4
				C630.1,337.1,624.5,346.3,619.5,356z M656.8,303.6l-2.9-2.8c7.5-7.8,15.7-15.2,24.4-22l2.5,3.2
				C672.3,288.6,664.2,295.9,656.8,303.6z M707.6,263.9l-2-3.5c9.2-5.4,19.1-10.3,29.4-14.7l1.6,3.7
				C726.5,253.8,716.7,258.7,707.6,263.9z M767,238.4l-1.2-3.9c10.2-3.1,20.8-5.9,31.8-8.2l0.8,4C787.6,232.5,777,235.3,767,238.4z
				 M992.2,229.5c-4.1-0.8-15.5-2.9-32.1-4.8l0.5-4c16.8,1.9,28.3,4,32.4,4.9L992.2,229.5z M830.4,224.8l-0.5-4
				c10.6-1.4,21.5-2.4,32.6-3.1l0.2,4.1C851.7,222.4,840.8,223.5,830.4,224.8z M927.7,221.8c-10.9-0.6-21.8-1-32.5-1l0-4.1
				c10.8,0,21.8,0.4,32.7,1L927.7,221.8z"/>
		</g>
		
			<ellipse transform="matrix(0.7071 -0.7071 0.7071 0.7071 -603.9458 1463.8243)" class="st1" cx="1465" cy="1460.9" rx="402.6" ry="402.6"/>
		<g>
			<g>
				<g>
					<path class="st14" d="M1255.1,1251.5c0,0,22.8,11.1,17.1,41.4c-5.6,30.3-8.1,34.4-1.8,46.2s13.7,62.3,8.1,71.9
						c-5.7,9.6-70.2-42.1-79.1-85.4c-8.9-43.3,5.7-62.6,10.8-69.8C1215.3,1248.7,1235,1241.3,1255.1,1251.5z"/>
				</g>
			</g>
		</g>
		<g>
			<path class="st15" d="M1261.4,1360.9c0,0,11.6,2.4,18.1,11.9c4.5,6.7,4.9,21.5,5.5,24.3c0.7,2.8,9.3,34.3,9.3,34.3l-24.1,16.2
				L1261.4,1360.9z"/>
		</g>
		<g>
			<g>
				<path class="st16" d="M1339.5,1864.2c-7.2-2.2-14.4-4.7-21.5-7.3c-3.9-7.9-8.5-17.8-13.1-28.4c-11-25.1-21.8-53.7-21.8-65.8
					c0-32.2-23.8-74.2-26.9-81.4c-28.5-66.9-22.9-87.4-26.6-91.7c-3.8-4.4-4.1,2.7-6.2,12.3c-2.2,9.6-6.8,92.8-9.6,103.4
					c-2.8,10.6-0.6,46.3-2.1,64.3c0,0.5-0.1,1.1-0.1,1.7c-0.5,5.5-1.2,14.8-2.1,25.6c-10.5-8.1-20.8-16.7-30.6-25.7
					c-0.1-0.1-0.3-0.3-0.5-0.4c-0.5-5.7-0.8-10.4-0.8-13.5c0-1.8-0.1-3.6-0.1-5.6c0-3.8-0.1-7.8-0.1-11.9c-0.3-17.7-0.5-35.9-1-42.8
					c-5.8-88.8-19.9-101.5,2.4-164.3c41.7-117.6,100.5-8.8,100.5-8.8s13.5,62.9,16.6,78.7c3.1,15.8,11.8,92.5,12.7,105.6
					c0.9,13,14.1,62.2,13.5,66.8c-0.4,2.8,6.7,37.6,12.5,65.1C1336.4,1849.5,1338.3,1858.1,1339.5,1864.2z"/>
			</g>
		</g>
		<g>
			<path class="st17" d="M1188.3,1506.2c0,0-38.5,53.9-21.9,168.6c0,0,91.4,12.4,140.3-14.4c0,0-20.2-118.2-27.6-136.6
				S1188.3,1506.2,1188.3,1506.2z"/>
		</g>
		<g>
			<path class="st18" d="M1240,1353c0,0,14.2,6.7,19.1,7.7c4.9,1,24,25.8,27.4,34.9c3.4,9.1,0,22.7-6.9,38.6
				c-6.9,16-0.4,21.3-3.5,37.2c-3.2,16-5.9,49.8-5.3,58.6c0.6,8.9-79.7,10.5-98-5.6c0,0,18.4-27.6,20.8-31.5
				c2.4-3.9,0.4-25.4-1.8-30.9c-2.2-5.5-16.6-52.4-16.6-52.4s-11.8-36-1.1-44.3c9.3-7.2,34.5-9.8,39-11.3S1230.7,1351.6,1240,1353z"
				/>
		</g>
		<g>
			<path class="st19" d="M1244.5,1384.7l8.6-10.1l-7.5-26.6C1245.6,1348,1243.1,1362.8,1244.5,1384.7z"/>
		</g>
		<g>
			<path class="st16" d="M1246.7,1336.6c0,0-0.4,3.6-0.8,8.5c-0.2,2.2-0.4,4.6-0.6,7.2c-0.6,7.2-1,14.9-0.8,18.9
				c0,0-14.7,14.8-31.5-17.2c0,0,7.1-13.2,1.7-31.2C1209.4,1304.7,1246.7,1336.6,1246.7,1336.6z"/>
		</g>
		<g>
			<polygon class="st16" points="1244.5,1371.1 1244.5,1384.7 1227.5,1372 			"/>
		</g>
		<g>
			<polygon class="st19" points="1244.5,1384.7 1237.5,1375.9 1213.7,1352.3 1206,1359.7 			"/>
		</g>
		<g>
			<path class="st15" d="M1210.4,1354.5c0,0,19.9,30.2,20.9,43.5c1,13.3-7.4,112.8-14.1,144.8c-6.7,32-55-3.6-55-3.6
				s32.5-52.6,20-94.7c-12.5-42.1-17-58.9-17-58.9s4.3-23.4,19.5-26.7C1198,1356,1210.4,1354.5,1210.4,1354.5z"/>
		</g>
		<g>
			<path class="st15" d="M1287.8,1399.6c0,0,3.6,12.7-10.4,40.8c0,0,0.2,36,0.6,47.2c0.4,11.2,8.3,51.6,8.3,51.6l-19.1,10.2
				c-2.8,1.6-6.2-0.6-5.9-3.8c3.9-32.3,16.7-155-10.9-187.9l11.1,3.3C1261.5,1360.9,1281.2,1377,1287.8,1399.6z"/>
		</g>
		<g>
			<polygon class="st20" points="1253.1,1374.6 1264,1377.6 1245.6,1348 			"/>
		</g>
		<g>
			<polygon class="st20" points="1237.5,1375.9 1227.5,1388.9 1207.1,1355 1213.7,1352.3 			"/>
		</g>
		
			<rect x="1264.6" y="1422.8" transform="matrix(0.7841 -0.6206 0.6206 0.7841 -622.8074 1097.652)" class="st21" width="3.6" height="42.5"/>
		<path class="st16" d="M1250.2,1458.1c0,0,2.5,0,4.2-1.2c2.9-2.2,3.9-7.5,8.9-7.1s7.4,16.2,6.1,19.2c-1.3,3-8.3,4.5-18.6,2.4
			C1240.4,1469.4,1250.2,1458.1,1250.2,1458.1z"/>
		<path class="st16" d="M1261.6,1449.9c0,0,7.3-2.5,15.6-4.3c7.3-1.6,16.1-2.1,17-0.8c1,1.4-7.2,2.6-14.4,4.7c-6.6,1.9-5,2.6-5,2.6
			s-0.4-0.2,7.1-0.9c8.1-0.8,16.5-0.7,17.3,0.9c0.4,0.8,0.1,1.3-2.8,2.1c1.8-0.1,2,0.4,2.1,1.1c0.3,3.7-11.5,6.6-16.2,7.7
			c3.6-0.9,6.4-1.1,5.1,1.3c-1.5,2.8-18.4,6.2-24.4,8C1256.4,1474.1,1261.6,1449.9,1261.6,1449.9z"/>
		<path class="st15" d="M1187.5,1359.5c-5-1.6-19.6,3.6-22.1,18.6c-2.5,15-3.5,31.7-5.8,39.8c-2.3,8.1-8.2,43.9-3.2,46.9
			c5,3,14.3,5.7,27.5,5.7c13.6,0,66.3,2.4,66.3,2.4l3.3-18.7c0,0-20-1-30.4-2.6c-9.2-1.4-22-5.3-37.1-7c0,0,3.2-22.2,5.5-28.5
			C1193.8,1409.8,1209.9,1366.7,1187.5,1359.5z"/>
		<polygon class="st16" points="1283.8,1455.5 1286.3,1461.5 1281,1457.8 		"/>
		<g>
			
				<linearGradient id="SVGID_7_" gradientUnits="userSpaceOnUse" x1="-10947.8408" y1="1461.615" x2="-11106.7852" y2="1431.5446" gradientTransform="matrix(-1 0 0 1 -9776.04 0)">
				<stop  offset="0" style="stop-color:#FF9F55"/>
				<stop  offset="1" style="stop-color:#FFD255"/>
			</linearGradient>
			<polygon class="st22" points="1254.8,1486.9 1307.9,1476.4 1347.2,1392.2 1290.6,1398.1 			"/>
		</g>
		<g>
			<g>
				<path class="st16" d="M1314.5,1462.1c0,0,2.9-2.7,5.5-6.5c2.6-3.8,11.1-18.2,10.3-19.1s-13.4-1.2-15.6,0.8
					c-2.3,2.1,2.2,2.9,2.2,2.9s-6.9,0.7-6.4,2.7c0.5,1.9,4.6,1.4,4.6,1.4s-5.5,1.1-4.7,2.8c0.8,1.7,3.5,1.7,3.5,1.7
					s-4.9,0.6-4.3,2.5c0.6,1.9,8.4,3.6,7.3,5.2C1315.9,1457.9,1314.5,1462.1,1314.5,1462.1z"/>
			</g>
		</g>
		<g>
			<g>
				<g>
					<path class="st23" d="M1251.8,1254.8c0,0,33.1,10.4,15.1,67.4c-17.9,57.1-63.1-6.6-58.4-41.4
						C1213.2,1246.2,1251.8,1254.8,1251.8,1254.8z"/>
				</g>
			</g>
		</g>
		<g>
			<g>
				<g>
					<path class="st14" d="M1270.3,1288.1c0,0-16.4,16.1-43.9,18.1c0,0-10.6,12.4-11.4,17.3c0,0-24.5-41.8,5.6-66.9
						C1250.7,1231.6,1281.3,1277.8,1270.3,1288.1z"/>
				</g>
			</g>
		</g>
		<g>
			<g>
				<g>
					<path class="st23" d="M1226.7,1307.4c-0.2-4.2-2.8-13.6-8.9-11c-6.2,2.6,0.4,21.9,4.5,20.7
						C1222.2,1317.2,1227.2,1317.2,1226.7,1307.4z"/>
				</g>
			</g>
		</g>
		<path class="st24" d="M1245.9,1345.1c-0.2,2.2-0.4,4.6-0.6,7.2h0c-19.1-9.4-22-23-22.1-23.5
			C1236.8,1346.4,1245.9,1345.1,1245.9,1345.1z"/>
		<g>
			
				<rect x="1552.9" y="1586.7" transform="matrix(-1 -1.224647e-16 1.224647e-16 -1 3213.1338 3179.7686)" class="st25" width="107.3" height="6.4"/>
		</g>
		<g>
			<path class="st26" d="M1645.9,1609.6v232.9c-3.1,1.5-6.3,2.9-9.4,4.3v-237.3H1645.9z"/>
		</g>
		<g>
			
				<rect x="1495.1" y="1584.9" transform="matrix(-1 -1.224647e-16 1.224647e-16 -1 3064.7803 3178.8848)" class="st27" width="74.6" height="9.1"/>
		</g>
		<g>
			
				<rect x="1518.3" y="1507.3" transform="matrix(-1 -1.224647e-16 1.224647e-16 -1 3064.7793 3100.3242)" class="st27" width="28.3" height="85.8"/>
		</g>
		<g>
			
				<rect x="1285.3" y="1593.2" transform="matrix(-1 -1.224647e-16 1.224647e-16 -1 2984.0889 3202.8291)" class="st28" width="413.4" height="16.5"/>
		</g>
		<g>
			<path class="st29" d="M1778.1,1493.5c0,0,4.5,63.4-7.9,71c-7.8,4.8-38.7,20.8-37.8,23.8c0.9,3,17.5,26.8,17.5,26.8
				s59.4-39.1,61.4-51.5c1.9-12.1-2.9-92.8-11.1-96.6c-6.1-2.8-9.4-0.5-17.1,5.2C1772.3,1480.2,1778.1,1493.5,1778.1,1493.5z"/>
		</g>
		<g>
			<g>
				<g>
					<path class="st30" d="M1669.8,1511.6l-5.2-1.9c0,0,6.5-15.3,9.4-15c3.3,0.4,7.4,1.5,7.4,1.5L1669.8,1511.6z"/>
				</g>
			</g>
		</g>
		<g>
			<g>
				<g>
					<path class="st31" d="M1668.6,1514.2c0.7-0.5,11.1-20.6,11.1-20.6l22.4,3l-12.1,23.8L1668.6,1514.2z"/>
				</g>
			</g>
		</g>
		<g>
			<g>
				<g>
					<path class="st32" d="M1788.9,1701.6c-4.2,5.6-8.7,9.8-13.4,12.7c-17.6,11.1-39,6.1-63.5,2.4c-31.1-4.7-61.7,6.3-104.5,5.3
						l-2,114.5l-0.4,22.9c-11.8,4.2-23.8,7.8-36,10.9c-0.4-6.2-0.9-13.5-1.6-21.6c-4.7-58.9-14-158.5-6.2-163.2
						c11.3-6.8,101.8-29.4,118.5-32c16.7-2.6,90.6-15.1,90.6-15.1c15.9,4.8,18.1,45,18.3,58.7
						C1789,1699.9,1788.9,1701.6,1788.9,1701.6z"/>
				</g>
			</g>
		</g>
		<g>
			<g>
				<g>
					<path class="st32" d="M1803.5,1654.2l-23.4,54.3l-4.7,10.9c-1.7,0.2-3.2,0.4-4.7,0.6c-11.8,1.5-18.6,2.3-35,1.9l-0.8,35.1
						l-0.7,28.9c-3.9,3.3-7.9,6.5-12,9.6c-0.8,0.6-1.6,1.2-2.4,1.8c-3.9,3-7.8,5.9-11.8,8.7c-4.9,3.5-9.9,6.8-14.9,10
						c-0.7-7.9-1.3-16.2-2-24.4c-4-50.9-7.2-103-1.6-106.4C1700.1,1679,1778.9,1659.2,1803.5,1654.2z"/>
				</g>
			</g>
		</g>
		<g>
			<g>
				<g>
					<path class="st16" d="M1736.5,1361.2c0,0-27.1-7.5-37.4,13.5c-10.3,21-5.7,60.9,8,64.7c13.7,3.8,33.3-0.6,39-13.7
						c5.7-13.1,10.2-31.7,8.8-43.7C1753.5,1370,1743.7,1364.1,1736.5,1361.2z"/>
				</g>
			</g>
		</g>
		<g>
			<g>
				<g>
					<path class="st16" d="M1714.2,1435.2c0,0,0.3,16-1.5,19.4c-1.8,3.4,37.7,2.6,37.7,2.6s-6.2-19.2-2.7-35.6
						C1751.2,1405.4,1714.2,1435.2,1714.2,1435.2z"/>
				</g>
			</g>
		</g>
		<g>
			<g>
				<g>
					<path class="st33" d="M1749.9,1415.5c0,0-2.1,4.3-12.3,3.6c-10.2-0.7-23.7-13-28-14.1c-4.3-1.1-4.6-3.6-4.6-3.6l-2.3,4.1
						l-4.4,0.7c0,0,3-12.4-3.6-16.7c-6.6-4.4,3-39.4,36.3-31c0,0,25.4,4.7,25.8,18.9C1757,1391.6,1754.8,1408,1749.9,1415.5z"/>
				</g>
			</g>
		</g>
		<g>
			<g>
				<g>
					<path class="st29" d="M1710.6,1454.2c0,0,0.1-6.5,3.1-7.1c3-0.6,31-4.5,34.7-3.1l1.6,8.6
						C1749.9,1452.6,1742.9,1456.9,1710.6,1454.2z"/>
				</g>
			</g>
		</g>
		<g>
			<g>
				<g>
					<path class="st16" d="M1702.5,1398.5c0.8-5.3,6.8-11.5,10.3-3.2c3.5,8.3-2.3,20.4-6.2,19.8
						C1702.6,1414.5,1701.5,1405.8,1702.5,1398.5z"/>
				</g>
			</g>
		</g>
		<g>
			<g>
				<g>
					<path class="st34" d="M1593,1531.2C1593,1531.2,1593,1531.2,1593,1531.2C1592.8,1531.3,1592.8,1531.3,1593,1531.2z"/>
				</g>
			</g>
		</g>
		<g>
			<g>
				<g>
					<path class="st33" d="M1744.4,1365c0,0,33-1.6,5.8,50L1744.4,1365z"/>
				</g>
			</g>
		</g>
		<g>
			<g>
				<path class="st35" d="M1720,1746.7v50.7c-3.9,3-7.8,5.9-11.8,8.7v-59.4H1720z"/>
			</g>
		</g>
		<g>
			<g>
				
					<rect x="1679.3" y="1740.7" transform="matrix(-1 -1.224647e-16 1.224647e-16 -1 3428.1106 3488.1309)" class="st36" width="69.6" height="6.7"/>
			</g>
		</g>
		<g>
			<path class="st25" d="M1795.3,1723.8c-4.6,5.8-9.3,11.4-14.2,16.9h-137.5c-6.8,0-12.4-5.6-12.4-12.5v-0.3
				c0-6.8,5.6-12.4,12.4-12.4h140.1C1789,1715.6,1793.6,1719,1795.3,1723.8z"/>
		</g>
		<g>
			<path class="st26" d="M1347.6,1609.6v257c-2.7-0.8-5.4-1.6-8.1-2.4c-0.4-0.1-0.8-0.3-1.3-0.4v-254.1H1347.6z"/>
		</g>
		<g>
			<path class="st26" d="M1422.8,1548.6H1642c6.9,0,12.4-5.6,12.4-12.4v-147.3c0-6.9-5.6-12.4-12.4-12.4h-219.2
				c-6.9,0-12.4,5.6-12.4,12.4v147.3C1410.4,1543,1416,1548.6,1422.8,1548.6z"/>
		</g>
		<g>
			
				<rect x="1420" y="1385.8" transform="matrix(-1 -1.224647e-16 1.224647e-16 -1 3064.7803 2907.4062)" class="st37" width="224.9" height="135.8"/>
		</g>
		<g>
			<path class="st17" d="M1481.9,1593.4v-3.1c0,0,4.3-19.1,34.8-19.1c30.5,0,29.8,22.1,29.8,22.1H1481.9z"/>
		</g>
		<g>
			<g>
				<path class="st16" d="M1546.9,1574.1c0,0-6.6-0.5-9-2c-2.4-1.5-16.9-11.2-20.3-9.7c-3.4,1.6-26.1,8.5-25.3,11.8
					c0.8,3.3,2.9,3,4.5,2.4s18.1-4,19.5-3.5c0,0-16.2,5.9-16.2,10.2s3.4,5.4,4.9,7c1.5,1.6,3.4,5.7,7.5,6s24.5-6.8,28.7-7.1
					c4.2-0.3,11.9,0.3,12.5-0.4C1554.1,1588.2,1546.9,1574.1,1546.9,1574.1z"/>
			</g>
		</g>
		<g>
			<g>
				<g>
					<path class="st29" d="M1667.3,1463.2c21.1-3.7,43.3-9,43.3-9l39.3-1.6c0,0,36.1,7.9,50.3,14.4c1.3,0.6,1.4,32.2,5,40.4
						l-11.8,24.8c0,0-6.8,49.2-8.2,71.1c-0.6,10,1.8,97.1,1.8,97.1s-3.5,1.7-30.3,4.7c-26.8,3-93.8-1.1-94.2-4.2
						c-0.4-3.2,13-117.9,13.6-123.9c0.9-9.1-2.6-51.3-2.6-51.3c-5.1,6.8-17.9,37.4-31.4,52c-7.9,8.6-47,13.8-54.4,14.1
						c-16,0.5-45.3,3.7-46.2,2.2c-0.7-0.9-2.5-26-0.7-26.6c1.6-0.5,56-3.7,69.9-11.1c5.1-2.7,20.3-35.9,20.3-35.9
						S1655.7,1468.5,1667.3,1463.2z"/>
				</g>
			</g>
		</g>
		<g>
			<path class="st25" d="M1834.6,1564.3v101c-6.1,11-12.7,21.8-19.8,32.2c-1.3,0.3-2.7,0.4-4,0.4h-65.9c-13.2,0-23.9-10.7-23.9-23.9
				v-109.7c0-13.2,10.7-23.9,23.9-23.9h65.9C1823.9,1540.4,1834.6,1551.1,1834.6,1564.3z"/>
		</g>
		<g>
			<path class="st25" d="M1741,1734.5c16.8,0,30.4-5.6,40.4-16.7c22.7-25.1,18.6-69.2,18.5-71.1c-0.3-3.5-3.4-6-6.9-5.7
				c-3.5,0.3-6,3.4-5.7,6.9c0,0.5,3.7,40.5-15.3,61.4c-7.7,8.4-17.8,12.6-31,12.6c-3.5,0-6.3,2.8-6.3,6.3S1737.5,1734.5,1741,1734.5
				z"/>
		</g>
		<g>
			<g>
				<g>
					<path class="st38" d="M1564.8,1403.8h62.3c1,0,1.8-0.8,1.8-1.8v-3.6c0-1-0.8-1.8-1.8-1.8h-62.3c-1,0-1.8,0.8-1.8,1.8v3.6
						C1563,1403,1563.8,1403.8,1564.8,1403.8z"/>
				</g>
			</g>
		</g>
		<g>
			<g>
				<g>
					<path class="st38" d="M1564.8,1419.2h62.3c1,0,1.8-0.8,1.8-1.8v-3.6c0-1-0.8-1.8-1.8-1.8h-62.3c-1,0-1.8,0.8-1.8,1.8v3.6
						C1563,1418.4,1563.8,1419.2,1564.8,1419.2z"/>
				</g>
			</g>
		</g>
		<g>
			<g>
				<g>
					<path class="st38" d="M1569,1510.8h53.9c3.3,0,6-2.7,6-6v-69.2c0-3.3-2.7-6-6-6H1569c-3.3,0-6,2.7-6,6v69.2
						C1563,1508.1,1565.7,1510.8,1569,1510.8z"/>
				</g>
			</g>
		</g>
		<g>
			<g>
				<g>
					<path class="st38" d="M1441.9,1510.8h98.4c5.2,0,9.5-4.2,9.5-9.5v-95.3c0-5.2-4.2-9.5-9.5-9.5h-98.4c-5.2,0-9.5,4.2-9.5,9.5
						v95.3C1432.4,1506.6,1436.7,1510.8,1441.9,1510.8z"/>
				</g>
			</g>
		</g>
		<defs>
			<filter id="Adobe_OpacityMaskFilter_4_" filterUnits="userSpaceOnUse" x="1042.9" y="1038.8" width="844.2" height="844.3">
				<feFlood  style="flood-color:white;flood-opacity:1" result="back"/>
				<feBlend  in="SourceGraphic" in2="back" mode="normal"/>
			</filter>
		</defs>
		<mask maskUnits="userSpaceOnUse" x="1042.9" y="1038.8" width="844.2" height="844.3" id="SVGID_8_">
			<g class="st39">
				<defs>
					<filter id="Adobe_OpacityMaskFilter_5_" filterUnits="userSpaceOnUse" x="1042.9" y="1038.8" width="844.2" height="844.3">
						<feFlood  style="flood-color:white;flood-opacity:1" result="back"/>
						<feBlend  in="SourceGraphic" in2="back" mode="normal"/>
					</filter>
				</defs>
				<mask maskUnits="userSpaceOnUse" x="1042.9" y="1038.8" width="844.2" height="844.3" id="SVGID_8_">
					<g class="st40">
					</g>
				</mask>
				<linearGradient id="SVGID_9_" gradientUnits="userSpaceOnUse" x1="1291.1516" y1="2061.6697" x2="1807.1798" y2="278.7774">
					<stop  offset="0" style="stop-color:#000000"/>
					<stop  offset="0.9896" style="stop-color:#FFFFFF"/>
				</linearGradient>
				<path class="st41" d="M1465,1038.8c-233.2,0-422.1,188.8-422.1,422.2c0,232.5,188.3,422.1,422.1,422.1
					c233.4,0,422.1-189,422.1-422.1C1887.1,1227.7,1698.4,1038.8,1465,1038.8z M1465,1861.9c-220.5,0-401-179.3-401-400.9
					c0-221.1,179.9-401,401-401c221.1,0,401,179.9,401,401C1866,1683.4,1684.8,1861.9,1465,1861.9z"/>
			</g>
		</mask>
		<path class="st0" d="M1465,1038.8c-233.2,0-422.1,188.8-422.1,422.2c0,232.5,188.3,422.1,422.1,422.1
			c233.4,0,422.1-189,422.1-422.1C1887.1,1227.7,1698.4,1038.8,1465,1038.8z M1465,1861.9c-220.5,0-401-179.3-401-400.9
			c0-221.1,179.9-401,401-401c221.1,0,401,179.9,401,401C1866,1683.4,1684.8,1861.9,1465,1861.9z"/>
		<g>
			<g>
				<path class="st0" d="M1436.5,1317.2c-3.2,0-5.8-2.6-5.8-5.8l0-0.9c-3.4-1.1-5.8-4.3-5.8-8l-0.1-17.5l3.5,0
					c-1.3-21.8-17.7-52.3-17.9-52.6c-5-7.6-7.7-16.4-7.7-25.6c0-25.7,20.9-46.5,46.5-46.5c25.7,0,46.5,20.9,46.5,46.5
					c0,9.1-2.7,18-7.7,25.6c-0.6,1.2-16.4,30.8-17.8,52.3l3.4,0l0.1,17.5c0,3.7-2.3,6.9-5.8,8l0,0.9c0,3.2-2.6,5.9-5.8,5.9
					L1436.5,1317.2C1436.5,1317.2,1436.5,1317.2,1436.5,1317.2z M1426.1,1286.4l0.1,16.1c0,3.2,2.2,6,5.3,6.8l0.5,0.1l0,1.9
					c0,2.5,2,4.4,4.5,4.5l25.7-0.1c2.5,0,4.5-2,4.5-4.5l0-1.9l0.5-0.1c3.1-0.8,5.3-3.6,5.2-6.9l-0.1-16.1l-3.5,0l0-0.7
					c1.1-21.9,17.4-52.4,18-53.7c4.9-7.4,7.5-16,7.5-24.9c0-24.9-20.3-45.2-45.2-45.2c-24.9,0-45.2,20.3-45.2,45.2
					c0,8.9,2.6,17.5,7.5,24.9c0.2,0.2,17.1,31.8,18.1,53.9l0,0.7L1426.1,1286.4z M1449.7,1253.5c-0.3,0-0.5,0-0.5,0c0,0,0,0,0,0
					c-0.1,0-1.6,0.1-4-0.2l0.1-1.4c2.8,0.2,5,0.2,7.8,0l0.1,1.4C1451.6,1253.4,1450.4,1253.5,1449.7,1253.5z"/>
			</g>
			<g>
				<rect x="1436.2" y="1285" class="st0" width="25.8" height="1.4"/>
			</g>
			<g>
				<rect x="1447.7" y="1122.4" class="st0" width="2.7" height="23.4"/>
			</g>
			<g>
				
					<rect x="1475" y="1141" transform="matrix(0.7071 -0.7071 0.7071 0.7071 -372.3338 1385.8242)" class="st0" width="23.4" height="2.7"/>
			</g>
			<g>
				
					<rect x="1410.1" y="1130.7" transform="matrix(0.7071 -0.7071 0.7071 0.7071 -394.3596 1332.6493)" class="st0" width="2.7" height="23.4"/>
			</g>
			<g>
				
					<rect x="1432.4" y="1234.6" transform="matrix(0.9736 -0.2284 0.2284 0.9736 -247.2684 360.3475)" class="st0" width="1.4" height="27.6"/>
			</g>
			<g>
				
					<rect x="1451.3" y="1247.7" transform="matrix(0.2286 -0.9735 0.9735 0.2286 -85.0768 2389.3367)" class="st0" width="27.6" height="1.4"/>
			</g>
			<g>
				<path class="st0" d="M1501.3,1207.2h-1.4c0-28.1-22.8-50.9-50.9-50.9v-1.4C1477.9,1155,1501.3,1178.4,1501.3,1207.2z"/>
			</g>
			<g>
				<path class="st0" d="M1489.6,1207.2h-1.4c0-21.6-17.6-39.2-39.2-39.2c-21.6,0-39.2,17.6-39.2,39.2h-1.4
					c0-22.4,18.2-40.6,40.6-40.6C1471.4,1166.7,1489.6,1184.8,1489.6,1207.2z"/>
			</g>
		</g>
		<g>
			<g>
				<path class="st16" d="M872,1366.4c-0.9,9.4-1.7,19.8-2.5,31.2c-9.4,8.2-19.1,15.9-29.1,23.2c-3.8,2.7-7.6,5.4-11.4,8
					c-0.2-8.2-0.6-14.9-1.6-18.8c-0.3-1.2-0.6-3.1-0.9-5.6c-3.1-24.2-7.6-104.7-9.8-114.8c-2.4-11.2-2.8-19.4-7-14.3
					c-4.2,5.1,2.1,28.9-29.7,106.7c-2.5,6.2-17.5,34.2-25.3,63.5c-2.3,8.4-3.9,16.9-4.5,25.1c-7,2.8-14,5.4-21.1,7.8
					c-7.2,2.4-14.5,4.7-21.8,6.7c0.9-5.5,2.8-14.2,5-23.7c4-18.3,8.9-39.9,9.5-48.3c1-15.2,10.7-104.5,14.2-122.9
					c3.5-18.4,18.5-91.6,18.5-91.6s65.7-126.7,112.2,10.3C888.6,1273.2,879,1292.4,872,1366.4z"/>
			</g>
		</g>
		<g>
			<path class="st42" d="M855.9,1178.2c0,0,43,62.8,24.5,196.3c0,0-101.9,14.5-156.5-16.7c0,0,22.6-137.6,30.8-159.1
				C762.7,1177.2,855.9,1178.2,855.9,1178.2z"/>
		</g>
		<path class="st16" d="M804.9,899.9c0,0-28.8,29-19,66.3c9.8,37.3,25.6,37.5,42.9,21.5c17.4-16.1,27.6-33,29.9-51.7
			C861,917.2,831.2,874,804.9,899.9z"/>
		<path class="st16" d="M799.3,1024.4c0,0,4.3-9.8,7.3-20.8c0.5-1.9,1-3.9,1.4-5.9c1.5-6.9,2.1-13.7,0.5-18.4
			c-4.6-13.6,28.8-4.2,28.8-4.2s-6.5,35.9,0,48C843.7,1035.2,799.3,1024.4,799.3,1024.4z"/>
		<path class="st18" d="M883.9,1041.5c-5.3-10.5-9.2-13.9-19.3-17.1c-5.7-1.8-31.1-8.4-31.1-8.4l-30.5-1.1c0,0-21,3.5-37.2,9.1
			c-16.3,5.6-37.6,36.5-37.6,36.5s29.4,69,35,88.8c5.6,19.8,1.9,50.5,1.9,50.5c35.2,19.2,91.8-1.9,91.8-1.9
			c-4.3-15.5-4.5-33.6-2.2-46.4c0.3-1.5,0.6-3,0.9-4.3c0.3-1.2,0.7-3,1.2-5c0-0.1,0-0.2,0.1-0.3c22.4,2.3,43.4,3.2,44-1.3
			C903.3,1120.4,891.1,1055.9,883.9,1041.5z M868.3,1120.2c-0.9-0.1-2.8-0.1-4.9-0.3c2.5-6.9,5.3-13.1,5.3-13.1
			C870.3,1111.2,876.4,1121.4,868.3,1120.2z"/>
		<path class="st43" d="M814.3,920.7c0,0,13.8,25,22.3,34c8.6,9,7.5,16.1,7.5,16.1s33.3-41.1,9.6-65.9
			c-23.8-24.8-54.4-14.8-63.4,6.9c-9,21.7-5.7,48.2-5.7,48.2S784.9,934.5,814.3,920.7z"/>
		<path class="st43" d="M823.4,894.5c0,0-3.3-18.3,25.4-25.6c28.7-7.3,41.6,25.8,38.1,46c-3.5,20.2-28.1,71.4-14.8,78.1
			c13.3,6.7,18.5-7.7,18.5-7.7s-4.2,25.2-22.7,19.4c-18.5-5.8-16-46.8-13.2-63.1C857.5,925.3,823.4,894.5,823.4,894.5z"/>
		<path class="st24" d="M832.6,984c-0.1,0.3-7.4,17-26.1,19.6c0.5-1.9,1-3.9,1.4-5.9C808,997.7,818.2,999.8,832.6,984z"/>
		<path class="st44" d="M868.3,1107c0,0-1.4,2.9-5.1,14.3c-3.8-32-1.8-48.7-1.8-48.7C861.8,1089.7,868.3,1107,868.3,1107z"/>
		<path class="st18" d="M827.9,890.7c0,0,20.4,3.9,30.6,20.5c0,0-2.1-15-12.2-19.4C836.1,887.5,827.9,890.7,827.9,890.7z"/>
		<path class="st44" d="M856.7,1142.2c-0.5,2-0.9,3.7-1.2,5c-0.3,1.4-0.6,2.8-0.9,4.3c-12.6-6.9-21.7-12.2-21.7-12.2
			C836.3,1140,856.7,1142.2,856.7,1142.2z"/>
		<path class="st16" d="M835.2,1016.4l-35.9,29.3l3.7-30.8C803,1014.9,823.9,1010.4,835.2,1016.4z"/>
		<polygon class="st19" points="809.7,1040.7 799.3,1045.7 834.5,1010.8 		"/>
		<path class="st45" d="M858.8,1139.7c-4.9,20.5,13.3,66.5,13.3,66.5l-36.2,11.3c-5.2,1.6-10.7-1.6-11.8-6.9
			c-4.9-22.5-16.2-78-17.6-108.9c-1.7-39.4,26.9-85.8,26.9-85.8c50.9,8.7,37,85.8,37,85.8s-1.8,4.9-4.3,12.4c0,0,0,0,0,0
			c-0.6,1.9-1.3,4-2,6.2C862.4,1126.1,860.5,1132.7,858.8,1139.7z"/>
		<path class="st45" d="M799.4,1016.6l0.6-1.7c0,0-26.1,4-39.3,10.6c-13.3,6.6-38.6,40.8-38.6,40.8l33.2,43.8
			c0,33.7-5.4,93.5-5.4,93.5l15.2,8.7c4.1,2.4,9.2-0.5,9.3-5.2c0.4-22.8,1.4-76.8,2-103c0.7-33.7,24.7-88.1,24.7-88.1
			C800.4,1016.2,799.9,1016.4,799.4,1016.6z"/>
		<path class="st16" d="M752.1,1174.5c0,0,25,1,28.9,0c3.9-1,29.9-12.2,31.4-23.4c1.6-11.1-60.3,10-60.3,10V1174.5z"/>
		<polygon class="st46" points="829.7,1139.7 728.2,1127.8 774.1,1165.1 		"/>
		<polygon class="st34" points="774.1,1165.1 829.7,1146.2 829.7,1139.7 772.2,1158.2 		"/>
		<g>
			<path class="st16" d="M800.2,1121.1c0,0-8.4,0-13.1-1c-3.6-0.7-12.7,0.3-15,2.3c-2.3,2-9.6,16.3-11,17.1
				c-1.4,0.9,0.7,2.9,3.1,1.9c0,0,2.2,6.2,7.8,3.9c5.5-2.3,9.3-7.4,12.2-8.3c2.9-0.9,19.7-5.4,19.7-5.4S804.6,1119.5,800.2,1121.1z"
				/>
		</g>
		<polygon class="st20" points="804.9,1009.2 785.6,1039.8 776.2,1045.7 798,1015.2 		"/>
		<polygon class="st19" points="785.6,1039.8 799.3,1045.7 803,1014.9 804.9,1009.2 		"/>
		<path class="st45" d="M755.1,1160.1c0,0-1,12.9,0,15.6c0,0-62.6-6.3-68.5-15c-5.8-8.8-5.6-19.4-5.6-19.4L755.1,1160.1z"/>
		<polygon class="st47" points="774.1,1165.1 744.4,1055 631.8,1043.1 662.7,1144.5 		"/>
		<polygon class="st20" points="834.5,1010.8 809.7,1040.7 823.3,1052.9 838,1017 		"/>
		<path class="st48" d="M866.9,1111.7c0,0-0.8,2.5-0.8,2.5c-0.6,1.9-1.3,4-2,6.2c-4.8,1.5-46.4-1.5-46.4-1.5
			S852.6,1110.7,866.9,1111.7z"/>
		<path class="st45" d="M864.5,1119.6c-6.7-0.5-17.7-1.2-26.7-1.3c-14-0.1-37.9,1.5-37.9,1.5l2.9,14.9c0,0,42.3,6.9,65.5,8.5l0,0
			c0,0,30.5,3.5,32.8-1c2.3-4.6-0.8-33.8-5.7-60.1c-5-26.3-10.1-41.5-16.1-49.7c-6.1-8.1-38.1-14.5-38.1-14.5l27.2,89
			c0,0,3.9,7.9,3.7,11.4c-0.1,1-0.8,1.5-1.8,1.7c-0.7-0.1-2.2-0.2-4.3-0.4L864.5,1119.6z"/>
		<g>
			<g>
				<g>
					<g>
						<path class="st16" d="M617.7,970.9c0,0,16.6-4.1,18-3.4c1.3,0.7,1.5,1.6,0,2c-1.5,0.4-16,4.4-16,4.4s20.5-1.5,21.7-1.2
							c0.7,0.2,1.1,1.9,0.3,2.2c-0.8,0.3-21,3-21,3s19.2-1.4,20.1-0.8c0.8,0.5,0.8,2.2-0.6,2.4c-1.4,0.2-19.1,2.5-19.1,2.5
							s14-0.1,14.5,0.8c0.3,0.6,0.8,2.1-2.9,2c-3.6-0.1-12.2,0.6-12.2,0.6L617.7,970.9z"/>
					</g>
				</g>
			</g>
			<path class="st49" d="M683,826.9c-0.2-39.2-37.8-70.8-84.1-70.6c-46.2,0.2-83.5,32.2-83.4,71.4c0.1,10.3,2.7,20.1,7.4,28.9
				c0,0.1,25.8,49.8,29.7,97.2c0.1,22.1,21.4,40,47.5,39.9c26.1-0.1,47.2-18.2,47.1-40.3c3.4-47.4,28.7-97.5,28.7-97.5l0,0
				C680.5,847,683,837.2,683,826.9z"/>
			
				<rect x="569.9" y="848.3" transform="matrix(0.9921 -0.1257 0.1257 0.9921 -108.8649 78.9717)" class="st50" width="3.1" height="107.9"/>
			
				<rect x="626.3" y="848" transform="matrix(-0.9933 -0.1155 0.1155 -0.9933 1147.4159 1870.4204)" class="st50" width="3.1" height="107.9"/>
			<g>
				<polygon class="st50" points="622.3,865.1 610.6,853.5 599.2,865 587.9,853.8 576.9,864.9 564.6,852.8 566.1,851.3 576.9,861.9 
					587.9,850.8 599.2,862 610.6,850.5 622.3,862.1 633,851.2 634.5,852.7 				"/>
			</g>
			
				<rect x="562.5" y="987.1" transform="matrix(1 -4.927039e-03 4.927039e-03 1 -4.9349 2.9688)" class="st51" width="75.1" height="31.9"/>
			
				<rect x="550.3" y="954.6" transform="matrix(1 -4.947936e-03 4.947936e-03 1 -4.8428 2.9806)" class="st52" width="99.3" height="51.3"/>
		</g>
		<path class="st32" d="M364.5,1277.9c-2.4,8-8.6,25.1-15.2,43c-1.5,4-2.9,8-4.4,12c-8.3,22.4-16.2,43.1-17.3,45.9
			c-0.1,0.3-0.1,0.4-0.1,0.4c-2.5,5.6-5.6,12.5-9.1,20c-0.2-0.1-0.4-0.3-0.5-0.4c-7.9-6.8-15.7-14-23.2-21.5
			c-15.7-15.7-30-32.4-42.9-50c0.4-1.8,0.5-2.8,0.5-2.8s2.1-9.9,6.3-24.8c7.1-24.8,20.3-63.2,40.2-92
			C306.7,1196.1,364.5,1277.9,364.5,1277.9z"/>
		<g>
			<path class="st32" d="M532.3,1422.1c-0.7,3.1-6.2,24.6-12.7,50.8c-1.6,6.7-3.4,13.6-5.1,20.6c-16.8-3.1-33.3-7.3-49.5-12.4
				c-0.9-0.3-1.9-0.6-2.8-0.9c0.9-7.5,1.9-14.8,2.8-21.6c2.3-16.2,4.5-29.7,6.5-36.4c7.8-26.7-29.6-44.1-51.2-53.8
				c-21.6-9.6-130.9-62.1-128.9-83.4c1.3-14.7,3.3-28.5,3.3-28.5s13.1-27.9,103.7,3.8c0,0,118.7,92.8,131,109.8
				C541.6,1387,534.1,1413.9,532.3,1422.1z"/>
		</g>
		<g>
			<path class="st53" d="M358.8,1043.9c0,0,18.3,33.6,21.8,53.9c3.6,20.3-4.9,84.7-4.3,96.2c1.6,31.1,22,66.2,22,66.2L289.9,1301
				c0,0-8.7-31.7-14.8-70.5c-6.1-38.8-2.4-72.5,0.8-94.9c9.9-70.3,53.3-104.8,53.3-104.8L358.8,1043.9z"/>
		</g>
		<g>
			<path class="st16" d="M395.2,946.9c0,0,13.3,17,8.8,20.8c-3.7,3.1,8.4,20,10.1,22.8c1.7,2.8-6.6,6.5-8.1,8.7
				c-1.5,2.3-2.9,27-9.9,29c-7,1.9-41.2-3.7-51.5-11.4c-10.3-7.6-24.6-47.6-21.7-66C325.7,932.5,371.7,917.2,395.2,946.9z"/>
		</g>
		<g>
			<path class="st16" d="M373.7,1026.8c0,0-0.5,2.1-1.3,5.2c-0.3,1.3-0.7,2.9-1.1,4.5c-0.3,1.3-0.6,2.6-0.9,4
				c-1.9,8.7-3.9,19.2-3.6,24.2c0.6,9.3-33.4-34.4-33.4-34.4s7.4-29.3,10.3-63C346.8,933.7,373.7,1026.8,373.7,1026.8z"/>
		</g>
		<g>
			<path class="st34" d="M397.9,950.7c0,0,6.9-22-14.5-33.9C362.1,905,332,937.3,328.3,939c-3.7,1.7-25.2,6.8-7.8,43.9
				c15.5,33,16.6,30.9,16.6,30.9s4.2-18.5,7.7-22.2c5.5-5.7,19.6-7,19.6-7s-9.6-16.4,0.3-20.7C374.7,959.7,386.8,948.6,397.9,950.7z
				"/>
		</g>
		<g>
			<path class="st16" d="M351.7,976.5c-1.3-2.3-6.1-12.1-13.9-4.5c-7.8,7.6,9.9,24.7,11.5,24.7C350.9,996.6,362.9,995.4,351.7,976.5
				z"/>
		</g>
		<path class="st24" d="M374,1026.6c0,0-0.8,2.2-1.6,5.4c-0.3,1.3-0.7,2.9-1.1,4.5c-19.4-9.8-25.1-18.4-25.2-18.7
			C355.2,1022.4,374,1026.6,374,1026.6z"/>
		<path class="st54" d="M398.4,1260.2c0,0-4.9-9.2-6-11.6l-105.8,39.1l3.4,13.2C289.9,1301,367.4,1272.9,398.4,1260.2z"/>
		<path class="st34" d="M270.6,1174.7c0,0,5.9,64.4-26.7,134.2c-4,8.5,62.9,7.2,62.9,7.2L270.6,1174.7z"/>
		<path class="st16" d="M547.4,1000.2c0,0,3.5-0.8,5.3-3.2c3-4.1,2-12.1,9.3-13.4c7.2-1.3,17.8,20.5,17.4,25.3
			c-0.4,4.8-9.5,9.5-25,10.3C538.9,1020,547.4,1000.2,547.4,1000.2z"/>
		<path class="st16" d="M559.6,984.4c0,0,9-6.2,19.9-11.8c9.6-5,22.1-9.8,23.4-7.4c1.9,3.6-8.8,6.4-17.9,12
			c-8.4,5.1-5.9,5.5-5.9,5.5s-0.7-0.2,9.6-3.9c11-4.1,23.1-8,24.1-6c1.3,2.4,1.3,2.8-2.5,4.9c2.4-0.8,3-0.2,3.4,0.8
			c2.2,5.1-13.1,13.6-19.2,17c4.7-2.6,8.4-3.9,7.7,0.1c-0.8,4.6-22.9,15.6-30.5,20.3C563.5,1021,559.6,984.4,559.6,984.4z"/>
		<path class="st55" d="M369.1,1061.1c0,0,3.5,13.9,2,19.2c-0.6,2-6.6-2.8-6.6-2.8L369.1,1061.1z"/>
		<g>
			<path class="st18" d="M334.6,1025.8c0,0,20.9,25.9,34.5,32.8l-0.2,18.9l-39.7-46.6L334.6,1025.8z"/>
		</g>
		<g>
			<path class="st34" d="M375,1113.8c-1.3,7.2-2.4,14.4-3.4,21.7l0,0c-2.1,15.9-3.5,31.9-4.4,47.4c-0.3,5.5-0.5,11-0.7,16.4
				c-2,64.1-27.4,115.2-27.4,115.2s-50.4,4.6-63.4-1.7c0,0-9-71.9-4.9-143.3c0.3-5.5,0.7-11,1.2-16.5c0,0,0,0,0,0
				c5.1-57.9,20.2-111.7,57.2-122.2C330.1,1031.7,381.9,1076.1,375,1113.8z"/>
		</g>
		<g>
			<g>
				<path class="st55" d="M370,1079.9c0,0-14.4,59.2-66.5,58.4c-46.6-0.7-115.8,16.3-139.2,32.1l-29.1,21l9.4-30.5
					c0,0,24-47.5,159-28.7c0,0,40.8,11.6,61.1-59.3C364.7,1072.9,371.2,1077.1,370,1079.9z"/>
			</g>
		</g>
		<path class="st34" d="M328.6,1065.6c0,0,78.6,2.4,115-8.2c11.4-3.3,100.3-57,104.8-58.1c4.5-1.2,27.1,27.1,27.1,27.1
			s-109.1,63.6-115.7,67.2c-6.6,3.6-119.8,26.2-132.7,23.3c-12.9-2.9-30.1-10.3-28.9-24.4C299.9,1072.7,328.6,1065.6,328.6,1065.6z"
			/>
		<g>
			<path class="st34" d="M1397.1,692c0,0-28.8-67.1-32.3-83.7c-1.6-7.5-5.9-26.1-8.6-41.4c-0.9-5-1.7-10.2-2.3-15.3c0,0,0,0,0,0
				c-2.6-20.3-3.2-38.8-3.2-38.8s-15.3-52.4,17.5-55.6c0,0,11.7,4,12.1,5c5.5,12.9,7.7,45.8,7.9,52.9c0.2,5.8,8.6,64.1,8.8,66.1
				c0.2,4,9,25,13.6,40.6c10.2,33.9,15.6,60.7,15.6,60.7L1397.1,692z"/>
		</g>
		<rect x="1331.8" y="575.5" class="st56" width="147.8" height="129.3"/>
		<g>
			<g>
				<rect x="1427.7" y="642.1" class="st57" width="8.2" height="39.7"/>
			</g>
		</g>
		<g>
			<g>
				<rect x="1439.1" y="652.5" class="st57" width="8.2" height="29.3"/>
			</g>
		</g>
		<g>
			<g>
				<rect x="1450.5" y="637.1" class="st57" width="8.2" height="44.7"/>
			</g>
		</g>
		<path class="st16" d="M1445.6,696.7c0,0-0.8,17.4-10.2,20.4c-9.4,3-19.6,0.3-23.9-2.3c-4.3-2.6-15.2-10.3-11.1-15.1
			C1413.4,684.3,1445.6,696.7,1445.6,696.7z"/>
		<path class="st16" d="M1440.8,712.9c0,0,11.7,0.9,11.1-4.1c-0.6-5-9-3-9-3L1440.8,712.9z"/>
		<g>
			<g>
				<rect x="1391.9" y="651.6" class="st57" width="8.2" height="30.3"/>
			</g>
		</g>
		<g>
			<g>
				<rect x="1403.6" y="648.5" class="st57" width="8.2" height="33.3"/>
			</g>
		</g>
		<g>
			<g>
				<rect x="1415.5" y="654.9" class="st57" width="8.2" height="27"/>
			</g>
		</g>
		<g>
			<g>
				<rect x="1379.8" y="654.9" class="st57" width="8.2" height="27"/>
			</g>
		</g>
		<g>
			<g>
				<g>
					<path class="st57" d="M1350.8,634.9c0.1,0.1,0.1,0.2,0.2,0.3l-0.3,0.2l-8.8,5.9l-0.2-0.3l8.8-5.9L1350.8,634.9z"/>
				</g>
				<g>
					<path class="st57" d="M1382.6,636.6c0,0.1,0,0.3,0,0.4l-0.4,0l-25.2-3l-0.4,0c0-0.1,0-0.3,0-0.4l0.4,0l25.2,3L1382.6,636.6z"/>
				</g>
				<g>
					<path class="st57" d="M1407.4,617.8l-0.3,0.3l-18.7,17l-0.3,0.3c-0.1-0.1-0.2-0.2-0.3-0.3l0.3-0.3l18.7-17l0.3-0.3
						C1407.2,617.6,1407.3,617.7,1407.4,617.8z"/>
				</g>
				<g>
					<path class="st57" d="M1438,615.5c0,0.1,0,0.1,0,0.2h-25.3c0-0.1,0-0.1,0-0.2c0-0.1,0-0.1,0-0.2h25.3
						C1438,615.4,1438,615.5,1438,615.5z"/>
				</g>
				<g>
					<path class="st57" d="M1459.8,595.4l-16.2,17.7l-0.3,0.3c-0.1-0.1-0.2-0.2-0.3-0.3l0.3-0.3l16.2-17.7L1459.8,595.4z"/>
				</g>
			</g>
			<g>
				<g>
					<path class="st57" d="M1353.5,629.9c-1.9,0-3.5,1.6-3.5,3.5c0,0.7,0.2,1.3,0.5,1.8c0.1,0.1,0.1,0.2,0.2,0.3
						c0.6,0.8,1.6,1.4,2.8,1.4c1.7,0,3.2-1.2,3.4-2.9c0-0.1,0-0.3,0-0.4c0-0.1,0-0.1,0-0.2C1357,631.4,1355.4,629.9,1353.5,629.9z
						 M1356.6,633.9c-0.3,1.4-1.5,2.5-3,2.5c-1,0-1.9-0.5-2.4-1.2c-0.1-0.1-0.2-0.2-0.2-0.3c-0.3-0.5-0.4-1-0.4-1.6
						c0-1.7,1.4-3.1,3.1-3.1c1.7,0,3.1,1.4,3.1,3.1c0,0.1,0,0.1,0,0.2C1356.6,633.7,1356.6,633.8,1356.6,633.9z"/>
				</g>
			</g>
			<g>
				<g>
					<path class="st57" d="M1388.4,635c-0.1-0.1-0.2-0.2-0.3-0.3c-0.6-0.6-1.5-1-2.5-1c-1.7,0-3.2,1.2-3.4,2.9c0,0.1,0,0.3,0,0.4
						c0,0.1,0,0.1,0,0.2c0,1.9,1.6,3.5,3.5,3.5c1.9,0,3.5-1.6,3.5-3.5C1389.2,636.4,1388.9,635.6,1388.4,635z M1385.7,640.3
						c-1.7,0-3.1-1.4-3.1-3.1c0-0.1,0-0.1,0-0.2c0-0.1,0-0.3,0-0.4c0.3-1.4,1.5-2.5,3-2.5c0.8,0,1.6,0.3,2.2,0.9
						c0.1,0.1,0.2,0.2,0.3,0.3c0.4,0.5,0.7,1.2,0.7,1.9C1388.8,638.9,1387.4,640.3,1385.7,640.3z"/>
				</g>
			</g>
			<g>
				<g>
					<path class="st57" d="M1413,615.3c-0.1-1.8-1.6-3.3-3.5-3.3c-1.9,0-3.5,1.6-3.5,3.5c0,0.8,0.3,1.6,0.8,2.2
						c0.1,0.1,0.2,0.2,0.3,0.3c0.6,0.6,1.5,1,2.4,1c1.9,0,3.4-1.5,3.5-3.3c0-0.1,0-0.1,0-0.2C1413,615.5,1413,615.4,1413,615.3z
						 M1409.6,618.6c-0.8,0-1.6-0.3-2.2-0.9c-0.1-0.1-0.2-0.2-0.3-0.3c-0.4-0.5-0.7-1.2-0.7-1.9c0-1.7,1.4-3.1,3.1-3.1
						c1.6,0,3,1.3,3.1,2.9c0,0.1,0,0.1,0,0.2c0,0.1,0,0.1,0,0.2C1412.5,617.3,1411.2,618.6,1409.6,618.6z"/>
				</g>
			</g>
			<g>
				<g>
					<path class="st57" d="M1443.6,613.1c-0.1-0.1-0.2-0.2-0.3-0.3c-0.6-0.5-1.4-0.8-2.2-0.8c-1.9,0-3.4,1.5-3.5,3.3
						c0,0.1,0,0.1,0,0.2c0,0.1,0,0.1,0,0.2c0.1,1.8,1.6,3.3,3.5,3.3c1.9,0,3.5-1.6,3.5-3.5C1444.6,614.6,1444.2,613.7,1443.6,613.1z
						 M1441.1,618.6c-1.6,0-3-1.3-3.1-2.9c0-0.1,0-0.1,0-0.2c0-0.1,0-0.1,0-0.2c0.1-1.6,1.4-2.9,3.1-2.9c0.7,0,1.4,0.3,1.9,0.7
						c0.1,0.1,0.2,0.2,0.3,0.3c0.5,0.6,0.9,1.3,0.9,2.1C1444.2,617.2,1442.8,618.6,1441.1,618.6z"/>
				</g>
			</g>
		</g>
		<g>
			<g>
				<path class="st16" d="M1163.7,694.5c0,0-5.1,8.9-11.1,8.7c-5.1-0.1-12,3.1-14.1,4.1c-2.8,1.3-13,2.5-11.4,5.8
					c1.7,3.3,16.9-1.1,20.3-1.5c3.4-0.3-5.4,11.5-5.2,14.8c0.2,3.3,21.4,15.3,26.4,6.5c5-8.7,4.4-21,5.6-22.4
					c1.2-1.4,3.9-6.2,3.9-6.2L1163.7,694.5z"/>
			</g>
		</g>
		<g>
			<g>
				<path class="st16" d="M1142.9,724.1c0,0-13.6,27.7-12.9,30.2c0.7,2.5,2.3,3.1,3.7,0.5c1.4-2.5,13.9-26.4,13.9-26.4
					s-10.3,35.1-10.2,37.3c0.1,1.3,3.1,2.5,4,1.2c0.9-1.3,13.2-35.6,13.2-35.6s-9.6,32.8-8.9,34.6c0.6,1.6,3.7,2,4.6-0.3
					c0.9-2.4,11.6-32.4,11.6-32.4s-5.4,24.2-3.9,25.4c0.9,0.7,3.5,1.9,4.7-4.4c1.2-6.3,5.6-20.9,5.6-20.9L1142.9,724.1z"/>
			</g>
		</g>
		<g>
			<path class="st32" d="M1398.1,958.9c-15.5-1.6-30.9-4-46.1-7.3c-0.9-7.8-1.9-15.3-2.8-22.5c-2.9-22.4-5.5-40.7-7.3-48.3
				c-6.2-26.1-29-138.4-34.6-131.3c-5.6,7.1-12.6,131.1-16.7,151.6c-0.4,1.8-0.8,4.8-1.3,8.6c-0.7,5.6-1.5,13.2-2.4,22.1
				c-17.3-6.8-34.1-14.8-50.4-23.9c0.1-1.1,0.1-2.2,0.2-3.2c0.2-2.8-0.3-10.6-1.1-22.1c-3.3-49.7-11.8-166.3,7.2-219.2
				c12.3-34.4,127.5,18.8,127.5,18.8s10.4,101,15.8,135.5c6.3,40.4,8.5,73.8,10.2,94.7c0.4,5.1,0.8,14,1.1,25.2
				C1397.8,944,1398,951.2,1398.1,958.9z"/>
		</g>
		<g>
			<path class="st58" d="M1167.6,696.3c0,0,7.8,9,15.2,7.7c7.4-1.3,38.1-95,38.4-113.8c0.2-15.2,8.5-55.3,8.5-55.3s0,0,0,0.1
				c0,0,0,0,0,0c0,0,0,0,0,0.1c0.8,3,12.1,44.7,12.4,64.7c0.4,20.8-1.2,92.2-1.2,92.2l27.8,7.5l88.9,0.8l20.3-8.3c0,0-2.2-23-3-39.1
				c-0.5-10.3-2.5-28.6-2-46.5c0,0-0.3-18.9,1.5-27c0.2-35.8,2.4-71.3,2.4-71.3c1.2-16.3,2-31.4,2.5-45.6c-3.9-2.1-8.6-4.5-12.4-6.3
				c-11.7-5.6-27.9-13-38.4-17.8c-6.1-2.8-12.1-4.9-12.1-4.9s-41.7-4-45.1-3.8c-1.1,0.1-6.3,1.9-13.1,4.5
				c-14.8,5.6-43.3,17-47.8,20.3c-6.7,4.8-20.7,118.1-21.4,126C1187.8,594.7,1167.6,696.3,1167.6,696.3z"/>
		</g>
		<path class="st59" d="M1375.1,684.4c0,0-61,5.2-114.5,0v17.5c0,0,79.6,7.6,117.2-3.3L1375.1,684.4z"/>
		<g>
			<path class="st34" d="M1323.1,436c0,0,9.9,23.3,17.4,75.5c2.9,20,8.2,53.7,12,88.1v0c3,27.1,10,55,12.2,75.7
				c2.3,21.5,9.2,84.9,9.2,84.9l16.7-10.5c2.4-2.2,5.7-5.1,4.8-8.2c-4.6-14.8-13.4-63.8-18.6-106.5c0,0,0-0.1,0-0.1
				c-0.2-2.1-0.5-4.1-0.7-6.1c0-0.1,0-0.2,0-0.3c-1-8.5-1.8-16.7-2.4-24.2c-0.4-5.7,0-11.4,0.7-16.9c2.3-38.3,3.5-78.8,3.5-78.8
				c1.2-16.6,1.9-32,2.4-46.4C1380.2,462.2,1327.8,437.4,1323.1,436z"/>
		</g>
		<g>
			<path class="st34" d="M1222.3,591.1c-1.3,17.4-33.1,119-37.3,118.5c-7.4-0.8-32.4-8.6-32.4-8.6s30.7-103.3,31.8-114.1
				c0.8-7.9,13.4-126.7,20.1-131.5c3.8-2.8,32.3-12.9,46.3-18.4c2.6-1,11-4.2,13.3-5c3,3.3,23.7,25.8,30.9,111
				c1.2,14.4-2.6,44.8-5.2,69.6c-2.7,26.5-5.8,47.2-8,69.3c-4.4,43.6-7.4,78.4-7.4,78.4l-43.4-19.3c-7-3.5-16.8-17.9-14.1-25.3
				c10-28.1,22.7-76.2,22.7-100.8c0,0-4.8-60.4-8.7-73.7C1230.8,540.9,1224,569,1222.3,591.1z"/>
		</g>
		<path class="st16" d="M1297.1,323.6c0,0,43.5-16.1,40.8,41.8c-2.7,57.9-12.9,63.7-41.6,55.7c-28.6-8.1-31-44.6-34.8-62.2
			C1257.8,341.3,1282.8,326.2,1297.1,323.6z"/>
		<path class="st60" d="M1267.6,387.6c0,0-0.1-15.5,6.3-16.9c6.4-1.4,9.7,7.5,9.7,7.5l5.2-0.3c0,0-4.6-15.7,1.5-19.3
			c6.1-3.6,42.8-0.4,47.4-5.7c4.6-5.3-2.1-36.6-12.1-39.7c-10-3.1-37.3-9.3-54.7,6.1c0,0-15.1,0.3-15.7,12.6
			C1254.7,344.3,1262.4,379.2,1267.6,387.6z"/>
		<path class="st16" d="M1281.2,364.1c-1.9-5.1-12.8-4.5-11.7,3.6c1.1,8.1,10.1,20.5,13.7,18.2
			C1286.8,383.6,1283.8,371.2,1281.2,364.1z"/>
		<g>
			<path class="st23" d="M1275.1,434.1c0,0,3.8-3.2-1.7-32.1c-1.5-7.8,40.9,9.3,40.9,9.3s-0.3,6.4-0.3,12.7c0,2.9,0.1,5.7,0.3,8
				c0.2,1.7,1.2,4.8,1.6,5.6C1317.8,441.9,1290.8,445.3,1275.1,434.1z"/>
		</g>
		<path class="st24" d="M1314.3,431.9c-25.4-0.3-33.6-19.7-33.8-20.3c13.4,13.6,33.5,12.3,33.5,12.3
			C1314,426.8,1314.1,429.6,1314.3,431.9z"/>
		<path class="st43" d="M1304.1,449.1l7.7,10.4c0,0-4.5,6-12.5,1.6L1304.1,449.1z"/>
		<path class="st43" d="M1309.6,459.9c0,0,28.6,110.1,22.7,195.7l-9.6,17l-9-17.8c0,0-2.5-153.3-10.3-195.2L1309.6,459.9z"/>
		<path class="st23" d="M1312.4,439.4l-8.3,9.7c0,0-13.2-2.6-17.1-9.5C1283.1,432.7,1312.4,439.4,1312.4,439.4z"/>
		<path class="st61" d="M1314.3,431c0,0-1,7.4-10.1,18.1l10,13.5l5.4-27.9L1314.3,431z"/>
		<path class="st61" d="M1276.3,423.5c0,0,14.4,20.3,27.8,25.6l-6.2,15.4l-28.5-34.4L1276.3,423.5z"/>
		<path class="st62" d="M1679,327.3c13,5.2,5.6,31.9,6.9,80.6c1.3,48.7,37.2,57.5,37.2,57.5s-15.8-18.7-19-35.7
			c-3.2-17.1,32.3-60.2,16.8-94.1c-12-26.2-43.4-9.3-43.4-9.3L1679,327.3z"/>
		<path class="st16" d="M1472.6,588c0,0,6.4-2.2,10.1-1.5c3.8,0.7-7.1-18.7-7.1-18.7L1472.6,588z"/>
		<g>
			<path class="st16" d="M1475.7,567.8c0,0-10.1-8.8-11.6-10.1c-1.6-1.3-7.3-1.9-13.8-1.9c-6.6-0.1-15.5,2.8-16.1,3.7
				c-0.6,0.9-1.7,1.6-1.7,4.5c0,2.9,1.7,5.4,1.7,5.4s-1.6,3.6,0.6,6.5c0,0-1.4,3.5,1.7,6.3c0,0-1.3,3.4,1.1,5.3c0,0,5.7,0.6,7.7,1.4
				c2,0.8,14,1.2,25.5-0.2C1470.6,588.5,1483.4,587.4,1475.7,567.8z"/>
		</g>
		<g>
			<path class="st63" d="M1456.2,570.5c0,0,2.6,6.2,4.2,7.6c1.6,1.4-10.2,9.2-10.2,9.2S1448.8,573.8,1456.2,570.5z"/>
		</g>
		<g>
			<path class="st64" d="M1435.8,559.4c0,0,16.7,0.6,16.9,3.3c0.2,2.7-1.3,3.8-1.3,3.8l6.8,3.4c0,0,3.2,4.7-2.9,6.9
				c0,0,3.5,4.1-2.7,5.5c0,0,1.1,3.7-1.7,4.9c-2.7,1.1-13.4,0.3-13.4,0.3s-2.7-1.1-1.7-5.2c0,0-3.1-2.7-1.6-6.4c0,0-2.2-2.5-0.6-6.5
				c0,0-3.9-5.8,0.5-9.8C1434.1,559.4,1435.1,559.3,1435.8,559.4z"/>
		</g>
		<g>
			<path class="st16" d="M1452.7,562.5c0,0-2.7-15.5-1.9-22.3c0.2-1.5,0.1-2.1,1.6-2.5c1.5-0.4,4,4.9,5.6,9.6
				c1.7,4.7,6.1,10.5,6.1,10.5S1464.3,562.6,1452.7,562.5z"/>
		</g>
		<g>
			<path class="st17" d="M1741.5,805.5c-0.7,12.5-1.2,21.9-1.2,25.7c0,1.6,0.2,3.7,0.5,6c-0.1,0.1-0.2,0.2-0.3,0.3
				c-9.2,9.2-18.9,18-28.8,26.3c-4.5,3.8-9,7.4-13.7,10.9c-0.8-7.3-1.5-12.9-1.7-14.3c-0.1-0.7-1-4.2-2.5-9.5
				c-8.6-31.1-36.3-127.6-36.3-146.3c0-21.8,13.2-112,60.6-76.3c0,0,19.7,25.5,25,55.9C1747.3,706.7,1743.6,769,1741.5,805.5z"/>
		</g>
		<g>
			<path class="st17" d="M1623.2,850.7c-2.3,6.5,3.2,24.5,6.7,42.5c1.5,7.9,2.6,15.8,2.4,22.8c-13.4,6.8-27.2,12.9-41.2,18.1
				c-3.9,1.5-7.7,2.8-11.6,4.2l-1.2-22.2l-2-39.3c0,0-3.7-52.6-4.1-55.8c-0.3-3.1,7.3-25.4,11.2-42.5
				c3.8-17.1,36.1-140.3,36.1-140.3c99.6-35.8,59.7,90.1,59.7,90.1S1626.7,841,1623.2,850.7z"/>
		</g>
		<g>
			<path class="st15" d="M1628.7,453.5c0,0-20,2.4-28.4,13.9c-8.4,11.6-11.2,29.2-13.1,35c-1.9,5.8-27.7,60.9-29.4,62.3
				c-1.7,1.4-25.3,0.5-39.5,0.9c-19.9,0.6-43.7,0.1-43.7,0.1l2.9,28.5c0,0,94.8,2.2,101.4-5.2c14.5-16.4,47.1-73.7,47.1-73.7
				S1660,468.9,1628.7,453.5z"/>
		</g>
		<g>
			<path class="st18" d="M1652.1,444.7c0,0-16.7,7.9-22.5,9.1s-28.3,30.4-32.3,41.1s0,26.7,8.1,45.5c8.1,18.8,0.5,25.1,4.2,43.9
				c3.7,18.8,7,58.7,6.3,69.1c-0.7,10.5,94,12.4,115.6-6.6c0,0-21.7-32.5-24.5-37.2c-2.8-4.6-0.5-30,2.1-36.5
				c2.6-6.5,29.3-58.8,29.3-58.8s4.2-45.5-8.4-55.2c-10.9-8.5-40.7-11.5-46-13.4C1678.6,443.9,1663,443.1,1652.1,444.7z"/>
		</g>
		<g>
			<path class="st19" d="M1646.8,482l-10.2-11.9l8.8-31.3C1645.4,438.8,1648.4,456.2,1646.8,482z"/>
		</g>
		<g>
			<path class="st16" d="M1644.1,425.4c0,0,3.3,30.7,2.6,40.7c0,0,17.4,17.4,37.2-20.3c0,0-8.3-15.6-2.1-36.8
				C1688.1,387.8,1644.1,425.4,1644.1,425.4z"/>
		</g>
		<g>
			<polygon class="st16" points="1646.8,466.1 1646.8,482 1666.8,467 			"/>
		</g>
		<g>
			<polygon class="st19" points="1646.8,482 1655.1,471.7 1683,443.8 1692.1,452.5 			"/>
		</g>
		<g>
			<path class="st15" d="M1678.9,668.5c7.9,37.7,64.9-4.3,64.9-4.3s-37-62.1-22.3-111.7c0.1-0.4,0.2-0.8,0.4-1.2
				c0.9-3.1,1.9-6.1,2.8-9c13.5-41,25.6-50.6,25.6-50.6s-17.1-37.7-33-40.1c-15.9-2.5-30.3-5.2-30.3-5.2s-23.5,35.6-24.6,51.3
				C1661.2,513.5,1671.1,630.8,1678.9,668.5z"/>
		</g>
		<g>
			<path class="st15" d="M1593.7,499.3c0,0,3.8,35.6,11,53.2c0,0,3,37.6,2.6,50.9c-0.5,13.2-3.6,63.3-3.6,63.3l16.3,9.6
				c3.3,1.9,7.4-0.7,6.9-4.5c-4.6-38.1-19.7-182.7,12.8-221.5l-13,3.8C1626.7,454,1599.8,479.1,1593.7,499.3z"/>
		</g>
		<g>
			<polygon class="st20" points="1636.6,470.1 1623.8,473.6 1645.4,438.8 			"/>
		</g>
		<g>
			<polygon class="st20" points="1655.1,471.7 1666.8,487 1690.7,447.2 1683,443.8 			"/>
		</g>
		<path class="st17" d="M1598.9,556.9c0,0-7.6-24-3.1-40.9c0,0-0.6,14.9,8.3,34.7L1598.9,556.9z"/>
		<path class="st16" d="M1656.2,326.3c-12.2-1.2-39.7,3.7-45.5,36c0,0,0.6,8.8,2.4,15.8c1.8,7-5.3,27-3.8,28.1
			c1.6,1.1,8.2,2.7,8.2,2.7s6.1,22.5,13.9,22.7c7.8,0.2,37.6-4.5,52.8-31.5C1699.4,373.2,1705.6,331.1,1656.2,326.3z"/>
		<path class="st62" d="M1610.7,362.4c0,0,19.3,14.5,38.9,18.2c19.6,3.7,30.3,37.8,30.3,37.8s33-49.5,10.1-81.2
			C1667.2,305.7,1608.2,324.3,1610.7,362.4z"/>
		<path class="st16" d="M1657.9,380.1c0.3-3.8,4.8-9.4,10.8-3.8c6,5.5-3.3,23.3-8.3,21.3C1655.4,395.5,1657.6,384,1657.9,380.1z"/>
		<path class="st24" d="M1644.1,429.8c0.4,2.4,0.9,5.2,1.3,8.1c16.5-9.4,25.1-21.4,25.1-21.4
			C1660.9,424.4,1644.1,429.8,1644.1,429.8z"/>
		<linearGradient id="SVGID_10_" gradientUnits="userSpaceOnUse" x1="1728.1727" y1="710.5995" x2="1675.3223" y2="547.1157">
			<stop  offset="0" style="stop-color:#FF9F55"/>
			<stop  offset="1" style="stop-color:#FFD255"/>
		</linearGradient>
		<polygon class="st65" points="1628.9,592.3 1698.3,712.4 1775.4,667.9 1709,546 		"/>
		<g>
			<g>
				<g>
					<g>
						<g>
							<path class="st16" d="M1663.3,672c0,0,3.2,0,4.5-0.7c0,0,2.4-1.4,4.2-2.3c0.6-0.3,1.1-0.5,1.4-0.6c1.4-0.5,4.7-1.1,7.7-3.3
								c3.1-2.1,13.9-14.7,13.9-14.7l-5.1-7.8l-3.8-8c0,0-22.8,1.5-25.9,3.1c-0.3,0.2-0.6,0.3-0.9,0.5c-2.5,1.7-3.6,3.9-4.8,4.9
								c-0.4,0.4-4.5,4.4-4.4,6.1c0.2,2.4,1.3,3.9,2.7,4.7c0,0,0.6,4.6,2.9,6.8c0,0,0.4,4.3,4,6.2
								C1659.9,667.1,1660.8,671.4,1663.3,672z"/>
						</g>
					</g>
				</g>
			</g>
		</g>
		<g>
			<path class="st15" d="M1708.4,451.1c0,0,23-2.9,35.1,20.3c12.1,23.2,12,33.1,13.6,44.4c1.5,10.7,8.4,39.9,9.1,42.9
				s16.3,39,9.1,51.6c-7.2,12.6-80.1,49.8-79.6,52.6c0.5,2.8-12.6-28.1-12.6-28.1s29.5-16.4,34.3-21.5c7.8-8.2,24.4-17.1,21-27.3
				c-4-12-16-52.4-18.8-58.3C1716.8,521.7,1690.6,458.6,1708.4,451.1z"/>
		</g>
		<path class="st17" d="M1710.3,503.4c0.9,22.3,11.6,48,11.6,48c0.9-3.1,1.9-6.1,2.8-9C1718.7,525.6,1710.3,503.4,1710.3,503.4z"/>
		<g>
			<path class="st66" d="M1712,284.4c0-9.7-9.8-17.5-21.8-17.5c-2.7,0-5.4,0.4-7.8,1.1c-3.2-7.7-11.1-13.2-20.3-13.2
				c-10.3,0-18.9,6.8-21.2,15.9c-1.8-0.7-3.7-1-5.7-1c-8.6,0-15.5,6.6-15.5,14.7H1712z"/>
		</g>
		<defs>
			<filter id="Adobe_OpacityMaskFilter_6_" filterUnits="userSpaceOnUse" x="1020" y="116.9" width="844.2" height="844.3">
				<feFlood  style="flood-color:white;flood-opacity:1" result="back"/>
				<feBlend  in="SourceGraphic" in2="back" mode="normal"/>
			</filter>
		</defs>
		<mask maskUnits="userSpaceOnUse" x="1020" y="116.9" width="844.2" height="844.3" id="SVGID_11_">
			<g class="st67">
				<defs>
					<filter id="Adobe_OpacityMaskFilter_7_" filterUnits="userSpaceOnUse" x="1020" y="116.9" width="844.2" height="844.3">
						<feFlood  style="flood-color:white;flood-opacity:1" result="back"/>
						<feBlend  in="SourceGraphic" in2="back" mode="normal"/>
					</filter>
				</defs>
				<mask maskUnits="userSpaceOnUse" x="1020" y="116.9" width="844.2" height="844.3" id="SVGID_11_">
					<g class="st68">
					</g>
				</mask>
				
					<linearGradient id="SVGID_12_" gradientUnits="userSpaceOnUse" x1="-1.2763" y1="-3460.2356" x2="514.7519" y2="-5243.1274" gradientTransform="matrix(-1 0 0 -1 1614.7578 -3521.9346)">
					<stop  offset="0" style="stop-color:#000000"/>
					<stop  offset="0.9896" style="stop-color:#FFFFFF"/>
				</linearGradient>
				<path class="st69" d="M1442.2,961.2c233.2,0,422.1-188.8,422.1-422.2c0-232.5-188.3-422.1-422.1-422.1
					c-233.4,0-422.1,189-422.1,422.1C1020,772.2,1208.8,961.2,1442.2,961.2z M1442.2,138.1c220.5,0,401,179.3,401,400.9
					c0,221.1-179.9,401-401,401c-221.1,0-401-179.9-401-401C1041.2,316.6,1222.4,138.1,1442.2,138.1z"/>
			</g>
		</mask>
		<path class="st0" d="M1442.2,961.2c233.2,0,422.1-188.8,422.1-422.2c0-232.5-188.3-422.1-422.1-422.1
			c-233.4,0-422.1,189-422.1,422.1C1020,772.2,1208.8,961.2,1442.2,961.2z M1442.2,138.1c220.5,0,401,179.3,401,400.9
			c0,221.1-179.9,401-401,401c-221.1,0-401-179.9-401-401C1041.2,316.6,1222.4,138.1,1442.2,138.1z"/>
		<g>
			<path class="st66" d="M1897.1,371.6c0-16.1-16.3-29.1-36.3-29.1c-4.6,0-8.9,0.7-12.9,1.9c-5.3-12.8-18.4-21.9-33.8-21.9
				c-17.1,0-31.4,11.2-35.3,26.4c-3-1.1-6.2-1.7-9.5-1.7c-14.2,0-25.8,11-25.8,24.5H1897.1z"/>
		</g>
		<g>
			<defs>
				<filter id="Adobe_OpacityMaskFilter_8_" filterUnits="userSpaceOnUse" x="171" y="656.6" width="844.2" height="844.3">
					<feFlood  style="flood-color:white;flood-opacity:1" result="back"/>
					<feBlend  in="SourceGraphic" in2="back" mode="normal"/>
				</filter>
			</defs>
			<mask maskUnits="userSpaceOnUse" x="171" y="656.6" width="844.2" height="844.3" id="SVGID_13_">
				<g class="st70">
					<defs>
						<filter id="Adobe_OpacityMaskFilter_9_" filterUnits="userSpaceOnUse" x="171" y="656.6" width="844.2" height="844.3">
							<feFlood  style="flood-color:white;flood-opacity:1" result="back"/>
							<feBlend  in="SourceGraphic" in2="back" mode="normal"/>
						</filter>
					</defs>
					<mask maskUnits="userSpaceOnUse" x="171" y="656.6" width="844.2" height="844.3" id="SVGID_13_">
						<g class="st71">
						</g>
					</mask>
					<linearGradient id="SVGID_14_" gradientUnits="userSpaceOnUse" x1="419.2159" y1="1679.4225" x2="935.2444" y2="-103.4704">
						<stop  offset="0" style="stop-color:#000000"/>
						<stop  offset="0.9896" style="stop-color:#FFFFFF"/>
					</linearGradient>
					<path class="st72" d="M593.1,656.6c-233.2,0-422.1,188.8-422.1,422.2c0,232.5,188.3,422.1,422.1,422.1
						c233.4,0,422.1-189,422.1-422.1C1015.2,845.5,826.4,656.6,593.1,656.6z M593.1,1479.6c-220.5,0-401-179.3-401-400.9
						c0-221.1,179.9-401,401-401c221.1,0,401,179.9,401,401C994.1,1301.2,812.9,1479.6,593.1,1479.6z"/>
				</g>
			</mask>
			<path class="st0" d="M593.1,656.6c-233.2,0-422.1,188.8-422.1,422.2c0,232.5,188.3,422.1,422.1,422.1
				c233.4,0,422.1-189,422.1-422.1C1015.2,845.5,826.4,656.6,593.1,656.6z M593.1,1479.6c-220.5,0-401-179.3-401-400.9
				c0-221.1,179.9-401,401-401c221.1,0,401,179.9,401,401C994.1,1301.2,812.9,1479.6,593.1,1479.6z"/>
		</g>
	</g>
</g>
</svg>
