<svg id="Layer_5" data-name="Layer 5" xmlns="http://www.w3.org/2000/svg" viewBox="0 0 496 496"><defs><style>.cls-1{fill:#64b2cd;}</style></defs><title>joystick</title><path class="cls-1" d="M232,168H168v10.91c23.46,5.94,40,20.31,40,37.09v32c0,22.09-28.66,40-64,40s-64-17.91-64-40V216c0-16.78,16.54-31.16,40-37.09V168H56a16,16,0,0,0-16,16V312a16,16,0,0,0,16,16H232a16,16,0,0,0,16-16V184A16,16,0,0,0,232,168Z" transform="translate(-8 -8)"/><path class="cls-1" d="M416,256h80v40H416Z" transform="translate(-8 -8)"/><path d="M72,344H88v16H72Z" transform="translate(-8 -8)"/><path d="M104,344h16v16H104Z" transform="translate(-8 -8)"/><path d="M40,344H56v16H40Z" transform="translate(-8 -8)"/><path d="M200,344h16v16H200Z" transform="translate(-8 -8)"/><path d="M232,344h16v16H232Z" transform="translate(-8 -8)"/><path d="M488,248V200H424v48H408v64a48,48,0,0,0,40,47.28V460a28,28,0,0,1-56,0V48a40,40,0,0,0-80,0v88h16V48a24,24,0,0,1,48,0V460a44,44,0,0,0,88,0V359.28A48,48,0,0,0,504,312V248Zm-48-32h32v32H440Zm48,96a32,32,0,0,1-64,0V264h64Z" transform="translate(-8 -8)"/><path d="M312,464a24,24,0,0,1-24,24H176a24,24,0,0,1-24-24v-9.14A32,32,0,0,0,176,424h44.22a65.54,65.54,0,0,0,58.94-36.42l.84-1.69V176a40,40,0,0,0-40-40H176V109.9a56,56,0,1,0-64,0V136H48A40,40,0,0,0,8,176V385.89l.84,1.69A65.54,65.54,0,0,0,67.78,424H112a32,32,0,0,0,24,30.86V464a40,40,0,0,0,40,40H288a40,40,0,0,0,40-40V248H312Zm-91.78-56H176V392h80.79A49.56,49.56,0,0,1,220.22,408ZM104,64a40,40,0,1,1,60,34.61l-4,2.31V216h16V190c14.64,6,24,15.76,24,26,0,17.34-25.65,32-56,32s-56-14.66-56-32c0-10.22,9.36-20,24-26v26h16V100.92l-4-2.31A40.14,40.14,0,0,1,104,64ZM88,246.48C101.1,257.23,121.14,264,144,264s42.9-6.77,56-17.52V248c0,17.34-25.65,32-56,32s-56-14.66-56-32ZM48,152h64v21c-24.43,8-40,24.31-40,43v32c0,26.91,31.62,48,72,48s72-21.09,72-48V216c0-18.65-15.57-35-40-43V152h64a24,24,0,0,1,24,24V376H24V176A24,24,0,0,1,48,152ZM67.78,408a49.56,49.56,0,0,1-36.57-16H112v16ZM128,424V392h32v32a16,16,0,0,1-32,0Z" transform="translate(-8 -8)"/><path d="M296,216h48v16H296Z" transform="translate(-8 -8)"/><path d="M296,184h48v16H296Z" transform="translate(-8 -8)"/><path d="M296,152h48v16H296Z" transform="translate(-8 -8)"/><path d="M152,64h16a24,24,0,0,0-24-24V56A8,8,0,0,1,152,64Z" transform="translate(-8 -8)"/></svg>