<?xml version="1.0" encoding="utf-8"?>
<!-- Generator: Adobe Illustrator 23.0.6, SVG Export Plug-In . SVG Version: 6.00 Build 0)  -->
<svg version="1.1" id="Layer_5" xmlns="http://www.w3.org/2000/svg" xmlns:xlink="http://www.w3.org/1999/xlink" x="0px" y="0px"
	 viewBox="0 0 512 512" style="enable-background:new 0 0 512 512;" xml:space="preserve">
<style type="text/css">
	.st0{fill:#64B2CD;}
</style>
<path class="st0" d="M304,376h-96c-13.2,0-24-10.8-24-24v-32c0-13.2,10.8-24,24-24h96c13.2,0,24,10.8,24,24v32
	C328,365.2,317.2,376,304,376z"/>
<path class="st0" d="M256,280c-22.1,0-40-17.9-40-40s17.9-40,40-40s40,17.9,40,40S278.1,280,256,280z"/>
<path d="M296,88c13.2,0,24-10.8,24-24s-10.8-24-24-24s-24,10.8-24,24S282.8,88,296,88z M296,56c4.4,0,8,3.6,8,8s-3.6,8-8,8
	s-8-3.6-8-8S291.6,56,296,56z"/>
<path d="M216,88c13.2,0,24-10.8,24-24s-10.8-24-24-24s-24,10.8-24,24S202.8,88,216,88z M216,56c4.4,0,8,3.6,8,8s-3.6,8-8,8
	s-8-3.6-8-8S211.6,56,216,56z"/>
<path d="M456,316.7V256c0-30.9-25.1-56-56-56h-9.5c-3.3-9.3-12.1-16-22.5-16h-15.4c-3.4-9.4-12.3-16-22.6-16h-26v-16h8
	c16.4,0,30.4-9.9,36.6-24H360c13.2,0,24-10.8,24-24V56c0-13.2-10.8-24-24-24h-11.4C342.4,17.9,328.4,8,312,8H200
	c-16.4,0-30.4,9.9-36.6,24H152c-13.2,0-24,10.8-24,24v48c0,13.2,10.8,24,24,24h11.4c6.2,14.1,20.2,24,36.6,24h8v16h-26
	c-10.3,0-19.2,6.6-22.6,16H144c-10.4,0-19.2,6.7-22.5,16H112c-30.9,0-56,25.1-56,56v60.7l-17.4,17.4l18,44.9l14.9-5.9l-14-35.1
	l9.9-9.9h25.4l9.9,9.9l-14,35.1l14.9,5.9l18-44.9L104,316.7V256c0-4.4,3.6-8,8-8h9.5c3.3,9.3,12.1,16,22.5,16h3.9l-11.4,83.9
	c-0.3,2.4-0.5,4.8-0.5,7.2c0,21.8,13.2,40.5,32,48.6V456c-17.6,0-32,14.4-32,32c0,8.8,7.2,16,16,16h80c8.8,0,16-7.2,16-16v-16
	c0-8.8-7.2-16-16-16v-48h48v48c-8.8,0-16,7.2-16,16v16c0,8.8,7.2,16,16,16h80c8.8,0,16-7.2,16-16c0-17.6-14.4-32-32-32v-52.3
	c18.8-8.1,32-26.9,32-48.6c0-2.4-0.2-4.8-0.5-7.2L364.1,264h3.9c10.4,0,19.2-6.7,22.5-16h9.5c4.4,0,8,3.6,8,8v60.7l-17.4,17.4
	l18,44.9l14.9-5.9l-14-35.1l9.9-9.9h25.4l9.9,9.9l-14,35.1l14.9,5.9l18-44.9L456,316.7z M360,48c4.4,0,8,3.6,8,8v48c0,4.4-3.6,8-8,8
	h-8V48H360z M152,112c-4.4,0-8-3.6-8-8V56c0-4.4,3.6-8,8-8h8v64H152z M424,296h16v16h-16V296z M212.9,136l8-16h70.1l8,16H212.9z
	 M176,112V48c0-13.2,10.8-24,24-24h112c13.2,0,24,10.8,24,24v64c0,11.6-8.3,21.3-19.3,23.5L300.9,104h-89.9l-15.8,31.5
	C184.3,133.3,176,123.6,176,112z M224,152h64v16h-64V152z M88,312H72v-16h16V312z M88,256v24H72v-24c0-22.1,17.9-40,40-40h8v16h-8
	C98.8,232,88,242.8,88,256z M144,248c-4.4,0-8-3.6-8-8v-32c0-4.4,3.6-8,8-8h12.6l-6.5,48H144z M232,488h-80c0-8.8,7.2-16,16-16h64
	V488z M216,456h-32v-48.2c1.6,0.2,3.3,0.2,5,0.2h27V456z M360,488h-80v-16h64C352.8,472,360,479.2,360,488z M328,456h-32v-48h27
	c1.7,0,3.3-0.1,5-0.2V456z M323,392H189c-20.4,0-37-16.6-37-37c0-1.7,0.1-3.3,0.3-5L174,190.9c0.5-3.9,3.9-6.9,7.9-6.9H330
	c4,0,7.4,3,7.9,6.9l21.7,159.1c0.2,1.7,0.3,3.3,0.3,5C360,375.4,343.4,392,323,392z M376,240c0,4.4-3.6,8-8,8h-6.1l-6.5-48H368
	c4.4,0,8,3.6,8,8V240z M400,232h-8v-16h8c22.1,0,40,17.9,40,40v24h-16v-24C424,242.8,413.2,232,400,232z"/>
<path d="M312,232h16v16h-16V232z"/>
<path d="M184,232h16v16h-16V232z"/>
<path d="M248,232h16v16h-16V232z"/>
<path d="M216,328h16v16h-16V328z"/>
<path d="M248,328h16v16h-16V328z"/>
<path d="M280,328h16v16h-16V328z"/>
</svg>
