<svg id="Layer_5" data-name="Layer 5" xmlns="http://www.w3.org/2000/svg" viewBox="0 0 496 496"><defs><style>.cls-1{fill:#64b2cd;}</style></defs><title>smartwatch</title><path class="cls-1" d="M336,360H176a24,24,0,0,1-24-24V176a24,24,0,0,1,24-24H336a24,24,0,0,1,24,24V336A24,24,0,0,1,336,360Z" transform="translate(-8 -8)"/><path class="cls-1" d="M96,146.42,52.68,110.31A35.24,35.24,0,0,1,75.24,48h1.47A35,35,0,0,1,96,53.73,35,35,0,0,1,115.29,48h1.47a35.24,35.24,0,0,1,22.56,62.31Z" transform="translate(-8 -8)"/><path class="cls-1" d="M384,150.43V41.57L471.1,96Z" transform="translate(-8 -8)"/><path class="cls-1" d="M152.57,407.43a80,80,0,0,0-113.14,0l45.26,45.26a16,16,0,0,1,22.62,0Z" transform="translate(-8 -8)"/><path class="cls-1" d="M400,384h72v40H400Z" transform="translate(-8 -8)"/><path d="M305.9,254.58A22.34,22.34,0,0,0,290,248h-1.06a22.34,22.34,0,0,0-20.09,12.42,6.45,6.45,0,0,1-5.79,3.58H262a6.42,6.42,0,0,1-4.58-1.9l-7.52-7.52A6.39,6.39,0,0,1,248,250v-1.06a6.44,6.44,0,0,1,3.58-5.79A22.34,22.34,0,0,0,264,223.06V222a22.34,22.34,0,0,0-6.58-15.89L243.31,192C233,181.68,215,181.68,204.69,192l-11.14,11.14A33.29,33.29,0,0,0,184,227a32.39,32.39,0,0,0,2.64,12.84,160.75,160.75,0,0,0,75.76,80.35l8.83,4.42a32.6,32.6,0,0,0,37.63-6.11L320,307.31a27.3,27.3,0,0,0,0-38.62ZM308.69,296l-11.14,11.14a17,17,0,0,1-19.17,3.11l-8.83-4.42a144.71,144.71,0,0,1-68.21-72.34,17.79,17.79,0,0,1-1.34-7.3,16.76,16.76,0,0,1,4.86-11.74L216,203.31a11.32,11.32,0,0,1,16,0l14.1,14.11A6.39,6.39,0,0,1,248,222v1.06a6.44,6.44,0,0,1-3.58,5.79A22.34,22.34,0,0,0,232,248.94V250a22.34,22.34,0,0,0,6.58,15.89l7.52,7.52A22.31,22.31,0,0,0,262,280h1.06a22.34,22.34,0,0,0,20.09-12.42,6.45,6.45,0,0,1,5.79-3.58H290a6.42,6.42,0,0,1,4.58,1.9L308.69,280a11.32,11.32,0,0,1,0,16Z" transform="translate(-8 -8)"/><path d="M480,256a79.48,79.48,0,0,0-23.43-56.57l-11.31,11.31a64,64,0,0,1,0,90.52l11.31,11.31A79.48,79.48,0,0,0,480,256Z" transform="translate(-8 -8)"/><path d="M433.94,289.94a48,48,0,0,0,0-67.88l-11.31,11.32a32,32,0,0,1,0,45.25Z" transform="translate(-8 -8)"/><path d="M32,256a79.48,79.48,0,0,0,23.43,56.57l11.31-11.31a64,64,0,0,1,0-90.52L55.43,199.43A79.48,79.48,0,0,0,32,256Z" transform="translate(-8 -8)"/><path d="M78.06,222.06a48,48,0,0,0,0,67.88l11.31-11.32a32,32,0,0,1,0-45.25Z" transform="translate(-8 -8)"/><path d="M79,447l11.32,11.31a8.19,8.19,0,0,1,11.31,0L113,447C103.9,438,88.1,438,79,447Z" transform="translate(-8 -8)"/><path d="M56.4,424.4l11.31,11.31a40.06,40.06,0,0,1,56.57,0l11.31-11.31A56.06,56.06,0,0,0,56.4,424.4Z" transform="translate(-8 -8)"/><path d="M33.78,401.78l11.31,11.31a72.09,72.09,0,0,1,101.83,0l11.31-11.31A88.08,88.08,0,0,0,33.78,401.78Z" transform="translate(-8 -8)"/><path d="M400,376h72v16H400Z" transform="translate(-8 -8)"/><path d="M456,408h16v16H456Z" transform="translate(-8 -8)"/><path d="M400,408h40v16H400Z" transform="translate(-8 -8)"/><path d="M480,344H391.36a55.58,55.58,0,0,0,.64-8V180.58a88,88,0,1,0-58.47-115A229.15,229.15,0,0,1,328,16V8H184v8a229.15,229.15,0,0,1-5.53,49.58,88.15,88.15,0,1,0-58.47,115V331.42a88,88,0,1,0,58.47,115A229.15,229.15,0,0,1,184,496v8H328v-8a228.45,228.45,0,0,1,3.56-40H360v11.72a20.28,20.28,0,0,0,31.53,16.87L434.42,456H480a24,24,0,0,0,24-24V368a24,24,0,0,0-24-24ZM344,96a72.25,72.25,0,1,1,46.48,67.25,56.12,56.12,0,0,0-35.92-40l-2.36-4.72c-3-5.94-5.59-12.06-8-18.25C344.08,98.85,344,97.43,344,96Zm-8,280H176a40,40,0,0,1-40-40V176a40,40,0,0,1,40-40H336a40,40,0,0,1,40,40V336A40,40,0,0,1,336,376ZM199.86,24H312.13a246.53,246.53,0,0,0,23.11,96H176.75a246.53,246.53,0,0,0,23.11-96ZM24,96a72,72,0,0,1,144,0c0,1.44-.09,2.86-.17,4.28-2.44,6.18-5.05,12.29-8,18.23l-2.36,4.72a56.14,56.14,0,0,0-35.92,40A71.84,71.84,0,0,1,24,96ZM168,416a72.28,72.28,0,1,1-46.48-67.24,56.14,56.14,0,0,0,35.92,40l2.36,4.72c3,5.94,5.59,12.06,8,18.24C167.92,413.15,168,414.57,168,416Zm31.86,72a246.53,246.53,0,0,0-23.11-96H335.24a246.53,246.53,0,0,0-23.11,96ZM488,432a8,8,0,0,1-8,8H429.58l-46.92,31.28a4.43,4.43,0,0,1-6.66-3.56V440H335.06a228.6,228.6,0,0,1,17.14-46.5l2.36-4.72a56.23,56.23,0,0,0,32-28.77H480a8,8,0,0,1,8,8Z" transform="translate(-8 -8)"/><path d="M216,408h16v16H216Z" transform="translate(-8 -8)"/><path d="M280,408h16v16H280Z" transform="translate(-8 -8)"/><path d="M248,408h16v16H248Z" transform="translate(-8 -8)"/><path d="M248,88h16v16H248Z" transform="translate(-8 -8)"/><path d="M280,88h16v16H280Z" transform="translate(-8 -8)"/><path d="M216,88h16v16H216Z" transform="translate(-8 -8)"/></svg>