<?xml version="1.0" encoding="utf-8"?>
<!-- Generator: Adobe Illustrator 23.0.6, SVG Export Plug-In . SVG Version: 6.00 Build 0)  -->
<svg version="1.1" id="Layer_5" xmlns="http://www.w3.org/2000/svg" xmlns:xlink="http://www.w3.org/1999/xlink" x="0px" y="0px"
	 viewBox="0 0 512 512" style="enable-background:new 0 0 512 512;" xml:space="preserve">
<style type="text/css">
	.st0{fill:#64B2CD;}
</style>
<path class="st0" d="M360,136H168c-8.8,0-16-7.2-16-16V56c0-8.8,7.2-16,16-16h192c8.8,0,16,7.2,16,16v64
	C376,128.8,368.8,136,360,136z"/>
<path d="M184,384v-32c0-10.4-6.7-19.2-16-22.5V304c0-22.1-17.9-40-40-40s-40,17.9-40,40v25.5c-9.3,3.3-16,12.1-16,22.5v32
	c0,30.9,25.1,56,56,56S184,414.9,184,384z M128,280c13.2,0,24,10.8,24,24v24h-48v-24C104,290.8,114.8,280,128,280z M88,384v-32
	c0-4.4,3.6-8,8-8h64c4.4,0,8,3.6,8,8v32c0,22.1-17.9,40-40,40S88,406.1,88,384z"/>
<path d="M136,416v-17.5c9.3-3.3,16-12.1,16-22.5c0-13.2-10.8-24-24-24s-24,10.8-24,24c0,10.4,6.7,19.2,16,22.5V416H136z M128,368
	c4.4,0,8,3.6,8,8s-3.6,8-8,8s-8-3.6-8-8S123.6,368,128,368z"/>
<path d="M408,441.5V272h-16v168H209.3c23.7-21.9,38.7-53.2,38.7-88c0-63.5-49.6-115.4-112-119.6V24h256v216h16V8H120v224.4
	C57.6,236.6,8,288.5,8,352c0,58,41.3,106.4,96,117.6V480c0,13.2,10.8,24,24,24h272c13.2,0,24-10.8,24-24v-16
	C424,453.6,417.3,444.8,408,441.5z M24,352c0-57.3,46.7-104,104-104s104,46.7,104,104s-46.7,104-104,104S24,409.3,24,352z M408,480
	c0,4.4-3.6,8-8,8H128c-4.4,0-8-3.6-8-8v-8.4c2.7,0.2,5.3,0.4,8,0.4c21.7,0,42-5.9,59.6-16H400c4.4,0,8,3.6,8,8V480z"/>
<path d="M388.2,274.7l-14.7-6.2c-5,11.9-16.6,19.5-29.5,19.5c-17.6,0-32-14.4-32-32s14.4-32,32-32c12.7,0,24.2,7.5,29.3,19.2
	l14.7-6.4c-7.6-17.5-24.9-28.8-44-28.8c-26.5,0-48,21.5-48,48s21.5,48,48,48C363.3,304,380.7,292.5,388.2,274.7z"/>
<path d="M56,232c0-8.8,7.2-16,16-16v-16c-17.6,0-32,14.4-32,32H56z"/>
<path d="M72,184v-16c-35.3,0-64,28.7-64,64h16C24,205.5,45.5,184,72,184z"/>
<path d="M152,216h16v16h-16V216z"/>
<path d="M152,184h16v16h-16V184z"/>
<path d="M152,152h16v16h-16V152z"/>
<path d="M360,376h16v16h-16V376z"/>
<path d="M360,408h16v16h-16V408z"/>
<path d="M360,344h16v16h-16V344z"/>
<path class="st0" d="M480,280H352c-13.2,0-24-10.8-24-24s10.8-24,24-24h128c13.2,0,24,10.8,24,24S493.2,280,480,280z"/>
</svg>
