<svg id="Layer_5" data-name="Layer 5" xmlns="http://www.w3.org/2000/svg" viewBox="0 0 496 496"><defs><style>.cls-1{fill:#64b2cd;}</style></defs><title>speaker</title><path class="cls-1" d="M152,144c-29.94,0-57.54-4.61-80-12.32V296c0,22,41.47,32,80,32s80-10,80-32V131.68C209.54,139.39,181.94,144,152,144Z" transform="translate(-8 -8)"/><path class="cls-1" d="M288,200H496V440H288Z" transform="translate(-8 -8)"/><path d="M152,120c68.46,0,108.57-24.33,111.8-37.95l.42-1.8-.4-1.8C260.73,64.65,220.71,40,152,40,83.54,40,43.42,64.33,40.2,77.94l-.42,1.8.4,1.8C43.27,95.34,83.29,120,152,120ZM128,67.31,140.69,80,128,92.69,115.31,80Zm-24,1.38-6.41-6.41c5-1.25,10.31-2.38,16.15-3.32ZM113.64,101c-5.74-1-11-2.09-15.93-3.33L104,91.31Zm26,2.72L152,91.31l12.37,12.37c-4,.19-8.08.32-12.37.32S143.63,103.86,139.64,103.67ZM188.69,80,176,92.69,163.31,80,176,67.31Zm1.67-21c5.74,1,11,2.09,15.94,3.33L200,68.69ZM200,91.31l6.41,6.41C201.46,99,196.1,100.1,190.26,101Zm23.64,1L211.31,80l12.18-12.18c11.41,4.4,19,9.1,22.65,12.32C242.47,83.36,235,88,223.64,92.33Zm-59.28-36L152,68.69,139.63,56.32c4-.19,8.08-.32,12.37-.32S160.37,56.14,164.36,56.33Zm-84,11.33L92.69,80,80.51,92.18c-11.42-4.4-19-9.11-22.66-12.32C61.53,76.63,69,72,80.35,67.66Z" transform="translate(-8 -8)"/><path d="M152,264a48,48,0,1,0-48-48A48.05,48.05,0,0,0,152,264Zm-8-78.86V232h16V185.14a32,32,0,1,1-16,0Z" transform="translate(-8 -8)"/><path d="M168,280h16v16H168Z" transform="translate(-8 -8)"/><path d="M120,280h16v16H120Z" transform="translate(-8 -8)"/><path d="M464,136H320a39.58,39.58,0,0,0-24,8.21V80c0-40.38-63.26-72-144-72S8,39.62,8,80V432c0,40.38,63.26,72,144,72,56.58,0,104.46-15.55,128.13-38.74A40,40,0,0,0,320,504H464a40,40,0,0,0,40-40V176A40,40,0,0,0,464,136ZM320,152H464a24,24,0,0,1,24,24V312H435.06l-10.24,20.49-33-82.39L351.6,354.76,333.27,312H296V176A24,24,0,0,1,320,152ZM24,376H44.69L24,396.69Zm224,52.69L227.31,408,248,387.31,268.69,408Zm32-32L259.31,376H280ZM236.69,376,216,396.69,195.31,376ZM184,428.69,163.31,408,184,387.31,204.69,408ZM172.69,376,152,396.69,131.31,376ZM120,428.69,99.31,408,120,387.31,140.69,408ZM108.69,376,88,396.69,67.31,376ZM56,428.69,35.31,408,56,387.31,76.69,408ZM25.61,440A23.51,23.51,0,0,1,24,432V419.31L44.69,440ZM88,419.31,108.69,440H67.31Zm64,0L172.69,440H131.31Zm64,0L236.69,440H195.31Zm64,0V432a23.51,23.51,0,0,1-1.61,8H259.31ZM152,24c76.57,0,128,29,128,56s-51.43,56-128,56S24,107.05,24,80,75.43,24,152,24Zm0,128c56.47,0,104.3-15.5,128-38.61V360H24V113.39C47.7,136.5,95.53,152,152,152ZM37.25,456h229.5c-19.94,17.79-61.14,32-114.75,32S57.19,473.79,37.25,456ZM464,488H320a24,24,0,0,1-24-24V328h26.73l29.67,69.24L392.14,293.9l31,77.6L444.94,328H488V464A24,24,0,0,1,464,488Z" transform="translate(-8 -8)"/><path d="M384,168h16v16H384Z" transform="translate(-8 -8)"/><path d="M416,168h16v16H416Z" transform="translate(-8 -8)"/><path d="M352,168h16v16H352Z" transform="translate(-8 -8)"/><path d="M360,456h64v16H360Z" transform="translate(-8 -8)"/><path d="M368,96a24,24,0,1,0,24-24A24,24,0,0,0,368,96Zm32,0a8,8,0,1,1-8-8A8,8,0,0,1,400,96Z" transform="translate(-8 -8)"/><path d="M431.6,56.41a56,56,0,0,0-79.2,0l11.31,11.31a40,40,0,0,1,56.58,0Z" transform="translate(-8 -8)"/><path d="M442.91,45.09l11.31-11.31a88.08,88.08,0,0,0-124.45,0l11.31,11.31a72.08,72.08,0,0,1,101.83,0Z" transform="translate(-8 -8)"/><path d="M344,232h16v16H344Z" transform="translate(-8 -8)"/><path d="M312,232h16v16H312Z" transform="translate(-8 -8)"/><path d="M376,232h16v16H376Z" transform="translate(-8 -8)"/><path d="M456,392h16v16H456Z" transform="translate(-8 -8)"/><path d="M392,392h16v16H392Z" transform="translate(-8 -8)"/><path d="M424,392h16v16H424Z" transform="translate(-8 -8)"/></svg>