<?xml version="1.0" encoding="utf-8"?>
<!-- Generator: Adobe Illustrator 23.0.6, SVG Export Plug-In . SVG Version: 6.00 Build 0)  -->
<svg version="1.1" id="Layer_5" xmlns="http://www.w3.org/2000/svg" xmlns:xlink="http://www.w3.org/1999/xlink" x="0px" y="0px"
	 viewBox="0 0 512 512" style="enable-background:new 0 0 512 512;" xml:space="preserve">
<style type="text/css">
	.st0{fill:#64B2CD;}
</style>
<path class="st0" d="M16,248h192v192H16V248z"/>
<path d="M104,414.1v-53.5l-27,21.6l-10-12.5L99.2,344L67,318.2l10-12.5l27,21.6v-53.5l62,37.2L124.8,344l41.2,32.9L104,414.1z
	 M120,360.6v25.2l18-10.8L120,360.6z M120,302.1v25.2l18-14.4L120,302.1z"/>
<path d="M80,456h64v16H80V456z"/>
<path d="M144,104h-16c0-22.1,17.9-40,40-40v16C154.8,80,144,90.8,144,104z"/>
<path d="M112,104H96c0-39.7,32.3-72,72-72v16C137.1,48,112,73.1,112,104z"/>
<path d="M432,392v16c22.1,0,40-17.9,40-40h-16C456,381.2,445.2,392,432,392z"/>
<path d="M488,368c0,30.9-25.1,56-56,56v16c39.7,0,72-32.3,72-72H488z"/>
<path d="M136,216h16v16h-16V216z"/>
<path d="M72,216h16v16H72V216z"/>
<path d="M104,216h16v16h-16V216z"/>
<path d="M469.4,159.2l-14.4,7c10.1,20.7,15.7,42.8,16.8,65.7h-50.8l10.2-20.4l-14.3-7.2L403.1,232h-27.3c-0.5-28.2-3.3-55.5-8.4-80
	h5.9v-16H260.8c11-39.9,27.6-64,43.2-64c16.2,0,32.3,2.3,47.7,6.9l4.5-15.3c-16.9-5-34.5-7.5-52.2-7.5c-79.9,0-151,52.4-175.2,128
	H48c-22.1,0-40,17.9-40,40v240c0,22.1,17.9,40,40,40h128c22.1,0,40-17.9,40-40v-62.4c26.9,14.7,57,22.4,88,22.4
	c101.5,0,184-82.5,184-184C488,211.7,481.7,184.5,469.4,159.2z M375.8,248h19.3l-20.4,40.7c-0.4-0.1-0.9-0.1-1.3-0.2
	C374.7,275.4,375.5,261.8,375.8,248z M368,304c8.8,0,16,7.2,16,16s-7.2,16-16,16s-16-7.2-16-16S359.2,304,368,304z M337.1,328h-80.3
	c-3.1-14.3-5.5-30.1-7-47.2l19.1-15.3c5.3,4,11.9,6.5,19.1,6.5c5.9,0,11.4-1.7,16.2-4.5l36.4,36.4c-2.8,4.8-4.5,10.2-4.5,16.2
	C336,322.8,336.5,325.4,337.1,328z M248.5,261.3c-0.2-4.4-0.3-8.8-0.4-13.3h9c0.5,1.7,1,3.4,1.7,5.1L248.5,261.3z M272,240
	c0-8.8,7.2-16,16-16s16,7.2,16,16s-7.2,16-16,16S272,248.8,272,240z M315.5,256.2c1.5-2.5,2.6-5.2,3.4-8.2h40.9
	c-0.2,14.3-1.1,28.4-2.6,42c-1.9,0.7-3.7,1.5-5.4,2.5L315.5,256.2z M351.1,152c5.2,24.3,8.2,51.6,8.7,80h-40.9
	c-3.6-13.8-16-24-30.9-24s-27.3,10.2-30.9,24h-9c0.5-30,3.7-57,8.7-80H351.1z M271.4,75.4c-10.8,13.4-20.4,33.8-27.5,60.6h-71.7
	C196.8,105,232,83.2,271.4,75.4z M161,152h79.2c-4.7,22.8-7.6,49.5-8,80H216v-8c0-22.1-17.9-40-40-40h-30.4
	C149.6,172.7,154.9,162,161,152z M216,248h16.2c0.1,8.9,0.5,17.4,1,25.6L216,287.4V248z M216,307.8l18.8-15
	c1.3,12.6,3.1,24.3,5.4,35.2H216V307.8z M200,464c0,13.2-10.8,24-24,24H48c-13.2,0-24-10.8-24-24V224c0-13.2,10.8-24,24-24h128
	c13.2,0,24,10.8,24,24V464z M216,383v-39h27.8c7,26.9,16.7,47.3,27.5,60.7C251.8,400.9,233.1,393.5,216,383z M304,408
	c-15.6,0-32.2-24.1-43.3-64h86.3c0.1,0.1,0.1,0.1,0.2,0.2C336.5,383.1,319.7,408,304,408z M337,404.7c9.8-12.4,18.2-30.4,24.8-53.3
	c2,0.4,4,0.6,6.1,0.6c8,0,15.3-3.1,20.9-8h46.7C411.4,374.7,376.8,396.7,337,404.7L337,404.7z M446.8,328h-48c0.7-2.6,1.1-5.2,1.1-8
	c0-9.6-4.3-18.1-11.1-24l24-48h58.6C470.2,277.2,461.4,304.5,446.8,328z"/>
<path class="st0" d="M424,8c-44.1,0-80,35.9-80,80v2.2c0,15.8,4.6,31.2,13.4,44.4l47.5,71.2c4.3,6.4,11.4,10.2,19.1,10.2
	s14.8-3.8,19.1-10.2l47.5-71.2c8.8-13.2,13.4-28.5,13.4-44.4V88C504,43.9,468.1,8,424,8z M424,128c-22.1,0-40-17.9-40-40
	s17.9-40,40-40s40,17.9,40,40S446.1,128,424,128z"/>
<path d="M424,136c-26.5,0-48-21.5-48-48s21.5-48,48-48s48,21.5,48,48S450.5,136,424,136z M424,56c-17.6,0-32,14.4-32,32
	s14.4,32,32,32s32-14.4,32-32S441.6,56,424,56z"/>
</svg>
