<?xml version="1.0" encoding="utf-8"?>
<!-- Generator: Adobe Illustrator 23.0.6, SVG Export Plug-In . SVG Version: 6.00 Build 0)  -->
<svg version="1.1" id="Layer_5" xmlns="http://www.w3.org/2000/svg" xmlns:xlink="http://www.w3.org/1999/xlink" x="0px" y="0px"
	 viewBox="0 0 512 512" style="enable-background:new 0 0 512 512;" xml:space="preserve">
<style type="text/css">
	.st0{fill:#64B2CD;}
</style>
<g>
	<path class="st0" d="M128,280c-30.9,0-56-25.1-56-56s25.1-56,56-56s56,25.1,56,56S158.9,280,128,280z M128,208c-8.8,0-16,7.2-16,16
		s7.2,16,16,16s16-7.2,16-16S136.8,208,128,208z"/>
	<path class="st0" d="M296,160h-16c-4.4,0-8-3.6-8-8V88c0-4.4,3.6-8,8-8h16c4.4,0,8,3.6,8,8v64C304,156.4,300.4,160,296,160z"/>
	<path class="st0" d="M408,160h-16c-4.4,0-8-3.6-8-8V88c0-4.4,3.6-8,8-8h16c4.4,0,8,3.6,8,8v64C416,156.4,412.4,160,408,160z"/>
	<path class="st0" d="M296,384h-16c-4.4,0-8-3.6-8-8v-64c0-4.4,3.6-8,8-8h16c4.4,0,8,3.6,8,8v64C304,380.4,300.4,384,296,384z"/>
	<path class="st0" d="M408,384h-16c-4.4,0-8-3.6-8-8v-64c0-4.4,3.6-8,8-8h16c4.4,0,8,3.6,8,8v64C416,380.4,412.4,384,408,384z"/>
	<path class="st0" d="M352,208h-16c-4.4,0-8-3.6-8-8v-8c0-8.8,7.2-16,16-16s16,7.2,16,16v8C360,204.4,356.4,208,352,208z"/>
	<path class="st0" d="M352,432h-16c-4.4,0-8-3.6-8-8v-8c0-8.8,7.2-16,16-16s16,7.2,16,16v8C360,428.4,356.4,432,352,432z"/>
</g>
<path d="M128,200c-13.2,0-24,10.8-24,24s10.8,24,24,24s24-10.8,24-24S141.2,200,128,200z M128,232c-4.4,0-8-3.6-8-8s3.6-8,8-8
	c4.4,0,8,3.6,8,8S132.4,232,128,232z"/>
<path d="M464,8H224c-16.1,0-30,9.7-36.3,23.5C153.2-0.4,99.3,0.3,65.8,33.8l11.3,11.3c28.1-28.1,73.8-28.1,101.8,0l6.2-6.2
	c-0.7,3-1.2,6-1.2,9.2v88H48c-22.1,0-40,17.9-40,40v288c0,22.1,17.9,40,40,40h144h16h256c22.1,0,40-17.9,40-40V48
	C504,25.9,486.1,8,464,8z M192,488H48c-13.2,0-24-10.8-24-24V176c0-13.2,10.8-24,24-24h160c13.2,0,24,10.8,24,24v288
	c0,13.2-10.8,24-24,24H192z M248,280h208v176H248V280z M232,144.2V56h224v176H248v-56C248,163,241.7,151.5,232,144.2L232,144.2z
	 M488,464c0,13.2-10.8,24-24,24H239.8c3.5-4.7,6.2-10.1,7.4-16H456c8.8,0,16-7.2,16-16V280c0-8.8-7.2-16-16-16H248v-16h208
	c8.8,0,16-7.2,16-16V56c0-8.8-7.2-16-16-16H232c-8.8,0-16,7.2-16,16v80.8c-2.6-0.5-5.3-0.8-8-0.8h-8V48c0-13.2,10.8-24,24-24h240
	c13.2,0,24,10.8,24,24V464z"/>
<path d="M104,96c0,13.2,10.8,24,24,24s24-10.8,24-24s-10.8-24-24-24S104,82.8,104,96z M136,96c0,4.4-3.6,8-8,8s-8-3.6-8-8s3.6-8,8-8
	C132.4,88,136,91.6,136,96z"/>
<path d="M167.6,56.4c-21.8-21.8-57.4-21.8-79.2,0l11.3,11.3c15.6-15.6,41-15.6,56.6,0L167.6,56.4z"/>
<path d="M136,296h-16c-8.8,0-16,7.2-16,16v80c0,8.8,7.2,16,16,16h16c8.8,0,16-7.2,16-16v-80C152,303.2,144.8,296,136,296z M136,312
	v16h-16v-16H136z M136,344v16h-16v-16H136z M120,392v-16h16v16H120z"/>
<path d="M40,456h16v16H40V456z"/>
<path d="M72,456h16v16H72V456z"/>
<path d="M104,456h16v16h-16V456z"/>
<path d="M40,424h80v16H40V424z"/>
</svg>
