<svg id="Layer_5" enable-background="new 0 0 64 64" height="512" viewBox="0 0 64 64" width="512" xmlns="http://www.w3.org/2000/svg"><g fill="#f0bc5e"><path d="m41 23c-3.859 0-7-3.14-7-7s3.141-7 7-7 7 3.14 7 7-3.141 7-7 7zm0-9c-1.103 0-2 .897-2 2s.897 2 2 2 2-.897 2-2-.897-2-2-2z"/><path d="m16 22h12v8h-12z"/><path d="m11 38h5v20h-5z"/></g><path d="m41 19c1.654 0 3-1.346 3-3s-1.346-3-3-3-3 1.346-3 3 1.346 3 3 3zm0-4c.552 0 1 .449 1 1s-.448 1-1 1-1-.449-1-1 .448-1 1-1z"/><circle cx="34" cy="9" r="1"/><circle cx="48" cy="9" r="1"/><circle cx="34" cy="23" r="1"/><circle cx="48" cy="23" r="1"/><path d="m26 9h-8c-1.103 0-2 .897-2 2v6c0 1.103.897 2 2 2h8c1.103 0 2-.897 2-2v-6c0-1.103-.897-2-2-2zm-8 8v-6h8l.001 6z"/><path d="m16 21h12v2h-12z"/><path d="m16 25h12v2h-12z"/><path d="m16 29h12v2h-12z"/><path d="m38 29h2v2h-2z"/><path d="m42 29h2v2h-2z"/><path d="m46 29h2v2h-2z"/><path d="m59.172 31c-1.023 0-1.984.398-2.707 1.122l-.879.878h-4.612c.635-.838 1.026-1.87 1.026-3v-20c0-2.757-2.243-5-5-5h-13v-1c0-1.654-1.346-3-3-3h-12c-1.654 0-3 1.346-3 3v1.101c-2.279.465-4 2.485-4 4.899v20c0 2.757 2.243 5 5 5h5v2.935c-.508.293-.985.645-1.414 1.065h-3.586v-2h-16v22h16v-2h3.764l2.522 1.261c.966.483 2.049.739 3.13.739h.584v4h10v-4h1c1.654 0 3-1.346 3-3 0-.771-.301-1.468-.78-2 .48-.532.78-1.229.78-2s-.301-1.468-.78-2c.48-.532.78-1.229.78-2s-.301-1.468-.78-2c.48-.532.78-1.229.78-2 0-1.654-1.346-3-3-3h1c1.302 0 2.402-.839 2.816-2h13.77l.879.879c.723.723 1.684 1.121 2.707 1.121 2.11 0 3.828-1.718 3.828-3.828v-2.344c0-2.111-1.718-3.828-3.828-3.828zm-9.172-21v15h-15c-1.654 0-3-1.346-3-3v-15h15c1.654 0 3 1.346 3 3zm-31-7h12c.552 0 1 .449 1 1v1h-14v-1c0-.551.448-1 1-1zm-5 27v-20c0-1.654 1.346-3 3-3h13v15c0 2.757 2.243 5 5 5h15v3c0 1.654-1.346 3-3 3h-6-24c-1.654 0-3-1.346-3-3zm1 27h-12v-18h12zm11.416 0c-.772 0-1.545-.183-2.235-.528l-2.945-1.472h-4.236v-14h4.414l.535-.535c.944-.944 2.2-1.465 3.536-1.465h10.515c0 1.103-.897 2-2 2h-7.414l-.535.535c-.945.944-2.2 1.465-3.536 1.465h-1.515v2h1.515c1.659 0 3.228-.578 4.485-1.632v13.632zm12.584-9c0 .552-.448 1-1 1h-4c-.552 0-1-.448-1-1s.448-1 1-1h4c.552 0 1 .448 1 1zm0 4c0 .552-.448 1-1 1h-4c-.552 0-1-.448-1-1s.448-1 1-1h4c.552 0 1 .448 1 1zm-4 9h-6v-18h2.184c-.112.314-.184.648-.184 1 0 .771.301 1.468.78 2-.48.532-.78 1.229-.78 2s.301 1.468.78 2c-.48.532-.78 1.229-.78 2s.301 1.468.78 2c-.48.532-.78 1.229-.78 2 0 1.654 1.346 3 3 3h1zm3-4h-4c-.552 0-1-.448-1-1s.448-1 1-1h4c.552 0 1 .448 1 1s-.448 1-1 1zm1-13c0 .552-.448 1-1 1h-4c-.552 0-1-.448-1-1s.448-1 1-1h4c.552 0 1 .448 1 1zm0-5h-1c0-1.103-.897-2-2-2h-10.515c-.506 0-1.002.058-1.485.162v-2.162h16v3c0 .552-.448 1-1 1zm22-1.828c0 1.008-.82 1.828-1.828 1.828-.481 0-.953-.195-1.293-.535l-1.465-1.465h-14.414v-2h5 9.414l1.465-1.465c.341-.34.811-.535 1.293-.535 1.008 0 1.828.82 1.828 1.828z"/></svg>