<svg id="Layer_5" enable-background="new 0 0 64 64" height="512" viewBox="0 0 64 64" width="512" xmlns="http://www.w3.org/2000/svg"><g fill="#f0bc5e"><path d="m32 25c1.682 0 3-1.757 3-4s-1.318-4-3-4-3 1.757-3 4 1.318 4 3 4z"/><path d="m25 28c1.682 0 3-1.757 3-4s-1.318-4-3-4-3 1.757-3 4 1.318 4 3 4z"/><path d="m39 28c1.682 0 3-1.757 3-4s-1.318-4-3-4-3 1.757-3 4 1.318 4 3 4z"/><path d="m32.671 27h-1.342c-4.694 0-8.586 3.522-9.054 8.193-.097.972.224 1.944.878 2.668.849.938 2.204 1.402 3.423 1.001l.26-.13c.026-.017 2.528-1.732 5.164-1.732s5.138 1.715 5.163 1.732l.26.13c.279.092.567.138.856.138.976 0 1.912-.415 2.567-1.139s.975-1.696.878-2.668c-.467-4.671-4.359-8.193-9.053-8.193z"/><path d="m8 58c0 2.209 1.791 4 4 4h40c2.209 0 4-1.791 4-4v-1h-48z"/></g><path d="m60 1h-56c-1.654 0-3 1.346-3 3v2c0 1.302.839 2.402 2 2.816v35.184c0 2.414 1.721 4.434 4 4.899v9.101c0 2.757 2.243 5 5 5h40c2.757 0 5-2.243 5-5v-9.101c2.279-.465 4-2.484 4-4.899v-35.184c1.161-.414 2-1.514 2-2.816v-2c0-1.654-1.346-3-3-3zm-5 57c0 1.654-1.346 3-3 3h-40c-1.654 0-3-1.346-3-3v-10c0-1.302.839-2.402 2-2.816v4.816c0 2.757 2.243 5 5 5h32c2.757 0 5-2.243 5-5v-4.816c1.161.414 2 1.514 2 2.816zm-11-15h-24v-23c0-2.757 2.243-5 5-5h14c2.757 0 5 2.243 5 5zm7 2v5c0 1.654-1.346 3-3 3h-32c-1.654 0-3-1.346-3-3v-5zm5.857 1.86c-.519-2.207-2.494-3.86-4.857-3.86h-6v-23c0-3.859-3.14-7-7-7h-14c-3.86 0-7 3.141-7 7v23h-6c-2.363 0-4.338 1.653-4.857 3.86-1.235-.371-2.143-1.505-2.143-2.86v-35h54v35c0 1.355-.908 2.489-2.143 2.86zm4.143-40.86c0 .552-.449 1-1 1h-56c-.551 0-1-.448-1-1v-2c0-.552.449-1 1-1h56c.551 0 1 .448 1 1z"/><path d="m7 15h2v2h-2z"/><path d="m7 11h2v2h-2z"/><path d="m7 19h2v12h-2z"/><path d="m55 31h2v2h-2z"/><path d="m55 35h2v2h-2z"/><path d="m55 39h2v2h-2z"/></svg>