<svg id="Layer_5" enable-background="new 0 0 64 64" height="512" viewBox="0 0 64 64" width="512" xmlns="http://www.w3.org/2000/svg"><path d="m15.568 39.283-.269 5.112c2.732.955 4.701 3.551 4.701 6.605 0 3.86-3.14 7-7 7s-7-3.14-7-7c0-3.273 2.261-6.02 5.301-6.783l.27-5.124c-5.945.71-10.571 5.774-10.571 11.907 0 6.617 5.383 12 12 12s12-5.383 12-12c0-5.735-4.046-10.537-9.432-11.717z" fill="#f0bc5e"/><path d="m51 63c-6.617 0-12-5.383-12-12s5.383-12 12-12 12 5.383 12 12-5.383 12-12 12zm0-19c-3.86 0-7 3.14-7 7s3.14 7 7 7 7-3.14 7-7-3.14-7-7-7z" fill="#f0bc5e"/><path d="m43 26c1.446 0 2.703-.778 3.406-1.93 1.45.6 3.014.93 4.594.93 6.617 0 12-5.383 12-12s-5.383-12-12-12-12 5.383-12 12c0 1.74.374 3.44 1.09 5h-.848c-1.053 0-2.084.427-2.828 1.172l-.828.828h-3.586c-1.654 0-3 1.346-3 3s1.346 3 3 3h3.574l-.533 2h-17.878l.684-13h2.153v2h2v-2h5c.882 0 1.716-.387 2.288-1.062.571-.673.815-1.562.67-2.44-.234-1.424-1.555-2.498-3.071-2.498h-4.887v-2h-2v2h-3.104c-2.66 0-4.854 2.081-4.993 4.737l-.171 3.263h-10.732v5c0 2.757 2.243 5 5 5h5.206l-.867 16.479c-3.157 1.12-5.339 4.144-5.339 7.521 0 4.411 3.589 8 8 8s8-3.589 8-8c0-3.133-1.875-5.969-4.666-7.259l.395-7.506 12.937 13.746.729-.686.966.258 6.282-23.553h2.048l-6.275 23.53 1.932.516 4.23-15.863 7.334 9.953c-2.066 1.235-3.529 3.37-3.842 5.864h-7.608v2h7.608c.495 3.94 3.859 7 7.931 7 4.411 0 8-3.589 8-8s-3.589-8-8-8c-.767 0-1.506.115-2.209.317l-8.553-11.609 1.521-5.708zm-21-15h4.887c.54 0 1.022.362 1.099.824.05.302-.029.593-.223.821-.192.226-.469.355-.763.355h-5zm-13 8h2.626l-.105 2h-2.521zm-2 6h-1c-1.302 0-2.402-.839-2.816-2h3.816zm0-4h-4v-2h4zm2 4v-2h2.416l-.105 2zm1.222 20.695-.136 2.584c-.465.492-.775 1.085-.942 1.721h-2.057c.316-1.839 1.49-3.438 3.135-4.305zm8.688 6.305c-.154.909-.51 1.749-1.025 2.471l-1.456-1.456c.188-.319.339-.656.431-1.015zm-3.881 2.443 1.442 1.442c-.722.515-1.562.871-2.471 1.025v-2.053c.359-.093.707-.224 1.029-.414zm-3.029 2.467c-.909-.154-1.749-.51-2.471-1.025l1.447-1.447c.318.19.661.332 1.024.425zm-2.861-4.91c.094.362.237.705.425 1.022l-1.449 1.449c-.515-.722-.871-1.562-1.025-2.471zm9.774-2h-2.054c-.145-.559-.397-1.084-.773-1.537l.132-2.507c1.411.908 2.408 2.374 2.695 4.044zm-3.063-35.105-1.783 33.885-.023.459.332.317c.402.384.624.897.624 1.444 0 .592-.26 1.149-.714 1.531-.459.387-1.046.543-1.654.437-.795-.138-1.469-.821-1.603-1.625-.118-.708.13-1.385.683-1.854l.327-.279 1.862-35.366c.083-1.596 1.399-2.844 2.995-2.844h3.104v2h-2.152c-1.064 0-1.942.832-1.998 1.895zm14.043 32.407-13.018-13.832.183-3.47h17.449zm21.107-2.302c3.309 0 6 2.691 6 6s-2.691 6-6 6c-2.967 0-5.431-2.167-5.91-5h2.052c.447 1.721 1.999 3 3.858 3 2.206 0 4-1.794 4-4 0-2.019-1.508-3.676-3.455-3.945l-1.458-1.978c.299-.046.602-.077.913-.077zm0 4c1.103 0 2 .897 2 2s-.897 2-2 2-2-.897-2-2 .897-2 2-2zm-1.692-1.611c-1.064.501-1.865 1.452-2.166 2.611h-2.052c.309-1.829 1.443-3.38 3.011-4.25zm1.692-44.389c5.514 0 10 4.486 10 10s-4.486 10-10 10c-1.386 0-2.756-.306-4.014-.858.001-.048.014-.093.014-.142 0-.347-.058-.678-.142-1h7.142c1.654 0 3-1.346 3-3v-4c0-1.302-.839-2.402-2-2.816v-2.184c0-2.206-1.794-4-4-4s-4 1.794-4 4v2.184c-1.161.414-2 1.514-2 2.816v4.556c-.591-.344-1.268-.556-2-.556h-.635c-.88-1.518-1.365-3.229-1.365-5 0-5.514 4.486-10 10-10zm3 10c.552 0 1 .448 1 1v4c0 .552-.448 1-1 1h-7v-5c0-.552.448-1 1-1zm-5-2v-2c0-1.103.897-2 2-2s2 .897 2 2v2zm-17 13c-.552 0-1-.448-1-1s.448-1 1-1h4.414l1.414-1.414c.372-.372.888-.586 1.414-.586h3.758c1.103 0 2 .897 2 2s-.897 2-2 2z"/><path d="m32 58c-2.757 0-5-2.243-5-5s2.243-5 5-5 5 2.243 5 5-2.243 5-5 5z" fill="#f0bc5e"/><path d="m33 61v-9h-2v9h-4v2h10v-2z"/></svg>