<svg id="Layer_5" enable-background="new 0 0 64 64" height="512" viewBox="0 0 64 64" width="512" xmlns="http://www.w3.org/2000/svg"><path d="m2 31h24v24h-24z" fill="#f0bc5e"/><path d="m13 51.767v-6.686l-3.375 2.7-1.249-1.562 4.023-3.219-4.024-3.219 1.249-1.562 3.375 2.7v-6.686l7.748 4.649-5.146 4.118 5.147 4.117zm2-6.686v3.152l2.252-1.351zm0-7.314v3.152l2.252-1.802z"/><path d="m10 57h8v2h-8z"/><path d="m18 13h-2c0-2.757 2.243-5 5-5v2c-1.654 0-3 1.346-3 3z"/><path d="m14 13h-2c0-4.962 4.038-9 9-9v2c-3.86 0-7 3.14-7 7z"/><path d="m54 49v2c2.757 0 5-2.243 5-5h-2c0 1.654-1.346 3-3 3z"/><path d="m61 46c0 3.859-3.14 7-7 7v2c4.962 0 9-4.037 9-9z"/><path d="m17 27h2v2h-2z"/><path d="m9 27h2v2h-2z"/><path d="m13 27h2v2h-2z"/><path d="m58.671 19.903-1.797.879c1.264 2.584 1.966 5.344 2.098 8.218h-6.354l1.276-2.553-1.789-.895-1.723 3.448h-3.408c-.057-3.529-.417-6.933-1.045-10h.738v-2h-14.068c1.378-4.991 3.451-8 5.401-8 2.03 0 4.036.289 5.964.859l.567-1.918c-2.112-.625-4.309-.941-6.531-.941-9.989 0-18.873 6.546-21.895 16h-10.105c-2.757 0-5 2.243-5 5v30c0 2.757 2.243 5 5 5h16c2.757 0 5-2.243 5-5v-7.801c3.362 1.834 7.129 2.801 11 2.801 12.682 0 23-10.317 23-23 0-3.542-.784-6.939-2.329-10.097zm-11.7 11.097h2.411l-2.546 5.091c-.053-.011-.109-.014-.163-.023.169-1.649.27-3.342.298-5.068zm-.971 7c1.103 0 2 .897 2 2s-.897 2-2 2-2-.897-2-2 .897-2 2-2zm-3.858 3h-10.042c-.387-1.782-.687-3.758-.874-5.9l2.387-1.909c.668.501 1.489.809 2.387.809.74 0 1.424-.215 2.019-.567l4.548 4.548c-.352.595-.567 1.279-.567 2.019 0 .347.058.678.142 1zm-11.078-8.332c-.024-.546-.037-1.105-.046-1.668h1.123c.057.218.124.431.215.634zm2.936-2.668c0-1.103.897-2 2-2s2 .897 2 2-.897 2-2 2-2-.897-2-2zm5.433 2.019c.186-.316.33-.656.425-1.019h5.113c-.03 1.792-.134 3.55-.321 5.251-.235.085-.457.191-.669.316zm4.456-13.019c.654 3.036 1.026 6.451 1.085 10h-5.116c-.447-1.72-2-3-3.858-3s-3.411 1.28-3.858 3h-1.123c.062-3.751.464-7.129 1.085-10zm-9.966-9.581c-1.352 1.678-2.555 4.223-3.434 7.581h-8.961c3.077-3.877 7.47-6.597 12.395-7.581zm-13.793 9.581h9.896c-.582 2.856-.951 6.186-1.006 10h-2.02v-1c0-2.757-2.243-5-5-5h-3.799c.505-1.414 1.156-2.751 1.929-4zm6.87 12h2.02c.016 1.109.058 2.176.123 3.205l-2.143 1.714zm0 7.481 2.346-1.877c.168 1.575.393 3.04.67 4.396h-3.016zm-2 19.519c0 1.654-1.346 3-3 3h-16c-1.654 0-3-1.346-3-3v-30c0-1.654 1.346-3 3-3h16c1.654 0 3 1.346 3 3zm2-10.13v-4.87h3.479c.881 3.36 2.084 5.915 3.439 7.591-2.445-.482-4.781-1.405-6.918-2.721zm11 3.13c-1.951 0-4.027-3.01-5.408-8h10.79c.009.008.018.015.027.022-1.348 4.867-3.441 7.978-5.409 7.978zm4.13-.413c1.219-1.545 2.278-3.795 3.104-6.665.249.049.504.078.766.078 1.005 0 1.914-.385 2.618-1h5.843c-3.034 3.833-7.363 6.592-12.331 7.587zm13.724-9.587h-5.996c.084-.322.142-.653.142-1 0-1.2-.542-2.266-1.382-3l3-6h7.331c-.173 3.656-1.279 7.064-3.095 10z"/><path d="m53 1c-5.514 0-10 4.486-10 10v.275c0 1.981.581 3.899 1.68 5.547l5.934 8.901c.532.799 1.425 1.277 2.386 1.277s1.854-.478 2.387-1.277l5.934-8.901c1.099-1.647 1.68-3.565 1.68-5.547v-.275c-.001-5.514-4.487-10-10.001-10zm0 15c-2.761 0-5-2.239-5-5s2.239-5 5-5 5 2.239 5 5-2.239 5-5 5z" fill="#f0bc5e"/><path d="m53 17c-3.309 0-6-2.691-6-6s2.691-6 6-6 6 2.691 6 6-2.691 6-6 6zm0-10c-2.206 0-4 1.794-4 4s1.794 4 4 4 4-1.794 4-4-1.794-4-4-4z"/></svg>