<svg id="Layer_5" enable-background="new 0 0 64 64" height="512" viewBox="0 0 64 64" width="512" xmlns="http://www.w3.org/2000/svg"><path d="m38 59c-7.168 0-13-5.832-13-13s5.832-13 13-13 13 5.832 13 13-5.832 13-13 13zm0-19c-3.308 0-6 2.692-6 6s2.692 6 6 6 6-2.692 6-6-2.692-6-6-6z" fill="#f0bc5e"/><path d="m10 1v19h1c1.105 0 2 .895 2 2v2h-1c1.202 0 2.271.537 3 1.379v-.022-19.357h34v16h5v-21z" fill="#f0bc5e"/><path d="m38 43c-1.654 0-3 1.346-3 3s1.346 3 3 3 3-1.346 3-3-1.346-3-3-3zm0 4c-.551 0-1-.449-1-1s.449-1 1-1 1 .449 1 1-.449 1-1 1z"/><path d="m38 39c-3.86 0-7 3.14-7 7s3.14 7 7 7 7-3.14 7-7-3.14-7-7-7zm0 12c-2.757 0-5-2.243-5-5s2.243-5 5-5 5 2.243 5 5-2.243 5-5 5z"/><path d="m58 25h-1v-1c0-1.654-1.346-3-3-3h-4v-16h-36v17c0-1.654-1.346-3-3-3h-4c-1.654 0-3 1.346-3 3v1.424c-1.763.774-3 2.531-3 4.576v30c0 2.757 2.243 5 5 5h10 1 41c2.757 0 5-2.243 5-5v-28c0-2.757-2.243-5-5-5zm-3-1v1h-8v-1c0-.551.449-1 1-1h6c.551 0 1 .449 1 1zm-7-17v14c-1.654 0-3 1.346-3 3v1h-4.279l-3.14-9.418c-.514-1.544-1.953-2.582-3.581-2.582-1.624 0-3.06 1.033-3.577 2.571l-.968-3.872c-.396-1.59-1.817-2.699-3.455-2.699s-3.059 1.109-3.455 2.698l-2.357 9.428c-1.258.357-2.188 1.503-2.188 2.874v1h-2v-18zm-27 16h6c.551 0 1 .449 1 1v1h-8v-1c0-.551.449-1 1-1zm6-2h-4.719l2.204-8.817c.174-.697.797-1.183 1.515-1.183s1.341.486 1.515 1.183l3.204 12.817h-.719v-1c0-1.654-1.346-3-3-3zm5.781 4-1.454-5.817.99-2.97c.241-.725.918-1.213 1.683-1.213s1.442.488 1.684 1.214l2.928 8.786zm-26.781-3c0-.551.449-1 1-1h4c.551 0 1 .449 1 1v1h-6zm9 39h-9c-1.654 0-3-1.346-3-3v-30c0-1.654 1.346-3 3-3h6c1.654 0 3 1.346 3 3zm38.448-7.945c.887.204 1.552.996 1.552 1.945 0 1.103-.897 2-2 2-.585 0-1.133-.264-1.508-.699.767-1.002 1.425-2.088 1.956-3.246zm-15.448 7.945c-8.271 0-15-6.729-15-15s6.729-15 15-15 15 6.729 15 15-6.729 15-15 15zm23-3c0 1.654-1.346 3-3 3h-12.017c1.566-.837 2.981-1.913 4.207-3.177.738.734 1.74 1.177 2.81 1.177 2.206 0 4-1.794 4-4 0-1.792-1.193-3.295-2.82-3.802.528-1.64.82-3.385.82-5.198 0-9.374-7.626-17-17-17s-17 7.626-17 17c0 6.489 3.658 12.136 9.017 15h-13.017v-33c0-.342-.035-.677-.101-1h41.101c1.654 0 3 1.346 3 3z"/><path d="m19 29h6v2h-6z"/><path d="m51 29h8v2h-8z"/><path d="m43 15c1.654 0 3-1.346 3-3s-1.346-3-3-3-3 1.346-3 3 1.346 3 3 3zm0-4c.551 0 1 .449 1 1s-.449 1-1 1-1-.449-1-1 .449-1 1-1z"/><path d="m5 53h2v2h-2z"/><path d="m5 57h2v2h-2z"/><path d="m5 49h2v2h-2z"/><path d="m7 27h2v2h-2z"/><path d="m11 27h2v2h-2z"/></svg>