<svg id="Layer_5" enable-background="new 0 0 64 64" height="512" viewBox="0 0 64 64" width="512" xmlns="http://www.w3.org/2000/svg"><path d="m52 9v1c0 1.657-1.343 3-3 3h-36v26h24.283c2.568-3.055 6.414-5 10.717-5 1.391 0 2.73.211 3.997.593z" fill="#f0bc5e"/><path d="m53 33.875v-27.875c0-2.757-2.243-5-5-5h-18c-2.757 0-5 2.243-5 5v3h-19c-2.757 0-5 2.243-5 5v24c0 2.757 2.243 5 5 5h27.875c-.556 1.567-.875 3.245-.875 5 0 8.271 6.729 15 15 15s15-6.729 15-15c0-6.516-4.183-12.059-10-14.125zm-26-27.875c0-1.654 1.346-3 3-3h18c1.654 0 3 1.346 3 3s-1.346 3-3 3h-21zm-24 32v-24c0-1.654 1.346-3 3-3h3v30h-3c-1.654 0-3-1.346-3-3zm8 3v-30h37c1.13 0 2.162-.391 3-1.026v23.328c-.97-.197-1.973-.302-3-.302-.338 0-.668.029-1 .051v-6.051h-8v8h1.548c-2.455 1.413-4.476 3.493-5.805 6zm30-8v-4h4v4zm7 2c7.168 0 13 5.832 13 13 0 2.752-.865 5.302-2.329 7.405-.878-3.573-3.52-6.47-6.926-7.725 1.373-1.1 2.255-2.788 2.255-4.68 0-3.309-2.691-6-6-6s-6 2.691-6 6c0 1.892.882 3.58 2.255 4.68-3.406 1.255-6.048 4.152-6.926 7.725-1.464-2.103-2.329-4.654-2.329-7.405 0-7.168 5.832-13 13-13zm-4 8c0-2.206 1.794-4 4-4s4 1.794 4 4-1.794 4-4 4-4-1.794-4-4zm-4.96 14.395c.315-4.665 4.242-8.395 8.96-8.395 4.717 0 8.644 3.73 8.96 8.395-2.334 2.227-5.486 3.605-8.96 3.605s-6.626-1.378-8.96-3.605z"/><path d="m5 21h2v2h-2z"/><path d="m5 25h2v2h-2z"/><path d="m5 29h2v2h-2z"/><path d="m19 35h8v-8h-8zm2-6h4v4h-4z"/><path d="m19 25h8v-8h-8zm2-6h4v4h-4z"/><path d="m29 35h8v-8h-8zm2-6h4v4h-4z"/><path d="m29 25h8v-8h-8zm2-6h4v4h-4z"/><path d="m47 17h-8v8h8zm-2 6h-4v-4h4z"/><path d="m37 5h2v2h-2z"/><path d="m29 5h2v2h-2z"/><path d="m33 5h2v2h-2z"/></svg>