<svg id="Layer_5" enable-background="new 0 0 64 64" height="512" viewBox="0 0 64 64" width="512" xmlns="http://www.w3.org/2000/svg"><path d="m45 17h-24c-1.103 0-2-.897-2-2v-8c0-1.103.897-2 2-2h24c1.103 0 2 .897 2 2v8c0 1.103-.897 2-2 2z" fill="#f0bc5e"/><path d="m23 48v-4c0-1.302-.839-2.402-2-2.816v-3.184c0-2.757-2.243-5-5-5s-5 2.243-5 5v3.184c-1.161.414-2 1.514-2 2.816v4c0 3.859 3.141 7 7 7s7-3.141 7-7zm-7-13c1.654 0 3 1.346 3 3v3h-6v-3c0-1.654 1.346-3 3-3zm-5 13v-4c0-.552.448-1 1-1h8c.552 0 1 .448 1 1v4c0 2.757-2.243 5-5 5s-5-2.243-5-5z"/><path d="m17 52v-2.184c1.161-.414 2-1.514 2-2.816 0-1.654-1.346-3-3-3s-3 1.346-3 3c0 1.302.839 2.402 2 2.816v2.184zm-1-6c.552 0 1 .448 1 1s-.448 1-1 1-1-.448-1-1 .448-1 1-1z"/><path d="m51 55.184v-21.184h-2v21h-22.836c2.965-2.742 4.836-6.652 4.836-11 0-7.934-6.195-14.431-14-14.949v-26.051h32v27h2v-29h-36v28.051c-7.805.518-14 7.015-14 14.949 0 7.244 5.161 13.304 12 14.698v1.302c0 1.654 1.346 3 3 3h34c1.654 0 3-1.346 3-3v-2c0-1.302-.839-2.402-2-2.816zm-48-11.184c0-7.168 5.832-13 13-13s13 5.832 13 13-5.832 13-13 13-13-5.832-13-13zm48 16c0 .552-.448 1-1 1h-34c-.552 0-1-.448-1-1v-1.051c.332.022.662.051 1 .051 2.713 0 5.253-.735 7.452-2h26.548c.552 0 1 .448 1 1z"/><path d="m48.528 34.336-1.842-.779c-.627 1.484-2.075 2.443-3.686 2.443-2.206 0-4-1.794-4-4s1.794-4 4-4c1.591 0 3.03.942 3.668 2.4l1.832-.8c-.955-2.187-3.114-3.6-5.5-3.6-3.309 0-6 2.691-6 6s2.691 6 6 6c2.416 0 4.586-1.438 5.528-3.664z"/><path d="m7 29c0-1.103.897-2 2-2v-2c-2.206 0-4 1.794-4 4z"/><path d="m9 23v-2c-4.411 0-8 3.589-8 8h2c0-3.309 2.691-6 6-6z"/><path d="m19 27h2v2h-2z"/><path d="m19 23h2v2h-2z"/><path d="m19 19h2v2h-2z"/><path d="m45 47h2v2h-2z"/><path d="m45 51h2v2h-2z"/><path d="m45 43h2v2h-2z"/><path d="m60 35h-16c-1.654 0-3-1.346-3-3s1.346-3 3-3h16c1.654 0 3 1.346 3 3s-1.346 3-3 3z" fill="#f0bc5e"/></svg>