<svg id="Layer_5" enable-background="new 0 0 64 64" height="512" viewBox="0 0 64 64" width="512" xmlns="http://www.w3.org/2000/svg"><path d="m30 59c-2.757 0-5-2.243-5-5s2.243-5 5-5 5 2.243 5 5-2.243 5-5 5zm0-6c-.551 0-1 .449-1 1s.449 1 1 1 1-.449 1-1-.449-1-1-1z" fill="#f0bc5e"/><path d="m36 31h-8c-1.103 0-2-.897-2-2v-2c0-1.103.897-2 2-2h8c1.103 0 2 .897 2 2v2c0 1.103-.897 2-2 2z" fill="#f0bc5e"/><circle cx="30" cy="54" r="1"/><path d="m37 49h2v2h-2z"/><path d="m58 15h2c1.654 0 3-1.346 3-3s-1.346-3-3-3h-2v-1c0-1.654-1.346-3-3-3s-3 1.346-3 3v1h-2c-1.654 0-3 1.346-3 3s1.346 3 3 3h2v6h-2.414l-5.711 5.711-2.04-3.326c-.903-1.471-2.536-2.385-4.263-2.385h-11.146c-1.727 0-3.359.914-4.263 2.385l-2.039 3.325-5.71-5.71h-2.414v-6h2c1.654 0 3-1.346 3-3s-1.346-3-3-3h-2v-1c0-1.654-1.346-3-3-3s-3 1.346-3 3v1h-2c-1.654 0-3 1.346-3 3s1.346 3 3 3h2v6h-5v5 1 1c0 1.654 1.346 3 3 3h6c1.392 0 2.555-.958 2.892-2.246l3.357 4.272-6.258 10.2 1.705 1.046 5.871-9.569 2.733 3.479-5.016 8.061 1.697 1.057 4.633-7.446.9 1.146h2.486v4h-1c-1.654 0-3 1.346-3 3v12c0 1.654 1.346 3 3 3h16c1.654 0 3-1.346 3-3v-12c0-1.654-1.346-3-3-3h-1v-4h2.486l.898-1.143 4.633 7.445 1.697-1.057-5.016-8.061 2.733-3.479 5.871 9.569 1.705-1.046-6.258-10.2 3.358-4.274c.338 1.288 1.501 2.246 2.893 2.246h6c1.654 0 3-1.346 3-3v-1-1-5h-5zm-4-7c0-.551.448-1 1-1s1 .449 1 1v1h-2zm-5 4c0-.551.448-1 1-1h10c.552 0 1 .449 1 1s-.448 1-1 1h-10c-.552 0-1-.449-1-1zm5 3h2v6h-2zm-30.132 9.431c.542-.883 1.522-1.431 2.558-1.431h11.146c1.036 0 2.016.548 2.558 1.431l2.291 3.734-4.835 4.835h-11.172l-4.836-4.836zm-15.868-16.431c0-.551.448-1 1-1s1 .449 1 1v1h-2zm-5 4c0-.551.448-1 1-1h10c.552 0 1 .449 1 1s-.448 1-1 1h-10c-.552 0-1-.449-1-1zm5 3h2v6h-2zm2 14h-6c-.552 0-1-.449-1-1v-1h8v1c0 .551-.448 1-1 1zm31 19v12c0 .551-.448 1-1 1h-16c-.552 0-1-.449-1-1v-12c0-.551.448-1 1-1h16c.552 0 1 .449 1 1zm-4-3h-10v-4h10zm24-17c0 .551-.448 1-1 1h-6c-.552 0-1-.449-1-1v-1h8zm0-3h-9.486l-11 14h-17.028l-11-14h-9.486v-2h10.586l12 12h12.828l12-12h10.586z"/><path d="m29 16c0 1.654 1.346 3 3 3s3-1.346 3-3-1.346-3-3-3-3 1.346-3 3zm4 0c0 .551-.448 1-1 1s-1-.449-1-1 .448-1 1-1 1 .449 1 1z"/><path d="m36.949 11.05c-1.322-1.322-3.079-2.05-4.949-2.05s-3.627.728-4.949 2.05l1.414 1.414c.944-.944 2.2-1.464 3.535-1.464s2.591.52 3.535 1.464z"/><path d="m39.778 8.222c-4.289-4.289-11.268-4.289-15.557 0l1.414 1.414c3.51-3.509 9.219-3.509 12.729 0z"/><path d="m32 3c3.473 0 6.737 1.353 9.192 3.808l1.414-1.414c-2.833-2.833-6.599-4.394-10.606-4.394s-7.773 1.561-10.606 4.394l1.414 1.414c2.455-2.455 5.719-3.808 9.192-3.808z"/><path d="m56.101 46.639-1.705 1.046 6.374 10.385c.248.473.298 1.014.138 1.525-.158.51-.506.927-.979 1.175-.946.498-2.19.132-2.738-.904l-6.361-10.223-1.698 1.057 6.324 10.159c.692 1.321 2.05 2.141 3.543 2.141.646 0 1.29-.159 1.859-.459.945-.496 1.641-1.331 1.958-2.35.319-1.021.221-2.104-.31-3.109z"/><path d="m6.771 59.931c-.496.944-1.751 1.339-2.704.839-.471-.247-.818-.664-.978-1.175-.159-.51-.109-1.051.106-1.466l6.407-10.444-1.705-1.046-6.438 10.501c-.498.947-.597 2.03-.278 3.05.318 1.021 1.014 1.855 1.957 2.35.571.301 1.216.46 1.861.46 1.493 0 2.851-.82 3.506-2.077l6.361-10.224-1.697-1.057z"/><g fill="#f0bc5e"><path d="m48.001 52c-1.075 0-2.074-.58-2.606-1.513-.397-.692-.5-1.501-.289-2.276.211-.773.711-1.418 1.407-1.815l6.999-4c.451-.259.966-.396 1.487-.396 1.074 0 2.072.58 2.605 1.512.398.694.501 1.503.29 2.278-.211.773-.711 1.418-1.407 1.815l-6.999 4c-.453.258-.967.395-1.487.395z"/><path d="m15.999 52c-.521 0-1.034-.137-1.487-.396l-7-4c-.695-.396-1.195-1.042-1.406-1.815-.211-.774-.108-1.584.291-2.279.532-.931 1.53-1.51 2.604-1.51.521 0 1.036.137 1.488.396l6.999 4c.695.396 1.195 1.042 1.406 1.815.211.775.108 1.584-.291 2.279-.53.93-1.529 1.51-2.604 1.51z"/></g></svg>