<svg id="Layer_5" enable-background="new 0 0 64 64" height="512" viewBox="0 0 64 64" width="512" xmlns="http://www.w3.org/2000/svg"><g fill="#f0bc5e"><path d="m44 2h5v16h-5z"/><path d="m15 31h5v16h-5z"/><path d="m62 7c-1.028-1.028-2.183-1.893-3.414-2.619-1.008.948-1.586 2.246-1.586 3.619v4c0 1.373.578 2.671 1.586 3.619 1.231-.726 2.386-1.591 3.414-2.619z"/><path d="m2 42c1.028 1.028 2.183 1.893 3.414 2.619 1.008-.948 1.586-2.246 1.586-3.619v-4c0-1.373-.578-2.671-1.586-3.619-1.231.726-2.386 1.591-3.414 2.619z"/></g><path d="m62.707 6.293c-3.413-3.413-7.951-5.293-12.778-5.293h-6.929v2h-2v-2h-5.36c-5.16 0-10.185 1.819-14.15 5.124l-.49.409v6.935l.491.41c3.964 3.303 8.988 5.122 14.149 5.122h5.36v-2h2v2h6.929c.75 0 1.489-.061 2.222-.15l.849 4.249v39.901h6v-39.901l1.508-7.54c.77-.559 1.513-1.166 2.199-1.852l.293-.293v-6.828zm-23.707 10.707h-3.36c-4.595 0-9.072-1.586-12.64-4.471v-5.058c3.569-2.886 8.045-4.471 12.64-4.471h3.36zm2-2v-10h2v10zm14 46v-37h2v37zm2.18-39h-2.36l-.701-3.506c1.412-.334 2.775-.829 4.061-1.49zm3.82-9.421c-3 2.854-6.915 4.421-11.071 4.421h-4.929v-14h4.929c4.156 0 8.071 1.567 11.071 4.421z"/><path d="m18.464 13.536 1.414-1.414c-1.169-1.17-1.169-3.073 0-4.243l-1.414-1.414c-1.949 1.949-1.949 5.121 0 7.071z"/><path d="m17.05 14.95c-1.322-1.323-2.05-3.08-2.05-4.95s.728-3.627 2.05-4.95l-1.414-1.414c-1.7 1.7-2.636 3.96-2.636 6.364s.936 4.664 2.636 6.364z"/><path d="m27 34v6h2v-3.987c3.02.119 5.924 1.077 8.437 2.79l1.127-1.652c-3.023-2.062-6.551-3.151-10.204-3.151z"/><path d="m28.36 30h-5.36v2h-2v-2h-6.929c-4.827 0-9.365 1.88-12.778 5.293l-.293.293v6.828l.293.293c.686.686 1.429 1.293 2.199 1.852l1.508 7.54v10.901h6v-10.901l.85-4.249c.733.089 1.472.15 2.222.15h6.928v-2h2v2h5.36c5.16 0 10.185-1.819 14.15-5.124l.49-.409v-6.935l-.491-.41c-3.964-3.303-8.988-5.122-14.149-5.122zm-21.36 31v-8h2v8zm2.18-10h-2.36l-1-4.997c1.286.662 2.649 1.156 4.061 1.49zm9.82-5h-4.929c-4.156 0-8.071-1.567-11.071-4.421v-5.157c3-2.855 6.915-4.422 11.071-4.422h4.929zm2-2v-10h2v10zm20-2.471c-3.569 2.886-8.045 4.471-12.64 4.471h-3.36v-14h3.36c4.595 0 9.072 1.586 12.64 4.471z"/><path d="m45.536 36.464-1.414 1.414c1.169 1.17 1.169 3.073 0 4.243l1.414 1.414c1.949-1.949 1.949-5.121 0-7.071z"/><path d="m46.95 35.05c1.322 1.323 2.05 3.08 2.05 4.95s-.728 3.627-2.05 4.95l1.414 1.414c1.7-1.7 2.636-3.96 2.636-6.364s-.936-4.664-2.636-6.364z"/><path d="m27 42h2v2h-2z"/><path d="m35 12.987c-3.02-.119-5.924-1.077-8.437-2.79l-1.127 1.652c3.023 2.062 6.551 3.151 10.204 3.151h1.36v-6h-2z"/><path d="m35 5h2v2h-2z"/></svg>