<svg id="Layer_5" enable-background="new 0 0 64 64" height="512" viewBox="0 0 64 64" width="512" xmlns="http://www.w3.org/2000/svg"><path d="m29 48c-.366 0-.708-.082-1.033-.202l.003.018c-.417 5.694-5.169 10.184-10.97 10.184-6.075 0-11-4.925-11-11s4.925-11 11-11c4.545 0 8.446 2.756 10.123 6.688v.001c.553-.435 1.258-.69 1.995-.69h3.038l-.019-.136-.049-.198c-2.254-6.378-8.318-10.665-15.088-10.665-8.822 0-16 7.178-16 16s7.178 16 16 16c8.4 0 15.413-6.56 15.965-14.934l.004-.066z" fill="#f0bc5e"/><path d="m14 17.302-5.415-4.513c-1.007-.839-1.585-2.073-1.585-3.384 0-2.429 1.977-4.405 4.405-4.405h.185c.867 0 1.695.249 2.405.713.689-.455 1.532-.713 2.415-.713h.185c2.428 0 4.405 1.976 4.405 4.405 0 1.311-.578 2.544-1.585 3.384z" fill="#f0bc5e"/><path d="m62.087 22.458c-.765-.927-1.89-1.458-3.087-1.458h-5.783l-.724-.867c-1.563-1.836-3.537-3.212-5.721-4.081 2.514-1.351 4.228-4.004 4.228-7.052 0-4.411-3.589-8-8-8s-8 3.589-8 8c0 2.598 1.25 4.903 3.174 6.366-2.669.597-5.122 1.926-7.102 3.906l-1.728 1.728c-1.512 1.512-2.344 3.521-2.344 5.659v.341h-23c-1.654 0-3 1.346-3 3s1.346 3 3 3h5.271c2.293-1.271 4.926-2 7.729-2h-13c-.552 0-1-.449-1-1s.448-1 1-1h23v1.881c0 1.98 1.351 3.681 3.212 4.042 1.189.23 2.405-.074 3.33-.836.927-.764 1.458-1.889 1.458-3.087v-4.586l2-2v8.337c0 .016.004.032.004.048l-.644 8.201h-7.242c-.551 0-1.075.113-1.559.304-2.081-3.861-6.112-6.304-10.559-6.304-6.617 0-12 5.383-12 12s5.383 12 12 12c5.883 0 10.881-4.32 11.834-10.018.056.002.11.018.166.018h10.046c2.614 0 4.756-1.964 4.98-4.57l.232-2.682 3.94 10.507c.573 1.528 1.93 2.6 3.456 2.73.116.01.23.015.344.015.477 0 .949-.085 1.41-.256 2.061-.775 3.109-3.085 2.338-5.149l-6.002-16.002c-.168-.447-.422-.866-.744-1.23v-4.572c1.254.782 2.713 1.209 4.217 1.209h5.665c1.98 0 3.68-1.351 4.041-3.211.231-1.191-.073-2.406-.836-3.331zm-25.087-13.458c0-3.309 2.691-6 6-6s6 2.691 6 6-2.691 6-6 6-6-2.691-6-6zm-4.73 23.544c-.471.387-1.066.533-1.677.417-.908-.177-1.593-1.071-1.593-2.08v-1.881h4v2c0 .599-.267 1.161-.73 1.544zm-15.27 24.456c-5.514 0-10-4.486-10-10s4.486-10 10-10c3.794 0 7.206 2.147 8.902 5.498-.404.488-.699 1.067-.825 1.713-.231 1.191.073 2.406.836 3.331.28.34.62.605.983.832-.675 4.884-4.899 8.626-9.896 8.626zm25.034-12.742c-.136 1.563-1.42 2.742-2.988 2.742h-10.046c-.599 0-1.161-.266-1.543-.73-.388-.47-.535-1.065-.417-1.677.177-.908 1.069-1.593 2.078-1.593h7.242c1.037 0 1.912-.81 1.994-1.844l.32-4.085c.686.753 1.545 1.338 2.529 1.652.42.134.852.2 1.288.236zm18.926-18.85c-.177.907-1.069 1.592-2.078 1.592h-5.665c-1.583 0-3.1-.632-4.217-1.745v-3.255h-2v11.22l.333.298c.247.222.429.484.539.778l6.001 16c.386 1.033-.139 2.188-1.164 2.574-.293.108-.583.15-.885.122-.762-.065-1.449-.63-1.753-1.439l-5.539-14.771-.82.147c-.666.119-1.287.083-1.9-.112-1.628-.519-2.768-2.147-2.805-3.977l.005-.061-.01-.001c0-.009-.002-.018-.002-.028v-10.75h-2.414l-3 3c-.378.378-.586.88-.586 1.414v.586h-4v-.341c0-1.603.624-3.11 1.758-4.244l1.729-1.729c2.376-2.377 5.536-3.686 8.898-3.686 3.696 0 7.189 1.614 9.585 4.429l.599.703c.372.545.983.868 1.648.868h5.783c.599 0 1.161.266 1.543.73.388.47.535 1.066.417 1.678z"/><path d="m4 21h7.665l4.037 3.044c.576.636 1.391.999 2.255.999 1.678 0 3.043-1.365 3.043-3.043v-1h3c1.654 0 3-1.346 3-3v-14c0-1.654-1.346-3-3-3h-20c-1.654 0-3 1.346-3 3v14c0 1.654 1.346 3 3 3zm-1-17c0-.551.448-1 1-1h20c.552 0 1 .449 1 1v14c0 .551-.448 1-1 1h-5v3c0 .575-.468 1.043-1.043 1.043-.311 0-.603-.137-.801-.375l-4.821-3.668h-8.335c-.552 0-1-.449-1-1z"/><path d="m18.03 48.232-2.735-7.293-3.795 5.061h-2.5v2h3.5l2.205-2.939 3.265 8.707 2.707-6.768h3.323v-2h-4.677z"/></svg>