<svg id="Layer_5" enable-background="new 0 0 64 64" height="512" viewBox="0 0 64 64" width="512" xmlns="http://www.w3.org/2000/svg"><g fill="#f0bc5e"><path d="m20 24h-1-1c-2.761 0-5 2.239-5 5 0 1.657 1.343 3 3 3s3-1.343 3-3c0 1.657 1.343 3 3 3s3-1.343 3-3c0-2.761-2.239-5-5-5z"/><path d="m20 62c-3.314 0-6-2.686-6-6 0-3.314 2.686-6 6-6h12v12z"/><path d="m39 2h10v9h-10z"/></g><path d="m37 35c0-5.548-2.526-10.514-6.484-13.819l6.868-6.181h11.616v-2h-12.384l-7.741 6.968c-1.565-1.032-3.303-1.814-5.156-2.319 2.564-1.588 4.281-4.418 4.281-7.649 0-4.962-4.038-9-9-9s-9 4.038-9 9c0 3.231 1.717 6.061 4.281 7.649-7.64 2.081-13.281 9.061-13.281 17.351v10h36zm-25-25c0-3.86 3.14-7 7-7s7 3.14 7 7-3.14 7-7 7-7-3.14-7-7zm-9 25c0-8.485 6.644-15.429 15-15.949v14.949c0 .551-.449 1-1 1h-3c-1.654 0-3 1.346-3 3s1.346 3 3 3h3c.551 0 1 .449 1 1v1h-9v-14h-2v14h-4zm32 8h-4v-14h-2v14h-9v-1c0-1.654-1.346-3-3-3h-3c-.551 0-1-.449-1-1s.449-1 1-1h3c1.654 0 3-1.346 3-3v-14.949c8.356.52 15 7.465 15 15.949z"/><path d="m60 22c-.395 0-.77.081-1.116.22-.345-1.275-1.501-2.22-2.884-2.22-.352 0-.686.072-1 .184v-.184c0-1.654-1.346-3-3-3-1.383 0-2.538.945-2.884 2.22-.346-.139-.721-.22-1.116-.22-1.654 0-3 1.346-3 3v7.243c-.944-.776-2.151-1.243-3.465-1.243-1.398 0-2.535 1.137-2.535 2.535 0 .502.147.988.426 1.406l.992 1.489c.381.57.582 1.235.582 1.922v4.231c0 1.081.255 2.164.739 3.131l1.261 2.522v7.764h-2.764l-8-4h-24.236c-3.86 0-7 3.14-7 7s3.14 7 7 7h24.236l8-4h2.764v4h18v-17.764l1.261-2.522c.484-.967.739-2.049.739-3.131v-14.583c0-1.654-1.346-3-3-3zm-4 0c.551 0 1 .449 1 1v2 6h-2v-8c0-.551.449-1 1-1zm-5-2c0-.551.449-1 1-1s1 .449 1 1v3 8h-2v-9zm-5 35c.551 0 1 .449 1 1s-.449 1-1 1h-5v-2zm-7 2.382-7.236 3.618h-23.764c-2.757 0-5-2.243-5-5s2.243-5 5-5h23.764l7.236 3.618zm22-17.799c0 .772-.183 1.545-.528 2.236l-1.472 2.945v16.236h-14v-2h1c1.654 0 3-1.346 3-3s-1.346-3-3-3h-1v-8.236l-1.472-2.943c-.345-.692-.528-1.466-.528-2.238v-4.231c0-1.083-.317-2.132-.918-3.032l-.992-1.488c-.059-.088-.09-.191-.09-.297 0-.295.24-.535.535-.535 1.911 0 3.465 1.554 3.465 3.465v1.535.414l.536.536c.944.944 1.464 2.2 1.464 3.535v1.515h2v-1.515c0-1.846-.71-3.583-2-4.899v-1.122-11.464c0-.551.449-1 1-1s1 .449 1 1v9h-1v2h12v-2h-1v-6c0-.551.449-1 1-1s1 .449 1 1z"/><path d="m8 53c-1.654 0-3 1.346-3 3s1.346 3 3 3 3-1.346 3-3-1.346-3-3-3zm0 4c-.551 0-1-.449-1-1s.449-1 1-1 1 .449 1 1-.449 1-1 1z"/><path d="m27 53h-8c-1.103 0-2 .897-2 2v2c0 1.103.897 2 2 2h8c1.103 0 2-.897 2-2v-2c0-1.103-.897-2-2-2zm-8 4v-2h8l.001 2z"/><path d="m55 53h2v2h-2z"/><path d="m55 49h2v2h-2z"/><path d="m55 57h2v2h-2z"/><path d="m39 5h10v2h-10z"/><path d="m47 9h2v2h-2z"/><path d="m43 9h2v2h-2z"/><path d="m39 9h2v2h-2z"/><path d="m39 1h10v2h-10z"/></svg>