<svg id="Layer_5" enable-background="new 0 0 64 64" height="512" viewBox="0 0 64 64" width="512" xmlns="http://www.w3.org/2000/svg"><path d="m29 21h-8v1.364c2.932.742 5 2.538 5 4.636v4c0 2.761-3.582 5-8 5s-8-2.239-8-5v-4c0-2.098 2.068-3.895 5-4.636v-1.364h-8c-1.103 0-2 .897-2 2v16c0 1.103.897 2 2 2h22c1.103 0 2-.897 2-2v-16c0-1.103-.897-2-2-2z" fill="#f0bc5e"/><path d="m52 32h10v5h-10z" fill="#f0bc5e"/><path d="m9 43h2v2h-2z"/><path d="m13 43h2v2h-2z"/><path d="m5 43h2v2h-2z"/><path d="m25 43h2v2h-2z"/><path d="m29 43h2v2h-2z"/><path d="m61 31v-6h-8v6h-2v8c0 2.967 2.167 5.431 5 5.91v12.59c0 1.93-1.57 3.5-3.5 3.5s-3.5-1.57-3.5-3.5v-51.5c0-2.757-2.243-5-5-5s-5 2.243-5 5v11h2v-11c0-1.654 1.346-3 3-3s3 1.346 3 3v51.5c0 3.033 2.467 5.5 5.5 5.5s5.5-2.467 5.5-5.5v-12.59c2.833-.478 5-2.942 5-5.91v-8zm-6-4h4v4h-4zm6 12c0 2.206-1.794 4-4 4s-4-1.794-4-4v-6h8z"/><path d="m39 58c0 1.654-1.346 3-3 3h-14c-1.654 0-3-1.346-3-3v-1.142c1.72-.447 3-2 3-3.858h5.528c3.14 0 5.963-1.745 7.367-4.553l.105-.211v-26.236c0-2.757-2.243-5-5-5h-8v-3.262c1.864-1.302 3-3.451 3-5.738 0-3.86-3.14-7-7-7s-7 3.14-7 7c0 2.288 1.136 4.436 3 5.738v3.262h-8c-2.757 0-5 2.243-5 5v26.236l.105.211c1.404 2.808 4.227 4.553 7.367 4.553h5.528c0 1.858 1.28 3.411 3 3.858v1.142c0 2.757 2.243 5 5 5h14c2.757 0 5-2.243 5-5v-27h-2zm-11.472-7h-5.528v-2h10.099c-1.16 1.258-2.796 2-4.571 2zm-14.528-43c0-2.757 2.243-5 5-5s5 2.243 5 5c0 1.774-.958 3.432-2.501 4.326l-.499.289v14.385h2v-3.248c1.83.752 3 1.97 3 3.248 0 2.168-3.206 4-7 4s-7-1.832-7-4c0-1.278 1.17-2.496 3-3.248v3.248h2v-14.385l-.499-.289c-1.543-.894-2.501-2.552-2.501-4.326zm-2 22.81c1.637 1.344 4.142 2.19 7 2.19s5.363-.846 7-2.19v.19c0 2.168-3.206 4-7 4s-7-1.832-7-4zm-5-11.81h8v2.63c-3.054.996-5 3.039-5 5.37v4c0 3.364 3.953 6 9 6s9-2.636 9-6v-4c0-2.331-1.946-4.374-5-5.37v-2.63h8c1.654 0 3 1.346 3 3v25h-30v-25c0-1.654 1.346-3 3-3zm2.472 32c-1.775 0-3.411-.742-4.571-2h10.099v2zm7.528 2v-4h4v4c0 1.103-.897 2-2 2s-2-.897-2-2z"/><path d="m37 27h6v2h-6z"/><path d="m37 23h6v2h-6z"/><path d="m37 19h6v2h-6z"/><path d="m19 8h2c0-1.654-1.346-3-3-3v2c.551 0 1 .449 1 1z"/></svg>