<svg id="Layer_5" enable-background="new 0 0 64 64" height="512" viewBox="0 0 64 64" width="512" xmlns="http://www.w3.org/2000/svg"><path d="m57 27h-50c-1.103 0-2-.897-2-2v-18c0-1.103.897-2 2-2h50c1.103 0 2 .897 2 2v18c0 1.103-.897 2-2 2z" fill="#f0bc5e"/><path d="m58 31c2.757 0 5-2.243 5-5v-20c0-2.757-2.243-5-5-5h-52c-2.757 0-5 2.243-5 5v20c0 2.757 2.243 5 5 5h1v2h-1c-2.757 0-5 2.243-5 5v20c0 2.757 2.243 5 5 5h52c2.757 0 5-2.243 5-5v-20c0-2.757-2.243-5-5-5h-1v-2zm-55-5v-20c0-1.654 1.346-3 3-3h52c1.654 0 3 1.346 3 3v20c0 1.654-1.346 3-3 3h-52c-1.654 0-3-1.346-3-3zm14 7v-2h30v2zm-8-2h6v2h-6zm49 30h-52c-1.302 0-2.402-.839-2.816-2h57.631c-.413 1.161-1.513 2-2.815 2zm-1-4h-14v-1c0-1.654-1.346-3-3-3h-16c-1.654 0-3 1.346-3 3v1h-14v-18h50zm-16 0h-18v-1c0-.552.448-1 1-1h16c.552 0 1 .448 1 1zm20-19v19h-2v-20h-54v20h-2v-19c0-1.654 1.346-3 3-3h52c1.654 0 3 1.346 3 3zm-6-5h-6v-2h6z"/><path d="m21 41h2v2h-2z"/><path d="m25 41h2v2h-2z"/><path d="m33 41h2v2h-2z"/><path d="m37 41h2v2h-2z"/><path d="m45 41h2v2h-2z"/><path d="m41 41h2v2h-2z"/><path d="m29 41h2v2h-2z"/><path d="m49 41h2v2h-2z"/><path d="m9 41h2v2h-2z"/><path d="m53 41h2v2h-2z"/><path d="m17 41h2v2h-2z"/><path d="m13 41h2v2h-2z"/><path d="m49 45h2v2h-2z"/><path d="m37 45h2v2h-2z"/><path d="m45 45h2v2h-2z"/><path d="m41 45h2v2h-2z"/><path d="m53 45h2v2h-2z"/><path d="m25 45h2v2h-2z"/><path d="m13 45h2v2h-2z"/><path d="m17 45h2v2h-2z"/><path d="m21 45h2v2h-2z"/><path d="m9 45h2v2h-2z"/><path d="m29 45h2v2h-2z"/><path d="m33 45h2v2h-2z"/><path d="m33 49h2v2h-2z"/><path d="m17 49h2v2h-2z"/><path d="m53 49h2v2h-2z"/><path d="m41 49h2v2h-2z"/><path d="m9 49h2v2h-2z"/><path d="m13 49h2v2h-2z"/><path d="m29 49h2v2h-2z"/><path d="m45 49h2v2h-2z"/><path d="m25 49h2v2h-2z"/><path d="m37 49h2v2h-2z"/><path d="m21 49h2v2h-2z"/><path d="m49 49h2v2h-2z"/><path d="m13 53h2v2h-2z"/><path d="m17 53h2v2h-2z"/><path d="m9 53h2v2h-2z"/><path d="m45 53h2v2h-2z"/><path d="m53 53h2v2h-2z"/><path d="m49 53h2v2h-2z"/><path d="m16 17c-1.654 0-3 1.346-3 3s1.346 3 3 3 3-1.346 3-3-1.346-3-3-3zm0 4c-.552 0-1-.449-1-1s.448-1 1-1 1 .449 1 1-.448 1-1 1z"/><path d="m11.051 15.05 1.414 1.414c.944-.944 2.2-1.464 3.535-1.464s2.591.52 3.535 1.464l1.414-1.414c-1.322-1.322-3.079-2.05-4.949-2.05s-3.627.728-4.949 2.05z"/><path d="m8.222 12.222 1.414 1.414c3.51-3.509 9.219-3.509 12.729 0l1.414-1.414c-4.29-4.289-11.268-4.289-15.557 0z"/><path d="m31 19h24v-10h-24zm2-8h20v6h-20z"/><path d="m53 21h2v2h-2z"/><path d="m49 21h2v2h-2z"/><path d="m31 21h16v2h-16z"/><path d="m35 13h2v2h-2z"/><path d="m39 13h8v2h-8z"/><path d="m49 13h2v2h-2z"/></svg>