<svg id="Layer_5" enable-background="new 0 0 64 64" height="512" viewBox="0 0 64 64" width="512" xmlns="http://www.w3.org/2000/svg"><path d="m45 27c-5.949 0-11.218 2.914-14.497 7.376.327.282.539.694.539 1.159 0 2.279-1.412 4.277-3.478 5.077-.276 1.094-.449 2.226-.513 3.388h5c.514-6.701 6.118-12 12.949-12 7.168 0 13 5.832 13 13s-5.832 13-13 13c-4.233 0-7.989-2.04-10.362-5.183l-.014.014c.236.329.376.733.376 1.169 0 1.105-.895 2-2 2h-2c1.105 0 2 .895 2 2 0 .119-.015.233-.035.346 3.193 2.882 7.406 4.654 12.035 4.654 9.925 0 18-8.075 18-18s-8.075-18-18-18z" fill="#f0bc5e"/><path d="m55 22c2.206 0 4-1.794 4-4v-3c0-7.72-6.28-14-14-14s-14 6.28-14 14v18.497c-.42-.309-.933-.497-1.493-.497-.502 0-.988.147-1.406.426l-1.544 1.029c-.571.381-1.233.627-1.914.712l-5.533.692c-.923.114-1.8.406-2.547.837l-6.793 3.304h-8.77v18h8.667l2.133 1.6c1.203.903 2.694 1.4 4.2 1.4h15c1.654 0 3-1.346 3-3 0-.395-.081-.77-.22-1.116.81-.22 1.478-.766 1.862-1.493 2.548 2.307 5.834 3.609 9.358 3.609 7.72 0 14-6.28 14-14s-6.28-14-14-14c-6.963 0-12.863 5.202-13.843 12h-7.17c-.455 0-.911-.105-1.319-.306l4.194-.839c3.002-.601 5.181-3.259 5.181-6.32 0-.781-.362-1.471-.919-1.937.578-.702 1.203-1.363 1.878-1.971v-16.627c0-6.617 5.383-12 12-12s12 5.383 12 12v3c0 1.103-.897 2-2 2s-2-.897-2-2v-3c0-4.411-3.589-8-8-8s-8 3.589-8 8v13.894c.646-.323 1.313-.608 2-.853v-13.041c0-3.309 2.691-6 6-6s6 2.691 6 6v3c-.002 2.206 1.792 4 3.998 4zm2 23c0 6.617-5.383 12-12 12-3.796 0-7.287-1.739-9.579-4.771l-.007.005c-.06-.082-.126-.159-.194-.235.48-.532.78-1.229.78-2 0-.352-.072-.686-.184-1h2.278c1.421 2.442 4.054 4 6.906 4 4.411 0 8-3.589 8-8v-8.919c2.448 2.199 4 5.378 4 8.92zm-13-2h-5v-2h12v4c0 3.309-2.691 6-6 6-1.721 0-3.343-.752-4.467-2h3.467c1.654 0 3-1.346 3-3s-1.346-3-3-3zm7-8.377v4.377h-12v-4.363c1.775-1.035 3.825-1.637 6-1.637 2.187 0 4.233.597 6 1.623zm-14 1.464v6.913h-3.83c.461-2.731 1.856-5.141 3.83-6.913zm-10.531 3.808-6.427 1.286v2.438l1.709.854c.69.344 1.464.527 2.235.527h20.014c.552 0 1 .448 1 1s-.448 1-1 1h-11-6v2h6c.552 0 1 .448 1 1s-.448 1-1 1h-6v2h6c.552 0 1 .448 1 1s-.448 1-1 1h-2-4v2h4c.552 0 1 .448 1 1s-.448 1-1 1h-15c-1.075 0-2.141-.355-3-1l-2.667-2h-7.333v-14h7.23l7.267-3.536c.575-.33 1.2-.538 1.859-.62l5.534-.692c.987-.123 1.947-.479 2.775-1.032l1.544-1.029c.331-.221.832.044.832.445.001 2.11-1.502 3.943-3.572 4.359z"/><path d="m17 14v-2c0-1.654-1.346-3-3-3s-3 1.346-3 3v4c0 1.654 1.346 3 3 3s3-1.346 3-3h-2c0 .552-.448 1-1 1s-1-.448-1-1v-4c0-.552.448-1 1-1s1 .448 1 1v2z"/><path d="m14 23v-2c-2.757 0-5-2.243-5-5v-2h-2v2c0 3.859 3.141 7 7 7z"/><path d="m19 16c0 2.116-1.34 4.011-3.333 4.715l.666 1.887c2.792-.987 4.667-3.64 4.667-6.602v-4h-2z"/><path d="m14 7c2.116 0 4.011 1.34 4.715 3.333l1.887-.666c-.987-2.792-3.64-4.667-6.602-4.667-3.859 0-7 3.141-7 7h2c0-2.757 2.243-5 5-5z"/><path d="m4 27h8.531l4.088 4.904c.579.697 1.432 1.096 2.338 1.096 1.678 0 3.043-1.365 3.043-3.043v-2.957h2c1.654 0 3-1.346 3-3v-20c0-1.654-1.346-3-3-3h-20c-1.654 0-3 1.346-3 3v20c0 1.654 1.346 3 3 3zm-1-23c0-.552.448-1 1-1h20c.552 0 1 .448 1 1v20c0 .552-.448 1-1 1h-4v4.957c0 .575-.468 1.043-1.043 1.043-.311 0-.603-.137-.801-.376l-4.687-5.624h-9.469c-.552 0-1-.448-1-1z"/><path d="m41 35h2v2h-2z"/><path d="m47 35h2v2h-2z"/></svg>