<svg id="Layer_5" enable-background="new 0 0 64 64" height="512" viewBox="0 0 64 64" width="512" xmlns="http://www.w3.org/2000/svg"><path d="m38 9h24v26h-24z" fill="#f0bc5e"/><path d="m7 2h5v10h-5z" fill="#f0bc5e"/><path d="m58 1h-16c-2.757 0-5 2.243-5 5v33h-18v-1c0-1.654-1.346-3-3-3h-2v-7c0-1.654-1.346-3-3-3h-5c-1.654 0-3-1.346-3-3s1.346-3 3-3h20.5c3.584 0 6.5-2.916 6.5-6.5s-2.916-6.5-6.5-6.5h-4.59c-.479-2.833-2.943-5-5.91-5h-10v2h-5v2h5v4h-5v2h5v2h10c2.967 0 5.431-2.167 5.91-5h4.59c2.481 0 4.5 2.019 4.5 4.5s-2.019 4.5-4.5 4.5h-20.5c-2.757 0-5 2.243-5 5s2.243 5 5 5h5c.551 0 1 .448 1 1v7h-2c-1.654 0-3 1.346-3 3v1h-1c-2.757 0-5 2.243-5 5v14c0 2.757 2.243 5 5 5h50c2.757 0 5-2.243 5-5v-14c0-.629-.13-1.226-.343-1.781 1.429-.902 2.343-2.479 2.343-4.219v-32c0-2.757-2.243-5-5-5zm-42 10h-8v-8h8c2.206 0 4 1.794 4 4s-1.794 4-4 4zm-7 27c0-.552.449-1 1-1h6c.551 0 1 .448 1 1v1h-8zm50 20c0 1.654-1.346 3-3 3h-50c-1.654 0-3-1.346-3-3v-14c0-1.654 1.346-3 3-3h50c1.654 0 3 1.346 3 3zm2-20c0 1.046-.55 1.994-1.41 2.535-.91-.943-2.18-1.535-3.59-1.535h-17v-33c0-1.654 1.346-3 3-3h16c1.654 0 3 1.346 3 3z"/><path d="m45 5h2v2h-2z"/><path d="m49 5h2v2h-2z"/><path d="m53 5h2v2h-2z"/><path d="m50 23c-1.654 0-3 1.346-3 3s1.346 3 3 3 3-1.346 3-3-1.346-3-3-3zm0 4c-.551 0-1-.448-1-1s.449-1 1-1 1 .448 1 1-.449 1-1 1z"/><path d="m45.05 21.051 1.414 1.414c.945-.944 2.201-1.465 3.536-1.465s2.591.521 3.536 1.465l1.414-1.414c-1.323-1.322-3.08-2.051-4.95-2.051s-3.627.729-4.95 2.051z"/><path d="m42.222 18.222 1.414 1.414c3.51-3.51 9.219-3.51 12.729 0l1.414-1.414c-4.29-4.289-11.268-4.289-15.557 0z"/><path d="m5 59h16v-16h-16zm2-14h12v12h-12z"/><path d="m9 47h2v4h-2z"/><path d="m15 47h2v4h-2z"/><path d="m11 53h4v2h-4z"/><path d="m23 59h16v-16h-16zm2-14h12v12h-12z"/><path d="m27 47h2v4h-2z"/><path d="m33 47h2v4h-2z"/><path d="m29 53h4v2h-4z"/><path d="m41 59h16v-16h-16zm2-14h12v12h-12z"/><path d="m45 47h2v4h-2z"/><path d="m51 47h2v4h-2z"/><path d="m47 53h4v2h-4z"/></svg>