<svg id="Layer_5" enable-background="new 0 0 64 64" height="512" viewBox="0 0 64 64" width="512" xmlns="http://www.w3.org/2000/svg"><path d="m48 23c-1.654 0-3-1.346-3-3s1.346-3 3-3 3 1.346 3 3-1.346 3-3 3zm0-4c-.552 0-1 .449-1 1s.448 1 1 1 1-.449 1-1-.448-1-1-1z"/><path d="m40.014 27h-20.014c-2.757 0-5-2.243-5-5v-4c0-2.757 2.243-5 5-5h20.014v2h-20.014c-1.654 0-3 1.346-3 3v4c0 1.654 1.346 3 3 3h20.014z"/><path d="m48 31c-6.065 0-11-4.935-11-11s4.935-11 11-11 11 4.935 11 11-4.935 11-11 11zm0-17c-3.309 0-6 2.692-6 6s2.691 6 6 6 6-2.692 6-6-2.691-6-6-6z" fill="#f0bc5e"/><path d="m48 27c-3.859 0-7-3.14-7-7s3.141-7 7-7 7 3.14 7 7-3.141 7-7 7zm0-12c-2.757 0-5 2.243-5 5s2.243 5 5 5 5-2.243 5-5-2.243-5-5-5z"/><path d="m22 23c-1.654 0-3-1.346-3-3s1.346-3 3-3 3 1.346 3 3-1.346 3-3 3zm0-4c-.552 0-1 .449-1 1s.448 1 1 1 1-.449 1-1-.448-1-1-1z"/><path d="m30 23c-1.654 0-3-1.346-3-3s1.346-3 3-3 3 1.346 3 3-1.346 3-3 3zm0-4c-.552 0-1 .449-1 1s.448 1 1 1 1-.449 1-1-.448-1-1-1z"/><path d="m7 19h-2v-2h2zm0-4h-2v-2h2zm0-4h-2v-2h2z"/><path d="m25 11h-2v-2h2zm-4 0h-2v-2h2zm-4 0h-2v-2h2z"/><path d="m39 31h-2v-2h2zm-4 0h-2v-2h2zm-4 0h-2v-2h2z"/><path d="m58 1h-52c-2.757 0-5 2.243-5 5v24c0 2.757 2.243 5 5 5h17v3h2v-3h14v3h2v-3h17c2.757 0 5-2.243 5-5v-24c0-2.757-2.243-5-5-5zm-52 2h52c1.302 0 2.402.839 2.816 2h-57.632c.414-1.161 1.514-2 2.816-2zm-3 27v-23h8v26h-5c-1.654 0-3-1.346-3-3zm55 3h-45v-26h48v23c0 1.654-1.346 3-3 3z"/><path d="m56.979 58.6c-.106-1.062-.621-2.02-1.448-2.696l-14.726-12.048c.127-.6.195-1.22.195-1.856h-2c0 3.86-3.141 7-7 7s-7-3.14-7-7h-2c0 .636.068 1.256.194 1.855l-14.727 12.049c-.827.677-1.342 1.634-1.448 2.696-.106 1.063.207 2.104.885 2.933.764.932 1.893 1.467 3.096 1.467.921 0 1.82-.321 2.531-.904l14.469-11.838v8.742c0 2.206 1.794 4 4 4s4-1.794 4-4v-8.741l14.466 11.836c.712.584 1.611.905 2.532.905 1.203 0 2.332-.535 3.099-1.469.675-.827.989-1.868.882-2.931zm-44.714 1.948c-.82.673-2.141.539-2.814-.282-.338-.414-.495-.935-.441-1.466.053-.531.311-1.01.724-1.348l14.155-11.581c.586 1.223 1.435 2.296 2.481 3.138zm19.735.452c-1.103 0-2-.897-2-2v-8.232c.644.147 1.312.232 2 .232s1.356-.085 2-.232v8.232c0 1.103-.897 2-2 2zm22.55-.735c-.677.824-1.994.957-2.817.283l-14.102-11.538c1.046-.842 1.895-1.915 2.481-3.138l14.153 11.58c.413.338.671.817.724 1.348.054.532-.103 1.053-.439 1.465z"/><path d="m41 43h-18c-1.654 0-3-1.346-3-3s1.346-3 3-3h18c1.654 0 3 1.346 3 3s-1.346 3-3 3z" fill="#f0bc5e"/></svg>