<svg id="Layer_5" enable-background="new 0 0 64 64" height="512" viewBox="0 0 64 64" width="512" xmlns="http://www.w3.org/2000/svg"><path d="m38 47h-12c-1.654 0-3-1.346-3-3v-4c0-1.654 1.346-3 3-3h12c1.654 0 3 1.346 3 3v4c0 1.654-1.346 3-3 3z" fill="#f0bc5e"/><path d="m32 35c-2.757 0-5-2.243-5-5s2.243-5 5-5 5 2.243 5 5-2.243 5-5 5z" fill="#f0bc5e"/><path d="m37 11c1.654 0 3-1.346 3-3s-1.346-3-3-3-3 1.346-3 3 1.346 3 3 3zm0-4c.552 0 1 .448 1 1s-.448 1-1 1-1-.448-1-1 .448-1 1-1z"/><path d="m27 11c1.654 0 3-1.346 3-3s-1.346-3-3-3-3 1.346-3 3 1.346 3 3 3zm0-4c.552 0 1 .448 1 1s-.448 1-1 1-1-.448-1-1 .448-1 1-1z"/><path d="m57 39.586v-7.586c0-3.859-3.141-7-7-7h-1.184c-.414-1.161-1.514-2-2.816-2h-1.923c-.419-1.172-1.54-2-2.823-2h-3.254v-2h1c2.045 0 3.802-1.237 4.576-3h1.424c1.654 0 3-1.346 3-3v-6c0-1.654-1.346-3-3-3h-1.424c-.774-1.763-2.531-3-4.576-3h-14c-2.045 0-3.802 1.237-4.576 3h-1.424c-1.654 0-3 1.346-3 3v6c0 1.654 1.346 3 3 3h1.424c.774 1.763 2.531 3 4.576 3h1v2h-3.254c-1.284 0-2.404.828-2.823 2h-1.923c-1.302 0-2.402.839-2.816 2h-1.184c-3.859 0-7 3.141-7 7v7.586l-2.174 2.173 2.245 5.612 1.857-.742-1.755-4.388 1.241-1.241h3.172l1.24 1.241-1.755 4.388 1.857.742 2.245-5.612-2.173-2.173v-7.586c0-.552.448-1 1-1h1.184c.414 1.161 1.514 2 2.816 2h.49l-1.43 10.487c-.039.297-.06.595-.06.894 0 2.719 1.65 5.059 4 6.076v6.543c-2.206 0-4 1.794-4 4 0 1.103.897 2 2 2h10c1.103 0 2-.897 2-2v-2c0-1.103-.897-2-2-2v-6h6v6c-1.103 0-2 .897-2 2v2c0 1.103.897 2 2 2h10c1.103 0 2-.897 2-2 0-2.206-1.794-4-4-4v-6.543c2.35-1.017 4-3.357 4-6.076 0-.299-.021-.597-.061-.894l-1.429-10.487h.49c1.302 0 2.402-.839 2.816-2h1.184c.552 0 1 .448 1 1v7.586l-2.174 2.173 2.245 5.612 1.857-.742-1.755-4.388 1.241-1.241h3.172l1.24 1.241-1.755 4.388 1.857.742 2.245-5.612zm-12-33.586c.552 0 1 .448 1 1v6c0 .552-.448 1-1 1h-1v-8zm-26 8c-.552 0-1-.448-1-1v-6c0-.552.448-1 1-1h1v8zm34 23h2v2h-2zm-26.382-20 1-2h8.764l1 2zm-4.618-3v-8c0-1.654 1.346-3 3-3h14c1.654 0 3 1.346 3 3v8c0 1.453-1.038 2.666-2.412 2.941l-1.97-3.941h-11.236l-1.97 3.941c-1.374-.275-2.412-1.488-2.412-2.941zm6 5h8v2h-8zm-17 20h-2v-2h2zm0-7v3h-2v-3c0-2.757 2.243-5 5-5h1v2h-1c-1.654 0-3 1.346-3 3zm7-1c-.552 0-1-.448-1-1v-4c0-.552.448-1 1-1h1.581l-.818 6zm11 30h-10c0-1.103.897-2 2-2h8zm-2-4h-4v-6.031c.204.019.41.031.619.031h3.381zm18.002 4h-10.002v-2h8c1.103 0 2 .897 2.002 2zm-4.002-4h-4v-6h3.381c.209 0 .415-.012.619-.031zm-.619-8h-16.762c-2.547 0-4.619-2.072-4.619-4.619 0-.209.015-.417.043-.624l2.712-19.892c.067-.493.493-.865.991-.865h18.508c.498 0 .924.372.991.864l2.712 19.893c.028.207.043.415.043.624 0 2.547-2.072 4.619-4.619 4.619zm6.619-19c0 .552-.448 1-1 1h-.763l-.818-6h1.581c.552 0 1 .448 1 1zm3-1h-1v-2h1c2.757 0 5 2.243 5 5v3h-2v-3c0-1.654-1.346-3-3-3z"/><path d="m39 29h2v2h-2z"/><path d="m23 29h2v2h-2z"/><path d="m31 29h2v2h-2z"/><path d="m27 41h2v2h-2z"/><path d="m31 41h2v2h-2z"/><path d="m35 41h2v2h-2z"/></svg>