<svg id="Layer_5" enable-background="new 0 0 64 64" height="512" viewBox="0 0 64 64" width="512" xmlns="http://www.w3.org/2000/svg"><g fill="#f0bc5e"><path d="m52.431 47.771-.204-.097h-.227v7.326c0 1.657-1.343 3-3 3s-3-1.343-3-3v-7.326h-.227l-.204.097c-2.775 1.32-4.569 4.157-4.569 7.229 0 4.411 3.589 8 8 8s8-3.589 8-8c0-3.072-1.794-5.909-4.569-7.229z"/><path d="m13 58c-1.657 0-3-1.343-3-3s1.343-3 3-3h7.326v-.227l-.097-.204c-1.32-2.775-4.157-4.569-7.229-4.569-4.411 0-8 3.589-8 8s3.589 8 8 8c3.072 0 5.909-1.794 7.229-4.569l.097-.204v-.227z"/><path d="m2 9h20v22h-20z"/></g><path d="m6 39h12c2.757 0 5-2.243 5-5v-28c0-2.757-2.243-5-5-5h-12c-2.757 0-5 2.243-5 5v28c0 2.757 2.243 5 5 5zm-3-33c0-1.654 1.346-3 3-3h12c1.654 0 3 1.346 3 3v28c0 1.654-1.346 3-3 3h-12c-1.654 0-3-1.346-3-3z"/><path d="m11 5h2v2h-2z"/><path d="m15 5h2v2h-2z"/><path d="m7 5h2v2h-2z"/><path d="m8 33h8v2h-8z"/><path d="m15 24c0-1.654-1.346-3-3-3s-3 1.346-3 3 1.346 3 3 3 3-1.346 3-3zm-4 0c0-.551.448-1 1-1s1 .449 1 1-.448 1-1 1-1-.449-1-1z"/><path d="m7.051 19.05 1.414 1.414c.944-.944 2.2-1.464 3.535-1.464s2.591.52 3.535 1.464l1.414-1.414c-1.322-1.322-3.079-2.05-4.949-2.05s-3.627.728-4.949 2.05z"/><path d="m18.364 17.636 1.414-1.414c-4.289-4.289-11.268-4.289-15.557 0l1.414 1.414c3.511-3.509 9.219-3.509 12.729 0z"/><path d="m54.816 16h5.184c1.654 0 3-1.346 3-3s-1.346-3-3-3h-5.184c-.414-1.161-1.514-2-2.816-2h-6c-1.302 0-2.402.839-2.816 2h-5.184c-1.654 0-3 1.346-3 3s1.346 3 3 3h5.184c.302.847.969 1.514 1.816 1.816v25.876c-3.448 1.221-6.107 3.952-7.303 7.309h-13.388c-1.68-4.745-6.22-8-11.309-8-6.617-.001-12 5.382-12 11.999h2c0-5.514 4.486-10 10-10 3.998 0 7.588 2.412 9.16 6h-9.16c-2.206 0-4 1.794-4 4s1.794 4 4 4h26v-4c0-3.997 2.412-7.587 6-9.159v9.159c0 2.206 1.794 4 4 4s4-1.794 4-4v-9.16c3.588 1.572 6 5.162 6 9.16h2c0-5.089-3.255-9.63-8-11.309v-25.875c.847-.302 1.514-.969 1.816-1.816zm-43.816 39c0-1.103.897-2 2-2s2 .897 2 2-.897 2-2 2-2-.897-2-2zm26 2h-20.556c.344-.591.556-1.268.556-2s-.212-1.409-.556-2h20.726c-.111.654-.17 1.322-.17 2zm14-39v33.556c-.591-.344-1.268-.556-2-.556s-1.409.212-2 .556v-33.556zm10-5c0 .551-.448 1-1 1h-5v-2h5c.552 0 1 .449 1 1zm-16-2c0-.551.448-1 1-1h6c.552 0 1 .449 1 1v4c0 .551-.448 1-1 1h-6c-.552 0-1-.449-1-1zm-8 2c0-.551.448-1 1-1h5v2h-5c-.552 0-1-.449-1-1zm12 44c-1.103 0-2-.897-2-2s.897-2 2-2 2 .897 2 2-.897 2-2 2z"/></svg>