<svg id="Layer_5" enable-background="new 0 0 64 64" height="512" viewBox="0 0 64 64" width="512" xmlns="http://www.w3.org/2000/svg"><path d="m62 41c-3.86 0-7 3.141-7 7h-13c-.551 0-1-.448-1-1v-5.81h-2v5.81c0 1.654 1.346 3 3 3h13v4h-15c-2.757 0-5-2.243-5-5v-7.81h-2v7.81c0 3.859 3.14 7 7 7h15c0 3.859 3.14 7 7 7h1v-22zm-1 19.899c-2.279-.465-4-2.484-4-4.899v-8c0-2.415 1.721-4.435 4-4.899z"/><path d="m30.762 30c-1.139 1.414-1.762 3.156-1.762 5 0 4.411 3.589 8 8 8s8-3.589 8-8c0-1.844-.623-3.586-1.762-5zm6.238 8c-1.657 0-3-1.343-3-3s1.343-3 3-3 3 1.343 3 3-1.343 3-3 3z" fill="#f0bc5e"/><path d="m37 39c-2.206 0-4-1.794-4-4s1.794-4 4-4 4 1.794 4 4-1.794 4-4 4zm0-6c-1.103 0-2 .897-2 2s.897 2 2 2 2-.897 2-2-.897-2-2-2z"/><path d="m54 2h-13v6c0 1.654 1.346 3 3 3h18v-1c0-4.418-3.582-8-8-8z" fill="#f0bc5e"/><path d="m55 7h-2v-2h2zm-4 0h-2v-2h2zm-4 0h-2v-2h2z"/><path d="m25 11h-2v-2h2zm-4 0h-2v-2h2zm-4 0h-2v-2h2z"/><path d="m63 10c0-4.963-4.038-9-9-9h-53v1c0 4.247 2.426 8.072 6.221 9.902-.142 1.322-.221 2.698-.221 4.098 0 7.271 2.103 15 6 15h41c3.86 0 7-3.141 7-7v-5h2zm-59.938-6.938c2.138.253 4.044 1.264 5.455 2.748-.417 1.176-.757 2.521-1.007 3.985-2.464-1.417-4.115-3.908-4.448-6.733zm5.938 12.938c0-2.979.349-5.837.974-8.158.652 1.245 1.026 2.658 1.026 4.158v3h5.975c.008.333.025.661.025 1 0 7.936-2.369 13-4 13s-4-5.064-4-13zm50 8c0 2.757-2.243 5-5 5h-37.893c1.895-2.767 2.893-7.991 2.893-13 0-.339-.017-.666-.025-1h4.611l4 4h31.414zm2-7h-32.586l-4-4h-11.414v-1c0-3.716-1.852-7.008-4.682-9h45.682c3.86 0 7 3.141 7 7z"/><path d="m38 21h2v2h-2z"/><path d="m34 21h2v2h-2z"/><path d="m42 21h2v2h-2z"/></svg>