<svg id="Layer_5" enable-background="new 0 0 64 64" height="512" viewBox="0 0 64 64" width="512" xmlns="http://www.w3.org/2000/svg"><g fill="#f0bc5e"><path d="m19 37c-2.757 0-5-2.243-5-5s2.243-5 5-5 5 2.243 5 5-2.243 5-5 5zm0-6c-.551 0-1 .449-1 1s.449 1 1 1 1-.449 1-1-.449-1-1-1z"/><path d="m47 54h12v5h-12z"/><path d="m47 5h12v5h-12z"/><path d="m50 42c-4.411 0-8-3.589-8-8s3.589-8 8-8 8 3.589 8 8-3.589 8-8 8zm0-12c-2.206 0-4 1.794-4 4s1.794 4 4 4 4-1.794 4-4-1.794-4-4-4z"/></g><path d="m18 5h2v2h-2z"/><path d="m22 5h2v2h-2z"/><path d="m14 5h2v2h-2z"/><path d="m14 57h10v2h-10z"/><circle cx="19" cy="32" r="1"/><path d="m31 19h2v-6h-6v2h4z"/><path d="m31 49h-4v2h6v-6h-2z"/><path d="m7 45h-2v6h6v-2h-4z"/><path d="m5 19h2v-4h4v-2h-6z"/><path d="m58 21h-4.382l-1.171-2.342c-.511-1.023-1.54-1.658-2.683-1.658h-7.528c-1.143 0-2.171.635-2.683 1.658l-1.171 2.342h-1.382v-15c0-2.757-2.243-5-5-5h-26c-2.757 0-5 2.243-5 5v52c0 2.757 2.243 5 5 5h26c2.757 0 5-2.243 5-5v-15h21c2.757 0 5-2.243 5-5v-12c0-2.757-2.243-5-5-5zm-18.382 2 1.724-3.447c.17-.341.513-.553.894-.553h7.528c.381 0 .724.212.894.553l1.724 3.447h5.618c1.302 0 2.402.839 2.816 2h-29.632c.414-1.161 1.514-2 2.816-2zm-8.618 4h6v14h-3c-1.654 0-3-1.346-3-3zm-25-24h26c1.654 0 3 1.346 3 3v3h-32v-3c0-1.654 1.346-3 3-3zm26 58h-26c-1.654 0-3-1.346-3-3v-3h32v3c0 1.654-1.346 3-3 3zm3-8h-32v-42h32v10h-1c-2.757 0-5 2.243-5 5v12c0 2.757 2.243 5 5 5h1zm23-12h-19v-14h22v11c0 1.654-1.346 3-3 3z"/><path d="m50 29c-2.757 0-5 2.243-5 5s2.243 5 5 5 5-2.243 5-5-2.243-5-5-5zm0 8c-1.654 0-3-1.346-3-3s1.346-3 3-3 3 1.346 3 3-1.346 3-3 3z"/><path d="m42 21h8v2h-8z"/><circle cx="50" cy="34" r="1"/><path d="m33 29h2v2h-2z"/><path d="m33 33h2v2h-2z"/><path d="m33 37h2v2h-2z"/><path d="m47 53h12v2h-12z"/><path d="m47 57h8v2h-8z"/><path d="m57 57h2v2h-2z"/><path d="m60 49h-4.649l-4.32-3.457c-.439-.35-.989-.543-1.551-.543-1.367 0-2.48 1.113-2.48 2.48v1.52h-1c-1.654 0-3 1.346-3 3v8c0 1.654 1.346 3 3 3h14c1.654 0 3-1.346 3-3v-8c0-1.654-1.346-3-3-3zm1 11c0 .551-.449 1-1 1h-14c-.551 0-1-.449-1-1v-8c0-.551.449-1 1-1h3v-3.52c0-.374.491-.605.781-.375l4.868 3.895h5.351c.551 0 1 .449 1 1z"/><path d="m47 9h12v2h-12z"/><path d="m51 5h8v2h-8z"/><path d="m47 5h2v2h-2z"/><path d="m60 1h-14c-1.654 0-3 1.346-3 3v8c0 1.654 1.346 3 3 3h4.649l4.32 3.457c.439.35.989.543 1.551.543 1.368 0 2.48-1.113 2.48-2.48v-1.52h1c1.654 0 3-1.346 3-3v-8c0-1.654-1.346-3-3-3zm1 11c0 .551-.449 1-1 1h-3v3.52c0 .375-.488.608-.781.375l-4.868-3.895h-5.351c-.551 0-1-.449-1-1v-8c0-.551.449-1 1-1h14c.551 0 1 .449 1 1z"/></svg>