<svg id="Layer_5" enable-background="new 0 0 64 64" height="512" viewBox="0 0 64 64" width="512" xmlns="http://www.w3.org/2000/svg"><g fill="#f0bc5e"><path d="m42 45h-20c-1.654 0-3-1.346-3-3v-20c0-1.654 1.346-3 3-3h20c1.654 0 3 1.346 3 3v20c0 1.654-1.346 3-3 3z"/><path d="m12 18.302-5.415-4.513c-1.007-.839-1.585-2.073-1.585-3.384 0-2.429 1.976-4.405 4.405-4.405h.184c.869 0 1.7.25 2.411.716.71-.466 1.542-.716 2.411-.716h.184c2.429 0 4.405 1.976 4.405 4.405 0 1.311-.578 2.544-1.585 3.384z"/><path d="m48 18.804v-13.608l10.887 6.804z"/><path d="m19.071 50.929c-3.905-3.905-10.237-3.905-14.142 0l5.657 5.657c.781-.781 2.047-.781 2.828 0z"/><path d="m50 48h9v5h-9z"/></g><path d="m38.237 31.823c-.53-.531-1.236-.823-1.987-.823h-.132c-1.07 0-2.033.595-2.512 1.553-.138.276-.416.447-.724.447h-.132c-.216 0-.419-.084-.572-.237l-.94-.94c-.154-.153-.238-.356-.238-.573v-.132c0-.309.171-.586.447-.724.958-.479 1.553-1.442 1.553-2.512v-.132c0-.75-.292-1.456-.823-1.986l-1.763-1.764c-1.289-1.29-3.539-1.29-4.828 0l-1.392 1.392c-.759.759-1.194 1.809-1.194 2.977 0 .555.111 1.095.33 1.605 1.868 4.357 5.231 7.924 9.47 10.044l1.104.552c.563.281 1.193.43 1.822.43 1.073 0 2.123-.435 2.882-1.194l1.392-1.392c.645-.645 1-1.502 1-2.414s-.355-1.77-1-2.414zm.349 5.177-1.392 1.392c-.612.613-1.621.777-2.396.389l-1.104-.552c-3.817-1.908-6.845-5.12-8.527-9.043-.11-.259-.167-.535-.167-.912 0-.546.222-1.082.608-1.468l1.392-1.392c.263-.263.628-.414 1-.414s.737.151 1 .414l1.763 1.763c.153.153.237.356.237.573v.132c0 .309-.171.586-.447.724-.958.479-1.553 1.442-1.553 2.512v.132c0 .75.292 1.456.823 1.986l.94.94c.53.532 1.236.824 1.987.824h.132c1.07 0 2.033-.595 2.512-1.553.138-.276.416-.447.724-.447h.132c.216 0 .419.084.572.237l1.764 1.763c.263.263.414.628.414 1s-.151.737-.414 1z"/><path d="m60 32c0-2.671-1.04-5.182-2.929-7.071l-1.414 1.414c1.511 1.511 2.343 3.52 2.343 5.657s-.832 4.146-2.343 5.657l1.414 1.414c1.889-1.889 2.929-4.4 2.929-7.071z"/><path d="m54.243 36.243c2.339-2.339 2.339-6.146 0-8.485l-1.414 1.414c1.56 1.56 1.56 4.098 0 5.657z"/><path d="m4 32c0 2.671 1.04 5.182 2.929 7.071l1.414-1.414c-1.511-1.511-2.343-3.52-2.343-5.657s.832-4.146 2.343-5.657l-1.414-1.414c-1.889 1.889-2.929 4.4-2.929 7.071z"/><path d="m9.757 27.757c-2.339 2.339-2.339 6.146 0 8.485l1.414-1.414c-1.56-1.56-1.56-4.098 0-5.657z"/><path d="m9.878 55.879 1.415 1.414c.377-.378 1.036-.378 1.413 0l1.415-1.414c-1.133-1.134-3.109-1.134-4.243 0z"/><path d="m7.05 53.05 1.414 1.414c1.949-1.949 5.122-1.949 7.071 0l1.414-1.414c-2.729-2.729-7.169-2.729-9.899 0z"/><path d="m4.222 50.222 1.414 1.414c3.51-3.509 9.219-3.509 12.729 0l1.414-1.414c-4.29-4.289-11.268-4.289-15.557 0z"/><path d="m50 47h9v2h-9z"/><path d="m57 51h2v2h-2z"/><path d="m50 51h5v2h-5z"/><path d="m60 43h-11.08c.047-.328.08-.66.08-1v-19.428c.971.276 1.973.428 3 .428 6.065 0 11-4.935 11-11s-4.935-11-11-11c-4.728 0-8.756 3.004-10.309 7.198-.451-2.034-.691-4.116-.691-6.198v-1h-18v1c0 2.082-.24 4.164-.691 6.198-1.553-4.194-5.581-7.198-10.309-7.198-6.065 0-11 4.935-11 11s4.935 11 11 11c1.028 0 2.03-.152 3-.428v18.856c-.971-.275-1.973-.428-3-.428-6.065 0-11 4.935-11 11s4.935 11 11 11c4.728 0 8.756-3.004 10.309-7.198.451 2.034.691 4.116.691 6.198v1h18v-1c0-1.674.151-3.35.445-5h3.555v1.465c0 1.398 1.137 2.535 2.535 2.535.502 0 .988-.147 1.406-.426l5.362-3.574h5.697c1.654 0 3-1.346 3-3v-8c0-1.654-1.346-3-3-3zm-17-31c0-4.962 4.038-9 9-9s9 4.038 9 9-4.038 9-9 9c-1.104 0-2.173-.208-3.19-.594-.546-2.333-2.259-4.215-4.49-5.002l-.295-.59c-.372-.743-.699-1.508-1.004-2.281-.011-.177-.021-.354-.021-.533zm-1 35h-20c-2.757 0-5-2.243-5-5v-20c0-2.757 2.243-5 5-5h20c2.757 0 5 2.243 5 5v20c0 2.757-2.243 5-5 5zm-17.017-44h14.033c.137 4.139 1.134 8.25 2.889 12h-19.811c1.755-3.75 2.752-7.861 2.889-12zm-21.983 9c0-4.962 4.038-9 9-9s9 4.038 9 9c0 .18-.011.357-.021.535-.305.773-.632 1.536-1.003 2.279l-.295.59c-2.231.787-3.944 2.67-4.49 5.002-1.017.387-2.086.594-3.191.594-4.962 0-9-4.038-9-9zm18 40c0 4.962-4.038 9-9 9s-9-4.038-9-9 4.038-9 9-9c1.104 0 2.173.208 3.19.595.546 2.332 2.259 4.215 4.49 5.002l.295.59c.372.743.699 1.508 1.004 2.281.011.176.021.353.021.532zm3.983 9c-.137-4.139-1.134-8.25-2.889-12h19.811c-1.755 3.75-2.752 7.861-2.889 12zm36.017-7c0 .551-.449 1-1 1h-6.303l-5.865 3.91c-.335.221-.832-.045-.832-.445v-3.465h-5.118c.506-2.008 1.218-3.964 2.143-5.813l.295-.59c1.761-.621 3.198-1.926 3.995-3.596h11.685c.551 0 1 .449 1 1z"/><path d="m27 51h2v2h-2z"/><path d="m35 51h2v2h-2z"/><path d="m31 51h2v2h-2z"/><path d="m31 11h2v2h-2z"/><path d="m35 11h2v2h-2z"/><path d="m27 11h2v2h-2z"/></svg>