<svg id="Layer_5" enable-background="new 0 0 64 64" height="512" viewBox="0 0 64 64" width="512" xmlns="http://www.w3.org/2000/svg"><path d="m19 18c-3.743 0-7.192-.576-10-1.54v20.54c0 2.748 5.184 4 10 4s10-1.252 10-4v-20.54c-2.808.964-6.257 1.54-10 1.54z" fill="#f0bc5e"/><path d="m36 25h26v30h-26z" fill="#f0bc5e"/><path d="m19 15c8.557 0 13.571-3.041 13.975-4.744l.053-.225-.051-.225c-.386-1.725-5.388-4.806-13.977-4.806-8.557 0-13.572 3.041-13.975 4.743l-.053.225.051.225c.386 1.725 5.388 4.807 13.977 4.807zm-3-6.586 1.586 1.586-1.586 1.586-1.586-1.586zm-3 .172-.801-.801c.618-.156 1.289-.297 2.018-.415zm1.205 4.033c-.717-.119-1.38-.261-1.991-.417l.786-.788zm3.25.34 1.545-1.545 1.546 1.546c-.499.024-1.01.04-1.546.04-.535 0-1.046-.017-1.545-.041zm6.131-2.959-1.586 1.586-1.586-1.586 1.586-1.586zm.209-2.619c.718.119 1.38.261 1.992.417l-.787.788zm1.205 4.033.801.801c-.618.156-1.289.297-2.018.415zm2.955.127-1.541-1.541 1.522-1.522c1.427.55 2.376 1.137 2.832 1.539-.459.403-1.398.982-2.813 1.524zm-7.41-4.5-1.545 1.545-1.546-1.546c.499-.024 1.01-.04 1.546-.04.535 0 1.046.017 1.545.041zm-10.501 1.417 1.542 1.542-1.522 1.522c-1.428-.55-2.377-1.138-2.833-1.54.46-.403 1.399-.982 2.813-1.524z"/><path d="m19 33c3.309 0 6-2.691 6-6s-2.691-6-6-6-6 2.691-6 6 2.691 6 6 6zm-1-9.858v5.858h2v-5.858c1.72.447 3 1.999 3 3.858 0 2.206-1.794 4-4 4s-4-1.794-4-4c0-1.859 1.28-3.411 3-3.858z"/><path d="m21 35h2v2h-2z"/><path d="m15 35h2v2h-2z"/><path d="m58 17h-18c-1.13 0-2.162.391-3 1.026v-8.026c0-5.047-7.907-9-18-9s-18 3.953-18 9v44c0 5.047 7.907 9 18 9 7.072 0 13.058-1.944 16.016-4.842.085 2.682 2.281 4.842 4.984 4.842h18c2.757 0 5-2.243 5-5v-36c0-2.757-2.243-5-5-5zm-18 2h18c1.654 0 3 1.346 3 3v17h-6.618l-1.28 2.561-4.12-10.299-5.032 13.083-2.291-5.345h-4.659v-17c0-1.654 1.346-3 3-3zm-37 28h2.586l-2.586 2.586zm28 6.586-2.586-2.586 2.586-2.586 2.586 2.586zm4-4-2.586-2.586h2.586zm-5.414-2.586-2.586 2.586-2.586-2.586zm-6.586 6.586-2.586-2.586 2.586-2.586 2.586 2.586zm-1.414-6.586-2.586 2.586-2.586-2.586zm-6.586 6.586-2.586-2.586 2.586-2.586 2.586 2.586zm-1.414-6.586-2.586 2.586-2.586-2.586zm-6.586 6.586-2.586-2.586 2.586-2.586 2.586 2.586zm-3.799 1.414c-.121-.333-.201-.668-.201-1v-1.586l2.586 2.586zm7.799-2.586 2.586 2.586h-5.172zm8 0 2.586 2.586h-5.172zm8 0 2.586 2.586h-5.172zm8 0v1.586c0 .332-.08.667-.201 1h-2.385zm-16-49.414c9.571 0 16 3.619 16 7s-6.429 7-16 7-16-3.619-16-7 6.429-7 16-7zm0 16c7.059 0 13.037-1.937 16-4.826v7.826 23h-32v-30.826c2.963 2.889 8.941 4.826 16 4.826zm-14.344 38h28.688c-2.493 2.224-7.643 4-14.344 4s-11.851-1.776-14.344-4zm53.344 4h-18c-1.654 0-3-1.346-3-3v-4-13h3.341l3.709 8.655 4.968-12.917 3.88 9.7 2.72-5.438h5.382v17c0 1.654-1.346 3-3 3z"/><path d="m48 21h2v2h-2z"/><path d="m52 21h2v2h-2z"/><path d="m44 21h2v2h-2z"/><path d="m45 57h8v2h-8z"/><path d="m46 12c0 1.654 1.346 3 3 3s3-1.346 3-3-1.346-3-3-3-3 1.346-3 3zm4 0c0 .552-.449 1-1 1s-1-.448-1-1 .449-1 1-1 1 .448 1 1z"/><path d="m53.95 7.051c-1.323-1.322-3.08-2.051-4.95-2.051s-3.627.729-4.95 2.051l1.414 1.414c.945-.944 2.201-1.465 3.536-1.465s2.591.521 3.536 1.465z"/><path d="m55.364 5.636 1.414-1.414c-4.289-4.289-11.268-4.289-15.557 0l1.414 1.414c3.511-3.51 9.219-3.51 12.729 0z"/><path d="m43 29h2v2h-2z"/><path d="m39 29h2v2h-2z"/><path d="m47 29h2v2h-2z"/><path d="m57 49h2v2h-2z"/><path d="m49 49h2v2h-2z"/><path d="m53 49h2v2h-2z"/></svg>