<svg id="Layer_5" enable-background="new 0 0 64 64" height="512" viewBox="0 0 64 64" width="512" xmlns="http://www.w3.org/2000/svg"><g fill="#f0bc5e"><path d="m21 34v1c0-.338.021-.67.05-1z"/><path d="m42.95 34c.03.33.05.662.05 1v-1z"/><path d="m32 46c-6.075 0-11-4.925-11-11v20.186c2.55 1.396 5.378 2.337 8.378 2.668 4.961.548 9.645-.489 13.622-2.659v-20.195c0 6.075-4.925 11-11 11z"/><path d="m32 17c-1.654 0-3-1.346-3-3s1.346-3 3-3 3 1.346 3 3-1.346 3-3 3z"/></g><path d="m49.296 45.049c.351-.603.675-1.233.961-1.872l-1.824-.818c-.258.574-.549 1.142-.866 1.685z"/><path d="m45.33 47.095 1.482 1.344c.472-.521.919-1.069 1.33-1.63l-1.613-1.182c-.37.504-.773.998-1.199 1.468z"/><path d="m51.562 39.18-1.956-.416c-.131.615-.296 1.23-.492 1.828l1.901.621c.218-.665.402-1.349.547-2.033z"/><path d="m52 35h-2c0 .631-.033 1.269-.098 1.894l1.989.207c.072-.694.109-1.401.109-2.101z"/><path d="m16.493 22.368 1.551 1.264c.546-.671 1.147-1.309 1.787-1.896l-1.353-1.473c-.709.652-1.377 1.36-1.985 2.105z"/><path d="m12 35h2c0-3.358.931-6.635 2.691-9.473l-1.699-1.055c-1.957 3.156-2.992 6.797-2.992 10.528z"/><path d="m32 23c-6.617 0-12 5.383-12 12s5.383 12 12 12 12-5.383 12-12-5.383-12-12-12zm6.324 4.262-2.853 2.853c-.981-.699-2.177-1.115-3.471-1.115s-2.49.416-3.471 1.115l-2.853-2.853c1.724-1.412 3.926-2.262 6.324-2.262s4.6.85 6.324 2.262zm-10.324 7.738c0-2.206 1.794-4 4-4s4 1.794 4 4-1.794 4-4 4-4-1.794-4-4zm-3.738-6.324 2.853 2.853c-.699.981-1.115 2.177-1.115 3.471s.416 2.49 1.115 3.471l-2.853 2.853c-1.412-1.724-2.262-3.926-2.262-6.324s.85-4.6 2.262-6.324zm1.414 14.062 2.853-2.853c.981.699 2.177 1.115 3.471 1.115s2.49-.416 3.471-1.115l2.853 2.853c-1.724 1.412-3.926 2.262-6.324 2.262s-4.6-.85-6.324-2.262zm14.062-1.414-2.853-2.853c.699-.981 1.115-2.177 1.115-3.471s-.416-2.49-1.115-3.471l2.853-2.853c1.412 1.724 2.262 3.926 2.262 6.324s-.85 4.6-2.262 6.324z"/><path d="m38.26 11.83-1.26-.34v2.51c0 2.757-2.243 5-5 5s-5-2.243-5-5v-2.51l-1.26.34c-11.689 3.151-19.066 14.206-17.543 26.286 1.363 10.815 10.225 19.533 21.072 20.733.93.103 1.853.153 2.77.153 5.918 0 11.507-2.124 15.967-6.118 5.08-4.55 7.994-11.069 7.994-17.884 0-10.826-7.295-20.354-17.74-23.17zm8.411 39.564c-4.722 4.229-10.828 6.171-17.183 5.467-9.938-1.099-18.058-9.087-19.307-18.994-1.341-10.639 4.84-20.409 14.82-23.727.075 3.796 3.186 6.86 6.999 6.86 3.812 0 6.923-3.063 6.999-6.858 8.896 2.979 15.001 11.375 15.001 20.858 0 6.248-2.671 12.223-7.329 16.394z"/><path d="m27 49c-1.654 0-3 1.346-3 3s1.346 3 3 3 3-1.346 3-3-1.346-3-3-3zm0 4c-.551 0-1-.448-1-1s.449-1 1-1 1 .448 1 1-.449 1-1 1z"/><path d="m37 49c-1.654 0-3 1.346-3 3s1.346 3 3 3 3-1.346 3-3-1.346-3-3-3zm0 4c-.551 0-1-.448-1-1s.449-1 1-1 1 .448 1 1-.449 1-1 1z"/><path d="m11.414 7-6.414-6.414-4.414 4.414 6.414 6.414zm-6.414-3.586 3.586 3.586-1.586 1.586-3.586-3.586z"/><path d="m58.414 5-4.414-4.414-6.414 6.414 4.414 4.414zm-4.414-1.586 1.586 1.586-3.586 3.586-1.586-1.586z"/><path d="m63.414 20-4.414-4.414-3.781 3.781c-3.405-5.041-8.41-8.911-14.277-10.894l2.472-2.473-4.414-4.414-5.458 5.458c-.511-.027-1.025-.044-1.542-.044-2.897 0-5.693.442-8.323 1.263l-4.677-4.677-4.414 4.414 3.004 3.003c-8.136 4.904-13.59 13.825-13.59 23.997 0 15.439 12.561 28 28 28s28-12.561 28-28c0-3.45-.631-6.754-1.777-9.809zm-4.414-1.586 1.586 1.586-3.202 3.202c-.333-.713-.696-1.408-1.085-2.087zm-20-14 1.586 1.586-1.829 1.829c-.867-.216-1.75-.393-2.647-.525zm-21.586 3.586 1.586-1.586 2.598 2.598c-.744.299-1.473.628-2.184.988zm14.586 53c-14.336 0-26-11.663-26-26s11.664-26 26-26 26 11.663 26 26-11.664 26-26 26z"/></svg>