<svg id="Layer_5" enable-background="new 0 0 64 64" height="512" viewBox="0 0 64 64" width="512" xmlns="http://www.w3.org/2000/svg"><path d="m58.989 27.834c-1.018-12.214-10.009-22.106-21.973-24.347-.245-1.421-1.461-2.487-2.944-2.487h-4.145c-1.483 0-2.699 1.066-2.944 2.487-11.963 2.241-20.954 12.133-21.972 24.347l-.33 3.966 1.992.166.33-3.966c.93-11.147 9.029-20.203 19.865-22.452l-.154 4.152c-8.566 2.256-14.988 9.8-15.724 18.631l-.146 1.757 1.992.166.146-1.757c.65-7.792 6.191-14.484 13.655-16.708l-.356 9.614c-.305.035-.595.065-.913.105-2.49.312-4.368 2.445-4.368 4.961v2.235h2v-2.235c0-1.51 1.125-2.789 2.616-2.976 2.578-.323 4.785-.493 6.384-.493s3.806.17 6.384.493c1.491.187 2.616 1.466 2.616 2.976v2.235h2v-2.235c0-2.516-1.878-4.648-4.368-4.96-.318-.04-.608-.07-.913-.105l-.356-9.614c7.464 2.224 13.004 8.916 13.655 16.709l.146 1.756 1.992-.166-.146-1.756c-.736-8.832-7.158-16.376-15.724-18.632l-.154-4.152c10.836 2.248 18.936 11.304 19.865 22.451l.33 3.966 1.992-.166zm-26.989-6.834c-1.038 0-2.295.071-3.711.197l.638-17.234c.021-.54.46-.963 1-.963h4.145c.54 0 .979.423 1 .963l.638 17.234c-1.415-.126-2.672-.197-3.71-.197z"/><path d="m31 17h2v2h-2z"/><path d="m31 9h2v2h-2z"/><path d="m31 13h2v2h-2z"/><path d="m55.603 29.753c-6.999-1.255-16.776-2.753-23.603-2.753s-16.604 1.498-23.603 2.753c-4.286.769-7.397 4.494-7.397 8.856v19.391l.045.458.293.293c2.739 2.74 6.382 4.249 10.256 4.249 1.001 0 2.007-.104 2.988-.311l.231-.079c.075-.036 7.529-3.61 17.187-3.61 9.633 0 17.112 3.574 17.187 3.61l.231.079c.981.207 1.987.311 2.988.311 3.874 0 7.517-1.509 10.297-4.289l.297-.294v-19.808c0-4.362-3.111-8.087-7.397-8.856zm2.397 26.421c-1.64 1.197-3.568 1.826-5.594 1.826-.521 0-1.045-.043-1.561-.129-2.014-.891-9.46-3.871-18.845-3.871s-16.831 2.98-18.846 3.871c-.515.086-1.039.129-1.56.129-2.039 0-3.98-.637-5.594-1.818v-17.573c0-1.939 1.38-3.593 3.28-3.935 9.612-1.724 17.68-2.674 22.72-2.674s13.108.95 22.719 2.675c1.901.341 3.281 1.995 3.281 3.934z" fill="#f0bc5e"/><path d="m11 37h2v2h-2z"/><path d="m9 53h2v2h-2z"/><path d="m9 49h2v2h-2z"/><path d="m9 45h2v2h-2z"/><path d="m54.896 33.69c-9.668-1.734-17.8-2.69-22.896-2.69s-13.227.956-22.896 2.69c-2.378.428-4.104 2.496-4.104 4.919v18.08l.409.3c2.258 1.651 5.11 2.334 7.908 1.868l.241-.072c2.009-.888 9.276-3.785 18.442-3.785s16.433 2.897 18.441 3.786l.241.072c.57.094 1.15.142 1.724.142 2.236 0 4.374-.698 6.184-2.019l.41-.299v-18.073c0-2.423-1.727-4.491-4.104-4.919zm-11.896 5.31h14v2h-14zm8.13 17.904c-2.257-.985-9.747-3.904-19.13-3.904s-16.873 2.919-19.13 3.904c-2.068.312-4.155-.141-5.87-1.247v-16.657h2v-2h-1.525c.435-.685 1.137-1.189 1.982-1.341 9.557-1.715 17.563-2.659 22.543-2.659 4.981 0 12.986.944 22.542 2.659.846.152 1.547.656 1.983 1.341h-41.525v2h26v4h16v12.648c-1.729 1.115-3.812 1.565-5.87 1.256z"/></svg>