<svg id="Layer_5" enable-background="new 0 0 64 64" height="512" viewBox="0 0 64 64" width="512" xmlns="http://www.w3.org/2000/svg"><g fill="#f0bc5e"><path d="m16 35c-3.86 0-7-3.14-7-7s3.14-7 7-7 7 3.14 7 7-3.14 7-7 7zm0-9c-1.103 0-2 .897-2 2s.897 2 2 2 2-.897 2-2-.897-2-2-2z"/><path d="m37 20h-2c-.552 0-1-.448-1-1v-8c0-.552.448-1 1-1h2c.552 0 1 .448 1 1v8c0 .552-.448 1-1 1z"/><path d="m51 20h-2c-.552 0-1-.448-1-1v-8c0-.552.448-1 1-1h2c.552 0 1 .448 1 1v8c0 .552-.448 1-1 1z"/><path d="m37 48h-2c-.552 0-1-.448-1-1v-8c0-.552.448-1 1-1h2c.552 0 1 .448 1 1v8c0 .552-.448 1-1 1z"/><path d="m51 48h-2c-.552 0-1-.448-1-1v-8c0-.552.448-1 1-1h2c.552 0 1 .448 1 1v8c0 .552-.448 1-1 1z"/><path d="m44 26h-2c-.552 0-1-.448-1-1v-1c0-1.105.895-2 2-2 1.105 0 2 .895 2 2v1c0 .552-.448 1-1 1z"/><path d="m44 54h-2c-.552 0-1-.448-1-1v-1c0-1.105.895-2 2-2 1.105 0 2 .895 2 2v1c0 .552-.448 1-1 1z"/></g><path d="m16 25c-1.654 0-3 1.346-3 3s1.346 3 3 3 3-1.346 3-3-1.346-3-3-3zm0 4c-.551 0-1-.449-1-1s.449-1 1-1 1 .449 1 1-.449 1-1 1z"/><path d="m58 1h-30c-2.018 0-3.751 1.208-4.54 2.934-4.309-3.987-11.052-3.899-15.238.288l1.414 1.414c3.51-3.509 9.219-3.509 12.729 0l.781-.781c-.088.369-.146.749-.146 1.145v11h-17c-2.757 0-5 2.243-5 5v36c0 2.757 2.243 5 5 5h18 2 32c2.757 0 5-2.243 5-5v-52c0-2.757-2.243-5-5-5zm-34 60h-18c-1.654 0-3-1.346-3-3v-36c0-1.654 1.346-3 3-3h20c1.654 0 3 1.346 3 3v36c0 1.654-1.346 3-3 3zm7-26h26v22h-26zm-2-16.974v-11.026h28v22h-26v-7c0-1.627-.793-3.061-2-3.974zm32 39.974c0 1.654-1.346 3-3 3h-28.026c.442-.584.773-1.257.924-2h26.102c1.103 0 2-.897 2-2v-22c0-1.103-.897-2-2-2h-26v-2h26c1.103 0 2-.897 2-2v-22c0-1.103-.897-2-2-2h-28c-1.103 0-2 .897-2 2v10.101c-.323-.066-.658-.101-1-.101h-1v-11c0-1.654 1.346-3 3-3h30c1.654 0 3 1.346 3 3z"/><path d="m13 12c0 1.654 1.346 3 3 3s3-1.346 3-3-1.346-3-3-3-3 1.346-3 3zm4 0c0 .551-.449 1-1 1s-1-.449-1-1 .449-1 1-1 1 .449 1 1z"/><path d="m20.95 7.05c-2.729-2.729-7.17-2.729-9.899 0l1.414 1.414c1.949-1.949 5.122-1.949 7.071 0z"/><path d="m17 37h-2c-1.103 0-2 .897-2 2v10c0 1.103.897 2 2 2h2c1.103 0 2-.897 2-2v-10c0-1.103-.897-2-2-2zm0 2v2h-2v-2zm.001 4v2h-2.001v-2zm-2.001 6v-2h2.001v2z"/><path d="m5 57h2v2h-2z"/><path d="m9 57h2v2h-2z"/><path d="m13 57h2v2h-2z"/><path d="m5 53h10v2h-10z"/></svg>