<svg id="Layer_5" enable-background="new 0 0 64 64" height="512" viewBox="0 0 64 64" width="512" xmlns="http://www.w3.org/2000/svg"><path d="m14.667 33h-3.948l2-8h-5.063l3.6-12h7.132l-2 6h4.112z" fill="#f0bc5e"/><path d="m43 31c-4.411 0-8-3.589-8-8s3.589-8 8-8 8 3.589 8 8-3.589 8-8 8z" fill="#f0bc5e"/><path d="m13 5h2v2h-2z"/><path d="m9 5h2v2h-2z"/><path d="m17 5h2v2h-2z"/><path d="m10 39h8v2h-8z"/><path d="m55 17h2v12h-2z"/><path d="m42.618 22 1.277-2.553-1.79-.894-2.723 5.447h4l-1.277 2.553 1.79.894 2.723-5.447z"/><path d="m29 15h2v2h-2z"/><path d="m29 23h2v2h-2z"/><path d="m29 19h2v2h-2z"/><path d="m37 37v-2h21c2.757 0 5-2.243 5-5v-14c0-2.757-2.243-5-5-5h-31v-5c0-2.757-2.243-5-5-5h-16c-2.757 0-5 2.243-5 5v34c0 2.757 2.243 5 5 5h16c2.757 0 5-2.243 5-5v-5h2v2c0 1.859 1.279 3.411 3 3.858v14.642c0 4.136 3.364 7.5 7.5 7.5s7.5-3.364 7.5-7.5v-12c0-2.481 2.019-4.5 4.5-4.5 2.343 0 4.252 1.806 4.459 4.097-2.813.494-4.959 2.95-4.959 5.903v8h2v6h2v-6h4v6h2v-6h2v-8c0-2.974-2.178-5.443-5.021-5.913-.215-3.391-3.034-6.087-6.479-6.087-3.584 0-6.5 2.916-6.5 6.5v12c0 3.032-2.468 5.5-5.5 5.5s-5.5-2.468-5.5-5.5v-14.642c1.721-.447 3-1.999 3-3.858zm24 12v6h-8v-6c0-2.206 1.794-4 4-4s4 1.794 4 4zm-55-46h16c1.654 0 3 1.346 3 3v3h-22v-3c0-1.654 1.346-3 3-3zm19 8v24h-22v-24zm-3 32h-16c-1.654 0-3-1.346-3-3v-3h22v3c0 1.654-1.346 3-3 3zm5-30h28v2h2v-2h1c1.654 0 3 1.346 3 3v14c0 1.654-1.346 3-3 3h-1v-2h-2v2h-28zm4 24v-2h4v2c0 1.103-.897 2-2 2s-2-.897-2-2z"/></svg>