<svg id="Layer_5" enable-background="new 0 0 64 64" height="512" viewBox="0 0 64 64" width="512" xmlns="http://www.w3.org/2000/svg"><path d="m20 31h24v24h-24z" fill="#f0bc5e"/><path d="m32 6c-9.578 0-17.94 5.183-22.452 12.893l1.173.658c1.714.961 3.85.583 5.078-.905 4.009-4.859 9.913-7.646 16.201-7.646s12.192 2.787 16.201 7.646c.772.937 1.905 1.434 3.066 1.434.683 0 1.376-.172 2.011-.529l1.173-.658c-4.51-7.71-12.873-12.893-22.451-12.893z" fill="#f0bc5e"/><path d="m31 34.233v6.686l-3.375-2.7-1.249 1.562 4.023 3.219-4.024 3.219 1.249 1.562 3.375-2.7v6.686l7.748-4.649-5.146-4.118 5.147-4.117zm4.252 12.65-2.252 1.35v-3.152zm-2.252-5.964v-3.152l2.252 1.351z"/><path d="m27 27h2v2h-2z"/><path d="m31 27h2v2h-2z"/><path d="m35 27h2v2h-2z"/><path d="m28 57h8v2h-8z"/><path d="m29.878 17.879 1.415 1.414c.377-.378 1.036-.378 1.413 0l1.415-1.414c-1.133-1.134-3.109-1.134-4.243 0z"/><path d="m27.05 15.05 1.414 1.414c1.949-1.949 5.122-1.949 7.071 0l1.414-1.414c-2.729-2.729-7.169-2.729-9.899 0z"/><path d="m61.665 40.956c.873-2.896 1.335-5.902 1.335-8.956 0-17.093-13.907-31-31-31s-31 13.907-31 31c0 3.081.47 6.112 1.357 9.03-1.14 1.012-1.657 2.628-1.178 4.175l3.098 9.981c.524 1.683 2.059 2.814 3.82 2.814.397 0 .793-.06 1.182-.178.321-.1.62-.248.902-.422 1.095 1.577 2.904 2.6 4.916 2.6.406 0 .812-.041 1.201-.121 1.06-.212 1.994-.699 2.753-1.37.26 2.515 2.366 4.491 4.949 4.491h16c2.61 0 4.734-2.017 4.957-4.57.774.709 1.738 1.228 2.838 1.448.394.081.8.122 1.205.122 2.022 0 3.84-1.032 4.926-2.594.28.171.577.318.897.418.385.116.781.176 1.177.176 1.761 0 3.296-1.131 3.82-2.813l3.098-9.982c.49-1.583-.057-3.243-1.253-4.249zm-29.665-37.956c15.991 0 29 13.009 29 29 0 2.761-.408 5.479-1.171 8.104-.275-.052-.553-.077-.832-.07.006-.903-.195-1.773-.56-2.562.369-1.791.563-3.628.563-5.472 0-14.888-12.112-27-27-27s-27 12.112-27 27c0 1.899.205 3.792.597 5.636-.315.742-.488 1.554-.486 2.398-.313-.009-.625.024-.934.089-.767-2.63-1.177-5.354-1.177-8.123 0-15.991 13.009-29 29-29zm8 20h-16c-2.757 0-5 2.243-5 5v17.88l-2.018-7.056c-.557-2.797-3.028-4.826-5.875-4.826-.411 0-.824.043-1.222.126-1.01.202-1.908.652-2.646 1.275-.153-1.124-.239-2.259-.239-3.399 0-13.785 11.215-25 25-25s25 11.215 25 25c0 1.115-.083 2.227-.229 3.328-.72-.583-1.583-1.008-2.551-1.202-.405-.085-.819-.128-1.229-.128-2.847 0-5.318 2.029-5.856 4.747l-2.135 7.48v-18.225c0-2.757-2.243-5-5-5zm-31.312 32.911c-1.051.317-2.181-.286-2.501-1.318l-3.098-9.98c-.326-1.053.267-2.176 1.32-2.504.344-.106.709-.114 1.062-.026l3.744 13.094c.026.131.076.251.111.378-.193.153-.402.283-.638.356zm2.469-1.205-3.981-13.922c-.254-1.269.133-2.509.92-3.413l6.378 20.573c-1.628-.259-2.97-1.513-3.317-3.238zm5.345 3.028-6.669-21.512c.149-.049.294-.108.452-.139.271-.057.548-.085.821-.085 1.896 0 3.542 1.353 3.933 3.296l3.961 13.848v1.721c-.288 1.3-1.216 2.393-2.498 2.871zm23.498 3.266h-16c-1.654 0-3-1.346-3-3v-3.033c.104-.637.108-1.301 0-1.975v-24.992c0-1.654 1.346-3 3-3h16c1.654 0 3 1.346 3 3v26.004.049 3.947c0 1.654-1.346 3-3 3zm5-6.802v-.276c.006-.209.016-.418.058-.628l4.02-14.079c.371-1.864 2.017-3.217 3.914-3.217.273 0 .55.028.829.087.155.031.297.089.444.137l-6.668 21.512c-1.511-.56-2.528-1.979-2.597-3.536zm4.624 3.747 6.38-20.581c.788.896 1.18 2.118.937 3.342l-4.02 14.079c-.329 1.655-1.669 2.901-3.297 3.16zm11.384-13.334-3.098 9.981c-.262.843-1.029 1.408-1.91 1.408-.199 0-.398-.03-.586-.088-.238-.074-.447-.203-.639-.356.026-.102.068-.197.089-.301l3.76-13.172c.354-.088.72-.08 1.062.025 1.055.329 1.648 1.452 1.322 2.503z"/></svg>